<svg width="19" height="25" viewBox="0 0 19 25" fill="none" xmlns="http://www.w3.org/2000/svg">
<path fill-rule="evenodd" clip-rule="evenodd" d="M5.01442 0.90095C5.26321 0.90095 5.4649 0.699265 5.4649 0.450475C5.4649 0.201684 5.26321 0 5.01442 0C4.76563 0 4.56395 0.201684 4.56395 0.450475C4.56395 0.699265 4.76563 0.90095 5.01442 0.90095ZM8.91765 2.10219C8.91765 2.76563 8.37982 3.30346 7.71638 3.30346C7.05294 3.30346 6.51512 2.76563 6.51512 2.10219C6.51512 1.43875 7.05294 0.900927 7.71638 0.900927C8.37982 0.900927 8.91765 1.43875 8.91765 2.10219ZM15.9063 4.6535C16.1061 4.28425 15.9729 3.81429 15.6067 3.57931C15.2405 3.3779 14.7744 3.51217 14.5414 3.88142L12.1111 8.1782H13.8755L15.9063 4.6535ZM15.3825 11.2515C17.1561 12.5747 18.2822 14.4609 18.2822 16.5441C18.2822 18.8244 16.959 20.8232 14.9039 22.1464L15.7485 23.1317C16.03 23.4977 16.0019 24.0044 15.6359 24.3141C15.2699 24.5956 14.7632 24.5674 14.4535 24.2015L13.3837 22.9065C12.2295 23.3851 10.9064 23.6384 9.49876 23.6384C8.06301 23.6384 6.71171 23.3569 5.52933 22.8783L4.4314 24.2015C4.14988 24.5674 3.61499 24.6237 3.24901 24.3141C2.88304 24.0325 2.82673 23.4977 3.13641 23.1317L4.00912 22.0901C2.01032 20.7951 0.715332 18.7963 0.715332 16.5441C0.715332 14.4327 1.84141 12.5465 3.61499 11.2515C3.24901 10.9982 2.99565 10.5477 2.99565 10.041C2.99565 9.22459 3.67129 8.54894 4.4877 8.54894H14.5098C15.3262 8.54894 16.0019 9.22459 16.0019 10.041C16.0019 10.5477 15.7485 10.97 15.3825 11.2515ZM3.23207 12.4685C1.38154 14.4795 -0.693699 19.1988 5.80959 21.9875C3.85993 20.8479 1.5883 17.1878 5.47442 12.7366C5.47442 12.7366 4.46889 12.9626 3.93261 12.8707C3.52889 12.8015 3.23207 12.4685 3.23207 12.4685ZM6.66644 5.18044C6.66644 5.80242 6.16223 6.30663 5.54025 6.30663C4.91828 6.30663 4.41406 5.80242 4.41406 5.18044C4.41406 4.55847 4.91828 4.05425 5.54025 4.05425C6.16223 4.05425 6.66644 4.55847 6.66644 5.18044ZM9.52003 7.50785C10.3493 7.50785 11.0216 6.83557 11.0216 6.00627C11.0216 5.17697 10.3493 4.50469 9.52003 4.50469C8.69073 4.50469 8.01845 5.17697 8.01845 6.00627C8.01845 6.83557 8.69073 7.50785 9.52003 7.50785ZM11.7714 2.6278C11.7714 2.83512 11.6033 3.00319 11.396 3.00319C11.1887 3.00319 11.0206 2.83512 11.0206 2.6278C11.0206 2.42047 11.1887 2.2524 11.396 2.2524C11.6033 2.2524 11.7714 2.42047 11.7714 2.6278Z" fill="url(#paint0_linear_659_13860)"/>
<defs>
<linearGradient id="paint0_linear_659_13860" x1="-42.1038" y1="-35.2405" x2="41.1664" y2="5.78204" gradientUnits="userSpaceOnUse">
<stop stop-color="#63F3F0"/>
<stop offset="0.0677083" stop-color="#66FFFB"/>
<stop offset="0.333333" stop-color="#26B3FF"/>
<stop offset="0.829429" stop-color="#75CBC9"/>
<stop offset="0.89098" stop-color="#BCF5F3"/>
</linearGradient>
</defs>
</svg>
