<svg width="43" height="43" viewBox="0 0 43 43" fill="none" xmlns="http://www.w3.org/2000/svg">
<path fill-rule="evenodd" clip-rule="evenodd" d="M21.5 43C33.3741 43 43 33.3741 43 21.5C43 9.62588 33.3741 0 21.5 0C9.62588 0 0 9.62588 0 21.5C0 25.6924 1.19996 29.6046 3.27517 32.9118L0 43L9.0707 39.0453C12.5801 41.5359 16.8691 43 21.5 43Z" fill="#E95144"/>
<path d="M10.2809 16.6182H9.26771V23.8797H10.2809V16.6182ZM10.5343 25.9062C10.5343 25.5122 10.2247 25.1463 9.77433 25.1463C9.324 25.1463 9.0144 25.5122 9.0144 25.9062C9.0144 26.3002 9.324 26.6661 9.77433 26.6661C10.2247 26.6661 10.5343 26.3002 10.5343 25.9062Z" fill="white"/>
<path d="M13.2407 26.5817H14.0992L14.5213 23.5701H16.393L15.9708 26.5817H16.8293L17.2515 23.5701H18.7009V22.7258H17.364L17.6736 20.446H19.0668V19.6016H17.8003L18.2084 16.6182H17.35L16.9419 19.6016H15.0702L15.4783 16.6182H14.6199L14.2117 19.6016H12.5652V20.446H14.0851L13.7755 22.7258H12.2275V23.5701H13.6629L13.2407 26.5817ZM14.9435 20.446H16.8152L16.5056 22.7258H14.6339L14.9435 20.446Z" fill="white"/>
<path d="M19.7235 22.9509C20.3568 22.9509 20.976 23.5279 20.976 24.513V27.0179C20.976 28.3408 21.6937 28.777 22.4959 28.777H23.3965V27.9327H22.6084C21.9189 27.9327 21.9048 27.2994 21.9048 26.7646V24.3441C21.9048 22.9791 20.976 22.585 20.6523 22.5428V22.5147C20.976 22.4725 21.9048 22.0784 21.9048 20.7134V18.2929C21.9048 17.7581 21.9189 17.1248 22.6084 17.1248H23.3965V16.2805H22.4959C21.6937 16.2805 20.976 16.7167 20.976 18.0395V20.5445C20.976 21.5296 20.3568 22.1066 19.7235 22.1066V22.9509Z" fill="white"/>
<path d="M27.0943 23.162C27.0943 21.1074 29.3741 21.3044 29.3741 18.9121C29.3741 17.3218 28.2061 16.4493 26.7003 16.4493C25.2508 16.4493 24.0828 17.3078 23.8717 18.7854L24.9271 18.9121C25.096 17.9973 25.7715 17.3781 26.7144 17.3781C27.6854 17.3781 28.3609 18.0395 28.3609 18.9965C28.3609 20.6571 26.1092 21.1637 26.0811 22.7117V23.8797H27.0943V23.162ZM27.4321 25.9062C27.4321 25.5122 27.1225 25.1463 26.6722 25.1463C26.2218 25.1463 25.9122 25.5122 25.9122 25.9062C25.9122 26.3002 26.2218 26.6661 26.6722 26.6661C27.1225 26.6661 27.4321 26.3002 27.4321 25.9062Z" fill="white"/>
<path d="M32.462 16.6182H31.4487V23.8797H32.462V16.6182ZM32.7153 25.9062C32.7153 25.5122 32.4057 25.1463 31.9554 25.1463C31.505 25.1463 31.1954 25.5122 31.1954 25.9062C31.1954 26.3002 31.505 26.6661 31.9554 26.6661C32.4057 26.6661 32.7153 26.3002 32.7153 25.9062Z" fill="white"/>
</svg>
