<svg width="72" height="61" viewBox="0 0 72 61" fill="none" xmlns="http://www.w3.org/2000/svg">
<g filter="url(#filter0_dd_1534_28546)">
<path d="M67.9502 28.995C69.2492 45.8915 44.8242 53.9447 32.367 52.2724C19.9097 50.6001 9.30743 44.6126 5.06754 28.995C-1.61625 4.37529 24.7056 -4.24861 38.9768 9.7962C53.6208 24.2079 67.0657 17.4904 67.9502 28.995Z" fill="url(#paint0_linear_1534_28546)"/>
</g>
<path d="M63.7509 15.2906C59.8081 32.7123 55.6034 53.8487 52.5914 58.0562C43.7822 56.9403 33.6298 54.9202 22.9603 52.5519L37.0188 9.3666L63.7509 15.2906Z" fill="#E3E3E3"/>
<path d="M51.5331 56.3367C37.612 55.4386 28.6083 53.5149 21.4492 51.3221C24.672 41.4912 28.8365 24.8899 32.9971 8.3158L49.1765 12.0244L63.6073 16.3156C59.8974 33.656 56.2965 49.6339 51.5331 56.3367Z" fill="white"/>
<path d="M54.5459 20.5258L38.4545 16.4745L39.0717 14.0234L55.1631 18.0747L54.5459 20.5258Z" fill="#6F8BD4"/>
<path d="M56.9138 24.8116L42.3995 21.1574L42.1171 22.2792L56.6312 25.9334L56.9138 24.8116Z" fill="#6F8BD4"/>
<path d="M51.6492 26.0876L41.7836 23.6037L41.5009 24.7254L51.3665 27.2093L51.6492 26.0876Z" fill="#D2DFFF"/>
<path d="M36.9462 23.5089L33.5102 22.6437L34.3753 19.2078L37.8112 20.0727L36.9462 23.5089Z" fill="white"/>
<path fill-rule="evenodd" clip-rule="evenodd" d="M33.9418 18.4829L38.5363 19.6395L37.3796 24.2342L32.7849 23.0773L33.9418 18.4829ZM34.8087 19.9331L34.2352 22.2105L36.5127 22.7839L37.086 20.5064L34.8087 19.9331Z" fill="#6F8BD4"/>
<path d="M52.779 30.4124L40.8264 27.4031L40.5439 28.5249L52.4963 31.5341L52.779 30.4124Z" fill="#6F8BD4"/>
<path d="M54.7252 33.5048L40.211 29.8504L39.9286 30.9724L54.4427 34.6268L54.7252 33.5048Z" fill="#D2DFFF"/>
<path d="M35.373 29.7558L31.9369 28.8908L32.8021 25.4547L36.238 26.3197L35.373 29.7558Z" fill="white"/>
<path fill-rule="evenodd" clip-rule="evenodd" d="M32.3686 24.7296L36.963 25.8862L35.8064 30.4809L31.2116 29.3243L32.3686 24.7296ZM33.2354 26.1799L32.6619 28.4574L34.9395 29.0307L35.5128 26.7532L33.2354 26.1799Z" fill="#6F8BD4"/>
<path d="M53.7672 37.307L39.253 33.6525L38.9706 34.7746L53.4847 38.429L53.7672 37.307Z" fill="#6F8BD4"/>
<path d="M45.1291 37.7317L38.6379 36.0976L38.3554 37.2194L44.8464 38.8535L45.1291 37.7317Z" fill="#D2DFFF"/>
<path d="M33.7996 36.0032L30.3636 35.1382L31.2286 31.7021L34.6647 32.5673L33.7996 36.0032Z" fill="white"/>
<path fill-rule="evenodd" clip-rule="evenodd" d="M30.796 30.9772L35.3907 32.1341L34.2339 36.7285L29.6394 35.5719L30.796 30.9772ZM31.6629 32.4275L31.0896 34.705L33.367 35.2783L33.9404 33.001L31.6629 32.4275Z" fill="#6F8BD4"/>
<path d="M52.1953 43.5523L37.6809 39.8978L37.3984 41.0197L51.9126 44.6742L52.1953 43.5523Z" fill="#6F8BD4"/>
<path d="M48.5305 45.2313L37.0649 42.3445L36.7822 43.4663L48.2478 46.3532L48.5305 45.2313Z" fill="#D2DFFF"/>
<path d="M32.2275 42.2475L28.7914 41.3823L29.6566 37.9464L33.0925 38.8113L32.2275 42.2475Z" fill="white"/>
<path fill-rule="evenodd" clip-rule="evenodd" d="M29.2231 37.2218L33.8175 38.3784L32.6609 42.9732L28.0662 41.8162L29.2231 37.2218ZM30.0899 38.672L29.5165 40.9494L31.794 41.5229L32.3673 39.2454L30.0899 38.672Z" fill="#6F8BD4"/>
<path d="M41.8727 47.5461L36.1194 46.0976L35.8369 47.2194L41.5901 48.6681L41.8727 47.5461Z" fill="#6F8BD4"/>
<path d="M50.0182 52.1974L35.5039 48.5429L35.2216 49.6649C40.8368 51.0785 47.9653 52.974 49.4829 53.0817C49.7631 52.879 49.9536 52.5954 50.0182 52.1974Z" fill="#D2DFFF"/>
<path d="M30.7148 48.4618L27.2787 47.5966L28.1439 44.1607L31.5798 45.0258L30.7148 48.4618Z" fill="white"/>
<path fill-rule="evenodd" clip-rule="evenodd" d="M27.7104 43.4359L32.3048 44.5927L31.1482 49.1873L26.5535 48.0303L27.7104 43.4359ZM28.5772 44.8862L28.0038 47.1635L30.2813 47.737L30.8546 45.4596L28.5772 44.8862Z" fill="#6F8BD4"/>
<path d="M28.4863 45.2479C28.5005 45.6805 28.3093 47.4356 29.2744 47.1515C29.4969 47.0862 29.7304 46.8327 29.916 46.6986C30.2499 46.4572 30.5841 46.216 30.9183 45.9745C31.5862 45.4921 32.2541 45.0096 32.9222 44.5269C33.0934 44.4032 32.5802 43.8792 32.3653 44.0344L30.5838 45.3212C30.287 45.5358 29.9901 45.75 29.6932 45.9646C29.4871 46.1135 28.9721 46.6273 28.7169 46.6254C28.8395 46.6981 28.962 46.771 29.0845 46.8438C29.1605 46.9417 29.1102 46.3587 29.1099 46.3431C29.1011 46.0757 29.0925 45.8087 29.0837 45.5415C29.0766 45.3208 28.4758 44.9209 28.4863 45.2479Z" fill="#ED6E56"/>
<path d="M29.9404 39.0695C29.9546 39.5021 29.7634 41.2572 30.7285 40.9731C30.951 40.9078 31.1845 40.6543 31.3701 40.5202C31.704 40.2788 32.0382 40.0376 32.3724 39.7961C33.0403 39.3137 33.7082 38.8312 34.3763 38.3484C34.5475 38.2248 34.0343 37.7008 33.8194 37.856L32.0379 39.1428C31.7411 39.3574 31.4442 39.5716 31.1473 39.7862C30.9412 39.9351 30.4262 40.4489 30.171 40.447C30.2936 40.5197 30.4161 40.5926 30.5386 40.6654C30.6146 40.7633 30.5643 40.1803 30.564 40.1647C30.5552 39.8973 30.5466 39.6303 30.5378 39.3631C30.5307 39.1424 29.9299 38.7425 29.9404 39.0695Z" fill="#ED6E56"/>
<path d="M31.4219 32.8708C31.436 33.3034 31.2448 35.0585 32.21 34.7743C32.4324 34.709 32.6659 34.4555 32.8515 34.3215C33.1854 34.0801 33.5197 33.8389 33.8538 33.5974C34.5217 33.1149 35.1896 32.6325 35.8578 32.1497C36.029 32.026 35.5157 31.502 35.3008 31.6572L33.5194 32.9441C33.2226 33.1587 32.9257 33.3729 32.6287 33.5875C32.4226 33.7363 31.9077 34.2502 31.6525 34.2483C31.775 34.321 31.8975 34.3939 32.0201 34.4666C32.0961 34.5645 32.0458 33.9816 32.0454 33.966C32.0367 33.6986 32.0281 33.4316 32.0193 33.1644C32.0122 32.9437 31.4113 32.5438 31.4219 32.8708Z" fill="#ED6E56"/>
<path d="M32.9219 26.601C32.936 27.0336 32.7448 28.7886 33.71 28.5045C33.9324 28.4392 34.1659 28.1857 34.3515 28.0516C34.6854 27.8103 35.0197 27.569 35.3538 27.3275C36.0217 26.8451 36.6896 26.3627 37.3578 25.8799C37.529 25.7562 37.0157 25.2322 36.8008 25.3874L35.0194 26.6742C34.7226 26.8889 34.4257 27.1031 34.1287 27.3177C33.9226 27.4665 33.4077 27.9804 33.1525 27.9784C33.275 28.0511 33.3975 28.1241 33.5201 28.1968C33.5961 28.2947 33.5458 27.7118 33.5454 27.6962C33.5367 27.4288 33.5281 27.1618 33.5193 26.8945C33.5122 26.6738 32.9113 26.2739 32.9219 26.601Z" fill="#ED6E56"/>
<path d="M34.5586 20.2855C34.5727 20.7181 34.3816 22.4732 35.3467 22.1891C35.5691 22.1238 35.8027 21.8703 35.9883 21.7362C36.3221 21.4948 36.6564 21.2536 36.9905 21.0121C37.6584 20.5297 38.3263 20.0472 38.9945 19.5644C39.1657 19.4408 38.6525 18.9168 38.4376 19.072L36.6561 20.3588C36.3593 20.5734 36.0624 20.7876 35.7654 21.0022C35.5593 21.1511 35.0444 21.6649 34.7892 21.663C34.9117 21.7357 35.0342 21.8086 35.1568 21.8814C35.2328 21.9793 35.1825 21.3963 35.1822 21.3807C35.1734 21.1133 35.1648 20.8463 35.156 20.5791C35.1489 20.3584 34.5481 19.9585 34.5586 20.2855Z" fill="#ED6E56"/>
<path d="M55.5693 11.5888L54.787 15.0365L40.9346 11.8934L41.7169 8.4457C41.8416 7.89596 42.1779 7.44894 42.6196 7.16959C42.6747 7.13472 42.7309 7.10316 42.789 7.07532C43.1974 6.86742 43.6786 6.79671 44.1603 6.90603C44.5213 6.98793 44.8869 6.9839 45.2313 6.90503C45.3809 6.87016 45.5261 6.82226 45.6666 6.76122C46.129 6.55804 46.5266 6.21048 46.79 5.74857C47.0587 5.27723 47.4696 4.92514 47.9438 4.72319C48.3995 4.53073 48.9135 4.47645 49.4197 4.59132L50.2842 4.78747C50.7905 4.90234 51.2307 5.17313 51.5587 5.54341C51.8993 5.93023 52.118 6.42517 52.1569 6.96631C52.1952 7.49668 52.4039 7.98179 52.7333 8.36466C52.8337 8.48033 52.944 8.58622 53.0639 8.68223C53.3405 8.90201 53.6684 9.06338 54.0296 9.14534C54.5114 9.25465 54.9149 9.5261 55.1935 9.88988C55.5535 10.3544 55.7095 10.9709 55.5693 11.5888Z" fill="#ED6E56"/>
<path d="M56.295 13.5985L55.7134 16.1617L39.6127 12.5085L40.1943 9.94525L41.3185 10.2003L40.9344 11.8932L54.7867 15.0363L55.1708 13.3434L56.295 13.5985Z" fill="#E3E3E3"/>
<path d="M50.6122 7.03487C50.4658 7.67976 49.7971 8.07788 49.1186 7.92393C48.4401 7.76998 48.0086 7.12222 48.1549 6.47734C48.3013 5.83245 48.97 5.43433 49.6485 5.58828C50.327 5.74222 50.7585 6.38999 50.6122 7.03487Z" fill="white"/>
<path d="M20.2159 46.0378C20.2159 46.0378 20.3319 48.0516 20.1173 47.9812C19.9028 47.9107 19.29 46.2198 19.29 46.2198L19.6433 45.464L20.2159 46.0378Z" fill="#ED6E56"/>
<path d="M9.96412 10.6337L9.82742 9.98236C9.58655 8.83288 10.3231 7.70535 11.4727 7.46429L11.6402 7.42934C12.7896 7.1883 13.917 7.92503 14.1581 9.07449L14.2946 9.72568L9.96412 10.6337Z" fill="#101F47"/>
<path d="M16.5762 42.1671L9.96464 10.6334L14.2951 9.72521L20.9068 41.2589L16.5762 42.1671Z" fill="#ED6E56"/>
<path d="M9.96526 10.6334L14.2948 9.72565L14.5609 10.9964L14.746 11.8791L15.3161 14.5924L10.9852 15.5005L10.4166 12.7869L10.2315 11.9041L9.96526 10.6334Z" fill="#101F47"/>
<path d="M9.75793 11.5643C9.74537 11.502 9.75009 11.4374 9.77157 11.3776C9.89088 11.0452 10.3719 11.0804 10.4416 11.4265L10.9415 13.9074L11.4605 16.4833L13.0368 24.3054C13.0494 24.3677 13.0446 24.4323 13.0232 24.4921C12.9038 24.8246 12.4227 24.7895 12.3529 24.4432L11.0048 17.7526L10.4858 15.1767L9.75793 11.5643Z" fill="#101F47"/>
<path d="M10.231 11.9029L14.5606 10.9949L14.7457 11.8777L10.4162 12.7856L10.231 11.9029Z" fill="#FAC343"/>
<path d="M20.907 41.2589L20.2642 46.2743C20.2642 46.2743 19.8227 46.1372 19.3506 46.5116L16.576 42.1668L20.907 41.2589Z" fill="#FBAB9C"/>
<defs>
<filter id="filter0_dd_1534_28546" x="0" y="3.05658" width="72" height="57.4321" filterUnits="userSpaceOnUse" color-interpolation-filters="sRGB">
<feFlood flood-opacity="0" result="BackgroundImageFix"/>
<feColorMatrix in="SourceAlpha" type="matrix" values="0 0 0 0 0 0 0 0 0 0 0 0 0 0 0 0 0 0 127 0" result="hardAlpha"/>
<feOffset dy="4"/>
<feGaussianBlur stdDeviation="2"/>
<feComposite in2="hardAlpha" operator="out"/>
<feColorMatrix type="matrix" values="0 0 0 0 0 0 0 0 0 0 0 0 0 0 0 0 0 0 0.25 0"/>
<feBlend mode="normal" in2="BackgroundImageFix" result="effect1_dropShadow_1534_28546"/>
<feColorMatrix in="SourceAlpha" type="matrix" values="0 0 0 0 0 0 0 0 0 0 0 0 0 0 0 0 0 0 127 0" result="hardAlpha"/>
<feOffset dy="4"/>
<feGaussianBlur stdDeviation="2"/>
<feComposite in2="hardAlpha" operator="out"/>
<feColorMatrix type="matrix" values="0 0 0 0 0 0 0 0 0 0 0 0 0 0 0 0 0 0 0.25 0"/>
<feBlend mode="normal" in2="effect1_dropShadow_1534_28546" result="effect2_dropShadow_1534_28546"/>
<feBlend mode="normal" in="SourceGraphic" in2="effect2_dropShadow_1534_28546" result="shape"/>
</filter>
<linearGradient id="paint0_linear_1534_28546" x1="41.8513" y1="5.87624" x2="28.9065" y2="58.4244" gradientUnits="userSpaceOnUse">
<stop stop-color="#B9F3F2" stop-opacity="0"/>
<stop offset="1" stop-color="#73CAC8"/>
</linearGradient>
</defs>
</svg>
