<svg width="12" height="11" viewBox="0 0 12 11" fill="none" xmlns="http://www.w3.org/2000/svg">
<path d="M11.0977 0.597656H9.59766V0.298828C9.59766 0.216797 9.56836 0.146484 9.50977 0.0878906C9.45117 0.0292969 9.38086 0 9.29883 0C9.2168 0 9.14648 0.0292969 9.08789 0.0878906C9.0293 0.146484 9 0.216797 9 0.298828V0.597656H3V0.298828C3 0.216797 2.9707 0.146484 2.91211 0.0878906C2.85352 0.0292969 2.7832 0 2.70117 0C2.61914 0 2.54883 0.0292969 2.49023 0.0878906C2.43164 0.146484 2.40234 0.216797 2.40234 0.298828V0.597656H0.902344C0.652344 0.597656 0.439453 0.685547 0.263672 0.861328C0.0878906 1.03711 0 1.25 0 1.5V9.89648C0 10.1465 0.0878906 10.3594 0.263672 10.5352C0.439453 10.7109 0.652344 10.7988 0.902344 10.7988H11.0977C11.3477 10.7988 11.5605 10.7109 11.7363 10.5352C11.9121 10.3594 12 10.1465 12 9.89648V1.5C12 1.25 11.9121 1.03711 11.7363 0.861328C11.5605 0.685547 11.3477 0.597656 11.0977 0.597656ZM0.902344 1.20117H2.40234V2.09766C2.40234 2.17969 2.43164 2.25 2.49023 2.30859C2.54883 2.36719 2.61914 2.39648 2.70117 2.39648C2.7832 2.39648 2.85352 2.36719 2.91211 2.30859C2.9707 2.25 3 2.17969 3 2.09766V1.20117H9V2.09766C9 2.17969 9.0293 2.25 9.08789 2.30859C9.14648 2.36719 9.2168 2.39648 9.29883 2.39648C9.38086 2.39648 9.45117 2.36719 9.50977 2.30859C9.56836 2.25 9.59766 2.17969 9.59766 2.09766V1.20117H11.0977C11.1836 1.20117 11.2559 1.23047 11.3145 1.28906C11.373 1.34766 11.4023 1.41797 11.4023 1.5V3H0.597656V1.5C0.597656 1.41797 0.626953 1.34766 0.685547 1.28906C0.744141 1.23047 0.816406 1.20117 0.902344 1.20117ZM11.0977 10.2012H0.902344C0.816406 10.2012 0.744141 10.1719 0.685547 10.1133C0.626953 10.0547 0.597656 9.98242 0.597656 9.89648V3.59766H11.4023V9.89648C11.4023 9.98242 11.373 10.0547 11.3145 10.1133C11.2559 10.1719 11.1836 10.2012 11.0977 10.2012ZM4.5 5.39648H3.90234C3.81641 5.39648 3.74414 5.36719 3.68555 5.30859C3.62695 5.25 3.59766 5.17969 3.59766 5.09766C3.59766 5.01562 3.62695 4.94531 3.68555 4.88672C3.74414 4.82812 3.81641 4.79883 3.90234 4.79883H4.5C4.58203 4.79883 4.65234 4.82812 4.71094 4.88672C4.76953 4.94531 4.79883 5.01562 4.79883 5.09766C4.79883 5.17969 4.76953 5.25 4.71094 5.30859C4.65234 5.36719 4.58203 5.39648 4.5 5.39648ZM6.29883 5.39648H5.70117C5.61914 5.39648 5.54883 5.36719 5.49023 5.30859C5.43164 5.25 5.40234 5.17969 5.40234 5.09766C5.40234 5.01562 5.43164 4.94531 5.49023 4.88672C5.54883 4.82812 5.61914 4.79883 5.70117 4.79883H6.29883C6.38086 4.79883 6.45117 4.82812 6.50977 4.88672C6.56836 4.94531 6.59766 5.01562 6.59766 5.09766C6.59766 5.17969 6.56836 5.25 6.50977 5.30859C6.45117 5.36719 6.38086 5.39648 6.29883 5.39648ZM8.09766 5.39648H7.5C7.41797 5.39648 7.34766 5.36719 7.28906 5.30859C7.23047 5.25 7.20117 5.17969 7.20117 5.09766C7.20117 5.01562 7.23047 4.94531 7.28906 4.88672C7.34766 4.82812 7.41797 4.79883 7.5 4.79883H8.09766C8.18359 4.79883 8.25586 4.82812 8.31445 4.88672C8.37305 4.94531 8.40234 5.01562 8.40234 5.09766C8.40234 5.17969 8.37305 5.25 8.31445 5.30859C8.25586 5.36719 8.18359 5.39648 8.09766 5.39648ZM9.90234 5.39648H9.29883C9.2168 5.39648 9.14648 5.36719 9.08789 5.30859C9.0293 5.25 9 5.17969 9 5.09766C9 5.01562 9.0293 4.94531 9.08789 4.88672C9.14648 4.82812 9.2168 4.79883 9.29883 4.79883H9.90234C9.98438 4.79883 10.0547 4.82812 10.1133 4.88672C10.1719 4.94531 10.2012 5.01562 10.2012 5.09766C10.2012 5.17969 10.1719 5.25 10.1133 5.30859C10.0547 5.36719 9.98438 5.39648 9.90234 5.39648ZM2.70117 6.59766H2.09766C2.01562 6.59766 1.94531 6.56836 1.88672 6.50977C1.82812 6.45117 1.79883 6.38086 1.79883 6.29883C1.79883 6.2168 1.82812 6.14648 1.88672 6.08789C1.94531 6.0293 2.01562 6 2.09766 6H2.70117C2.7832 6 2.85352 6.0293 2.91211 6.08789C2.9707 6.14648 3 6.2168 3 6.29883C3 6.38086 2.9707 6.45117 2.91211 6.50977C2.85352 6.56836 2.7832 6.59766 2.70117 6.59766ZM4.5 6.59766H3.90234C3.81641 6.59766 3.74414 6.56836 3.68555 6.50977C3.62695 6.45117 3.59766 6.38086 3.59766 6.29883C3.59766 6.2168 3.62695 6.14648 3.68555 6.08789C3.74414 6.0293 3.81641 6 3.90234 6H4.5C4.58203 6 4.65234 6.0293 4.71094 6.08789C4.76953 6.14648 4.79883 6.2168 4.79883 6.29883C4.79883 6.38086 4.76953 6.45117 4.71094 6.50977C4.65234 6.56836 4.58203 6.59766 4.5 6.59766ZM6.29883 6.59766H5.70117C5.61914 6.59766 5.54883 6.56836 5.49023 6.50977C5.43164 6.45117 5.40234 6.38086 5.40234 6.29883C5.40234 6.2168 5.43164 6.14648 5.49023 6.08789C5.54883 6.0293 5.61914 6 5.70117 6H6.29883C6.38086 6 6.45117 6.0293 6.50977 6.08789C6.56836 6.14648 6.59766 6.2168 6.59766 6.29883C6.59766 6.38086 6.56836 6.45117 6.50977 6.50977C6.45117 6.56836 6.38086 6.59766 6.29883 6.59766ZM8.09766 6.59766H7.5C7.41797 6.59766 7.34766 6.56836 7.28906 6.50977C7.23047 6.45117 7.20117 6.38086 7.20117 6.29883C7.20117 6.2168 7.23047 6.14648 7.28906 6.08789C7.34766 6.0293 7.41797 6 7.5 6H8.09766C8.18359 6 8.25586 6.0293 8.31445 6.08789C8.37305 6.14648 8.40234 6.2168 8.40234 6.29883C8.40234 6.38086 8.37305 6.45117 8.31445 6.50977C8.25586 6.56836 8.18359 6.59766 8.09766 6.59766ZM9.90234 6.59766H9.29883C9.2168 6.59766 9.14648 6.56836 9.08789 6.50977C9.0293 6.45117 9 6.38086 9 6.29883C9 6.2168 9.0293 6.14648 9.08789 6.08789C9.14648 6.0293 9.2168 6 9.29883 6H9.90234C9.98438 6 10.0547 6.0293 10.1133 6.08789C10.1719 6.14648 10.2012 6.2168 10.2012 6.29883C10.2012 6.38086 10.1719 6.45117 10.1133 6.50977C10.0547 6.56836 9.98438 6.59766 9.90234 6.59766ZM2.70117 7.79883H2.09766C2.01562 7.79883 1.94531 7.76953 1.88672 7.71094C1.82812 7.65234 1.79883 7.58203 1.79883 7.5C1.79883 7.41797 1.82812 7.34766 1.88672 7.28906C1.94531 7.23047 2.01562 7.20117 2.09766 7.20117H2.70117C2.7832 7.20117 2.85352 7.23047 2.91211 7.28906C2.9707 7.34766 3 7.41797 3 7.5C3 7.58203 2.9707 7.65234 2.91211 7.71094C2.85352 7.76953 2.7832 7.79883 2.70117 7.79883ZM4.5 7.79883H3.90234C3.81641 7.79883 3.74414 7.76953 3.68555 7.71094C3.62695 7.65234 3.59766 7.58203 3.59766 7.5C3.59766 7.41797 3.62695 7.34766 3.68555 7.28906C3.74414 7.23047 3.81641 7.20117 3.90234 7.20117H4.5C4.58203 7.20117 4.65234 7.23047 4.71094 7.28906C4.76953 7.34766 4.79883 7.41797 4.79883 7.5C4.79883 7.58203 4.76953 7.65234 4.71094 7.71094C4.65234 7.76953 4.58203 7.79883 4.5 7.79883ZM6.29883 7.79883H5.70117C5.61914 7.79883 5.54883 7.76953 5.49023 7.71094C5.43164 7.65234 5.40234 7.58203 5.40234 7.5C5.40234 7.41797 5.43164 7.34766 5.49023 7.28906C5.54883 7.23047 5.61914 7.20117 5.70117 7.20117H6.29883C6.38086 7.20117 6.45117 7.23047 6.50977 7.28906C6.56836 7.34766 6.59766 7.41797 6.59766 7.5C6.59766 7.58203 6.56836 7.65234 6.50977 7.71094C6.45117 7.76953 6.38086 7.79883 6.29883 7.79883ZM8.09766 7.79883H7.5C7.41797 7.79883 7.34766 7.76953 7.28906 7.71094C7.23047 7.65234 7.20117 7.58203 7.20117 7.5C7.20117 7.41797 7.23047 7.34766 7.28906 7.28906C7.34766 7.23047 7.41797 7.20117 7.5 7.20117H8.09766C8.18359 7.20117 8.25586 7.23047 8.31445 7.28906C8.37305 7.34766 8.40234 7.41797 8.40234 7.5C8.40234 7.58203 8.37305 7.65234 8.31445 7.71094C8.25586 7.76953 8.18359 7.79883 8.09766 7.79883ZM9.90234 7.79883H9.29883C9.2168 7.79883 9.14648 7.76953 9.08789 7.71094C9.0293 7.65234 9 7.58203 9 7.5C9 7.41797 9.0293 7.34766 9.08789 7.28906C9.14648 7.23047 9.2168 7.20117 9.29883 7.20117H9.90234C9.98438 7.20117 10.0547 7.23047 10.1133 7.28906C10.1719 7.34766 10.2012 7.41797 10.2012 7.5C10.2012 7.58203 10.1719 7.65234 10.1133 7.71094C10.0547 7.76953 9.98438 7.79883 9.90234 7.79883ZM2.70117 9H2.09766C2.01562 9 1.94531 8.9707 1.88672 8.91211C1.82812 8.85352 1.79883 8.7832 1.79883 8.70117C1.79883 8.61523 1.82812 8.54297 1.88672 8.48438C1.94531 8.42578 2.01562 8.39648 2.09766 8.39648H2.70117C2.7832 8.39648 2.85352 8.42578 2.91211 8.48438C2.9707 8.54297 3 8.61523 3 8.70117C3 8.7832 2.9707 8.85352 2.91211 8.91211C2.85352 8.9707 2.7832 9 2.70117 9ZM4.5 9H3.90234C3.81641 9 3.74414 8.9707 3.68555 8.91211C3.62695 8.85352 3.59766 8.7832 3.59766 8.70117C3.59766 8.61523 3.62695 8.54297 3.68555 8.48438C3.74414 8.42578 3.81641 8.39648 3.90234 8.39648H4.5C4.58203 8.39648 4.65234 8.42578 4.71094 8.48438C4.76953 8.54297 4.79883 8.61523 4.79883 8.70117C4.79883 8.7832 4.76953 8.85352 4.71094 8.91211C4.65234 8.9707 4.58203 9 4.5 9ZM6.29883 9H5.70117C5.61914 9 5.54883 8.9707 5.49023 8.91211C5.43164 8.85352 5.40234 8.7832 5.40234 8.70117C5.40234 8.61523 5.43164 8.54297 5.49023 8.48438C5.54883 8.42578 5.61914 8.39648 5.70117 8.39648H6.29883C6.38086 8.39648 6.45117 8.42578 6.50977 8.48438C6.56836 8.54297 6.59766 8.61523 6.59766 8.70117C6.59766 8.7832 6.56836 8.85352 6.50977 8.91211C6.45117 8.9707 6.38086 9 6.29883 9ZM8.09766 9H7.5C7.41797 9 7.34766 8.9707 7.28906 8.91211C7.23047 8.85352 7.20117 8.7832 7.20117 8.70117C7.20117 8.61523 7.23047 8.54297 7.28906 8.48438C7.34766 8.42578 7.41797 8.39648 7.5 8.39648H8.09766C8.18359 8.39648 8.25586 8.42578 8.31445 8.48438C8.37305 8.54297 8.40234 8.61523 8.40234 8.70117C8.40234 8.7832 8.37305 8.85352 8.31445 8.91211C8.25586 8.9707 8.18359 9 8.09766 9ZM9.90234 9H9.29883C9.2168 9 9.14648 8.9707 9.08789 8.91211C9.0293 8.85352 9 8.7832 9 8.70117C9 8.61523 9.0293 8.54297 9.08789 8.48438C9.14648 8.42578 9.2168 8.39648 9.29883 8.39648H9.90234C9.98438 8.39648 10.0547 8.42578 10.1133 8.48438C10.1719 8.54297 10.2012 8.61523 10.2012 8.70117C10.2012 8.7832 10.1719 8.85352 10.1133 8.91211C10.0547 8.9707 9.98438 9 9.90234 9Z" fill="#A8D1E7"/>
</svg>
