<svg width="12" height="12" viewBox="0 0 12 12" fill="none" xmlns="http://www.w3.org/2000/svg">
<path d="M9.79102 9.86914C10.0527 9.59961 10.2832 9.3125 10.4824 9.00781C10.6816 8.69922 10.8496 8.37695 10.9863 8.04102C11.123 7.70508 11.2266 7.35742 11.2969 6.99805C11.3672 6.63867 11.4023 6.27344 11.4023 5.90234C11.4023 5.54688 11.3691 5.19727 11.3027 4.85352C11.2402 4.50977 11.1465 4.17773 11.0215 3.85742C10.9004 3.5332 10.748 3.22266 10.5645 2.92578C10.3809 2.62891 10.1719 2.34961 9.9375 2.08789L10.3477 1.67188L10.7402 2.06445C10.7676 2.0918 10.7988 2.11328 10.834 2.12891C10.873 2.14453 10.9121 2.15234 10.9512 2.15234C10.9902 2.15234 11.0273 2.14453 11.0625 2.12891C11.1016 2.11328 11.1348 2.0918 11.1621 2.06445C11.2207 2.00586 11.25 1.93555 11.25 1.85352C11.25 1.76758 11.2207 1.69531 11.1621 1.63672L9.96094 0.435547C9.90234 0.376953 9.83203 0.347656 9.75 0.347656C9.66797 0.347656 9.59766 0.376953 9.53906 0.435547C9.48047 0.494141 9.45117 0.566406 9.45117 0.652344C9.45117 0.734375 9.48047 0.804688 9.53906 0.863281L9.92578 1.25L9.51562 1.66016C9.25 1.42578 8.96875 1.21875 8.67188 1.03906C8.37891 0.855469 8.07031 0.701172 7.74609 0.576172C7.42578 0.451172 7.09375 0.357422 6.75 0.294922C6.40625 0.232422 6.05664 0.201172 5.70117 0.201172C5.3457 0.201172 4.99609 0.232422 4.65234 0.294922C4.30859 0.357422 3.97461 0.451172 3.65039 0.576172C3.33008 0.701172 3.02148 0.855469 2.72461 1.03906C2.42773 1.21875 2.14844 1.42578 1.88672 1.66016L1.47656 1.25L1.86328 0.863281C1.92188 0.804688 1.95117 0.734375 1.95117 0.652344C1.95117 0.566406 1.92188 0.494141 1.86328 0.435547C1.80469 0.376953 1.73242 0.347656 1.64648 0.347656C1.56445 0.347656 1.49414 0.376953 1.43555 0.435547L0.240234 1.63672C0.181641 1.69531 0.152344 1.76758 0.152344 1.85352C0.152344 1.93555 0.181641 2.00586 0.240234 2.06445C0.267578 2.0918 0.298828 2.11328 0.333984 2.12891C0.373047 2.14453 0.412109 2.15234 0.451172 2.15234C0.490234 2.15234 0.527344 2.14453 0.5625 2.12891C0.601562 2.11328 0.634766 2.0918 0.662109 2.06445L1.04883 1.67188L1.46484 2.08789C1.22656 2.34961 1.01562 2.62891 0.832031 2.92578C0.652344 3.22266 0.5 3.5332 0.375 3.85742C0.253906 4.17773 0.160156 4.50977 0.09375 4.85352C0.03125 5.19727 0 5.54688 0 5.90234C0 6.27344 0.0351562 6.63867 0.105469 6.99805C0.175781 7.35742 0.279297 7.70508 0.416016 8.04102C0.552734 8.37695 0.720703 8.69922 0.919922 9.00781C1.11914 9.3125 1.34766 9.59961 1.60547 9.86914L0.386719 11.0879C0.328125 11.1465 0.298828 11.2168 0.298828 11.2988C0.298828 11.3809 0.328125 11.4512 0.386719 11.5098C0.417969 11.541 0.451172 11.5625 0.486328 11.5742C0.525391 11.5898 0.5625 11.5977 0.597656 11.5977C0.636719 11.5977 0.673828 11.5898 0.708984 11.5742C0.748047 11.5625 0.783203 11.541 0.814453 11.5098L2.04492 10.2793C2.30273 10.4902 2.57422 10.6797 2.85938 10.8477C3.14453 11.0117 3.44141 11.1484 3.75 11.2578C4.05859 11.3711 4.375 11.4551 4.69922 11.5098C5.02734 11.5684 5.36133 11.5977 5.70117 11.5977C6.03711 11.5977 6.36914 11.5684 6.69727 11.5098C7.02539 11.4551 7.3418 11.3711 7.64648 11.2578C7.95508 11.1484 8.25195 11.0117 8.53711 10.8477C8.82617 10.6797 9.09766 10.4902 9.35156 10.2793L10.5879 11.5098C10.6152 11.541 10.6465 11.5625 10.6816 11.5742C10.7207 11.5898 10.7598 11.5977 10.7988 11.5977C10.8379 11.5977 10.875 11.5898 10.9102 11.5742C10.9492 11.5625 10.9824 11.541 11.0098 11.5098C11.0684 11.4512 11.0977 11.3809 11.0977 11.2988C11.0977 11.2168 11.0684 11.1465 11.0098 11.0879L9.79102 9.86914ZM0.597656 5.90234C0.597656 5.19922 0.730469 4.53906 0.996094 3.92188C1.26562 3.30078 1.63086 2.75977 2.0918 2.29883C2.55664 1.83398 3.09766 1.46875 3.71484 1.20312C4.33594 0.933594 4.99805 0.798828 5.70117 0.798828C6.4043 0.798828 7.06445 0.933594 7.68164 1.20312C8.30273 1.46875 8.84375 1.83398 9.30469 2.29883C9.76562 2.75977 10.1289 3.30078 10.3945 3.92188C10.6641 4.53906 10.7988 5.19922 10.7988 5.90234C10.7988 6.60547 10.6641 7.26758 10.3945 7.88867C10.1289 8.50586 9.76562 9.04492 9.30469 9.50586C8.84375 9.9668 8.30273 10.332 7.68164 10.6016C7.06445 10.8672 6.4043 11 5.70117 11C4.99805 11 4.33594 10.8672 3.71484 10.6016C3.09766 10.332 2.55664 9.9668 2.0918 9.50586C1.63086 9.04492 1.26562 8.50586 0.996094 7.88867C0.730469 7.26758 0.597656 6.60547 0.597656 5.90234ZM9.07617 3.95117C9.03711 3.87695 8.97656 3.83008 8.89453 3.81055C8.81641 3.78711 8.74023 3.79688 8.66602 3.83984L5.71289 5.54492L3.41602 3.93359C3.3457 3.88672 3.26953 3.87109 3.1875 3.88672C3.10938 3.89844 3.04492 3.93945 2.99414 4.00977C2.94727 4.07617 2.93164 4.15039 2.94727 4.23242C2.96289 4.31445 3.00391 4.37891 3.07031 4.42578L5.52539 6.14844C5.5293 6.14844 5.53125 6.14844 5.53125 6.14844C5.53125 6.14844 5.5332 6.15039 5.53711 6.1543C5.54102 6.1543 5.54297 6.1543 5.54297 6.1543C5.54688 6.1582 5.54883 6.16016 5.54883 6.16016C5.55273 6.16016 5.55469 6.16211 5.55469 6.16602C5.55859 6.16602 5.5625 6.16602 5.56641 6.16602C5.56641 6.16602 5.56641 6.16797 5.56641 6.17188C5.57031 6.17188 5.57422 6.17383 5.57812 6.17773C5.58203 6.17773 5.58594 6.17773 5.58984 6.17773C5.58984 6.17773 5.58984 6.17969 5.58984 6.18359C5.59375 6.18359 5.59766 6.18359 5.60156 6.18359C5.60547 6.18359 5.60742 6.18359 5.60742 6.18359C5.60742 6.18359 5.60938 6.18555 5.61328 6.18945C5.61719 6.18945 5.61914 6.18945 5.61914 6.18945C5.62305 6.18945 5.625 6.18945 5.625 6.18945C5.62891 6.18945 5.63086 6.19141 5.63086 6.19531C5.63477 6.19531 5.63672 6.19531 5.63672 6.19531C5.64062 6.19531 5.64258 6.19531 5.64258 6.19531C5.64258 6.19531 5.64453 6.19531 5.64844 6.19531C5.65234 6.19531 5.65625 6.19531 5.66016 6.19531C5.66406 6.19531 5.66602 6.19727 5.66602 6.20117C5.66992 6.20117 5.67188 6.20117 5.67188 6.20117C5.67578 6.20117 5.67773 6.20117 5.67773 6.20117C5.68164 6.20117 5.68359 6.20117 5.68359 6.20117C5.6875 6.20117 5.69141 6.20117 5.69531 6.20117C5.69922 6.20117 5.70117 6.20117 5.70117 6.20117C5.70508 6.20117 5.70898 6.20117 5.71289 6.20117C5.7207 6.20117 5.72852 6.19922 5.73633 6.19531C5.74023 6.19531 5.74414 6.19531 5.74805 6.19531C5.75586 6.19531 5.76172 6.19336 5.76562 6.18945C5.76953 6.18945 5.77148 6.18945 5.77148 6.18945C5.77539 6.18945 5.7793 6.18945 5.7832 6.18945C5.79102 6.18555 5.79688 6.18359 5.80078 6.18359C5.80469 6.18359 5.80664 6.18164 5.80664 6.17773C5.81055 6.17773 5.81445 6.17773 5.81836 6.17773C5.82617 6.17383 5.83203 6.16992 5.83594 6.16602C5.83984 6.16602 5.8418 6.16602 5.8418 6.16602C5.8457 6.16211 5.84766 6.16016 5.84766 6.16016L8.96484 4.36133C9.03906 4.31836 9.08594 4.25781 9.10547 4.17969C9.12891 4.09766 9.11914 4.02148 9.07617 3.95117Z" fill="#A8D1E7"/>
</svg>
