<svg width="43" height="49" viewBox="0 0 43 49" fill="none" xmlns="http://www.w3.org/2000/svg">
<path d="M32.2832 48.9997H11.2468V46.6407C14.3128 44.5032 21.2173 38.6997 18.5321 33.2213C17.0325 30.162 13.2964 26.2055 9.4834 24.7527C3.59865 22.5283 -0.478154 10.3759 1.27747 4.48556C1.7161 3.0127 2.68688 2.51841 4.01278 2.34808C5.83632 2.09091 8.98688 2.51841 8.98688 2.51841L9.41104 2.03525H33.9275L34.2682 2.77557C34.2682 2.77557 38.1635 2.17663 39.7388 2.34808C41.4799 2.51841 42.3082 3.63057 42.5576 5.42627C43.8835 13.8916 39.7388 21.503 32.1964 25.6923C29.1293 27.4034 26.4764 30.1398 24.8187 33.3894C22.5799 38.2633 25.6526 42.3657 32.2832 46.6407V48.9997ZM3.01752 9.27374C3.51515 13.6355 4.42803 17.9962 7.90812 21.3316C8.48925 21.9305 9.23514 22.5283 10.0634 22.1866C11.0587 21.6734 10.561 20.7326 10.3952 19.9634C9.64928 16.372 9.31863 12.6948 9.31863 9.01769C9.31863 6.79448 9.81515 4.14267 6.33395 4.31412C3.1834 4.31412 3.1834 6.70876 3.01752 9.27374ZM33.0246 22.2723C38.7446 20.4766 42.8882 9.78696 40.1529 5.512C39.2411 4.05806 37.9152 4.05806 36.5058 4.22839C35.1799 4.39984 34.5999 5.34055 34.5999 6.53732C34.5999 11.7541 34.5164 16.9698 33.0246 22.2723Z" fill="#FFC905"/>
<path d="M26.3159 3.85092H30.0453C30.0453 3.85092 32.5324 22.3201 23.4971 29.5029C23.4971 29.5029 28.9677 16.2505 26.3159 3.85092Z" fill="#F9DB6C"/>
<mask id="mask0_2_14974" style="mask-type:alpha" maskUnits="userSpaceOnUse" x="0" y="2" width="43" height="48">
<path d="M32.2832 49.0003H11.2468V46.6412C14.3128 44.5038 21.2173 38.7003 18.5321 33.2219C17.0325 30.1626 13.2964 26.206 9.4834 24.7532C3.59865 22.5289 -0.478154 10.3764 1.27747 4.48611C1.7161 3.01325 2.68688 2.51896 4.01278 2.34863C5.83632 2.09146 8.98688 2.51896 8.98688 2.51896L9.41104 2.0358H33.9275L34.2682 2.77612C34.2682 2.77612 38.1635 2.17718 39.7388 2.34863C41.4799 2.51896 42.3082 3.63112 42.5576 5.42682C43.8835 13.8921 39.7388 21.5036 32.1964 25.6928C29.1293 27.4039 26.4764 30.1403 24.8187 33.39C22.5799 38.2639 25.6526 42.3663 32.2832 46.6412V49.0003ZM3.01752 9.27429C3.51515 13.6361 4.42803 17.9968 7.90812 21.3321C8.48925 21.9311 9.23514 22.5289 10.0634 22.1871C11.0587 21.6739 10.561 20.7332 10.3952 19.9639C9.64928 16.3725 9.31863 12.6954 9.31863 9.01823C9.31863 6.79503 9.81515 4.14322 6.33395 4.31466C3.1834 4.31466 3.1834 6.70931 3.01752 9.27429ZM33.0246 22.2728C38.7446 20.4771 42.8882 9.78751 40.1529 5.51254C39.2411 4.05861 37.9152 4.05861 36.5058 4.22894C35.1799 4.40039 34.5999 5.3411 34.5999 6.53787C34.5999 11.7547 34.5164 16.9703 33.0246 22.2728Z" fill="#FFC905"/>
</mask>
<g mask="url(#mask0_2_14974)">
<g style="mix-blend-mode:overlay" opacity="0.6">
<path d="M9.29291 33.0632L7.52393 31.223L37.8205 -2.01596L39.5906 -0.175723L9.29291 33.0632Z" fill="white"/>
</g>
<g style="mix-blend-mode:overlay" opacity="0.6">
<path d="M14.9318 39.1559L10.6602 34.7117L40.9578 1.47388L45.2295 5.91806L14.9318 39.1559Z" fill="#FFFFA2"/>
</g>
</g>
<path d="M18.0677 3.51285L16.6648 4.40597C16.5132 4.52048 16.3977 4.67607 16.3318 4.85432L15.8829 6.45578C15.8341 6.58792 15.6584 6.61388 15.5735 6.50153L14.6762 5.09297C14.5644 4.94501 14.4125 4.83223 14.2385 4.76802L12.6306 4.31661C12.4984 4.2678 12.4724 4.09223 12.5849 4.00724L13.9245 3.16211C14.1175 3.01626 14.2646 2.81811 14.3484 2.59116L14.7697 1.0644C14.8185 0.932263 14.9942 0.906296 15.0792 1.01865L15.9973 2.45479C16.0955 2.58469 16.2288 2.6838 16.3817 2.74026L18.022 3.20347C18.1542 3.25229 18.1802 3.42786 18.0677 3.51285Z" fill="white"/>
</svg>
