<svg width="17" height="15" viewBox="0 0 17 15" xmlns="http://www.w3.org/2000/svg" fill="#73CAC8">
<path d="M6.07143 6.07776C6.07143 6.73856 5.53069 7.26907 4.85714 7.26907C4.18359 7.26907 3.64286 6.73856 3.64286 6.07776C3.64286 5.41696 4.18359 4.88646 4.85714 4.88646C5.53069 4.88646 6.07143 5.41696 6.07143 6.07776ZM9.71429 6.07776C9.71429 6.73856 9.17355 7.26907 8.5 7.26907C7.82645 7.26907 7.28572 6.73856 7.28572 6.07776C7.28572 5.41696 7.82645 4.88646 8.5 4.88646C9.17355 4.88646 9.71429 5.41696 9.71429 6.07776ZM13.3571 6.07776C13.3571 6.73856 12.8164 7.26907 12.1429 7.26907C11.4693 7.26907 10.9286 6.73856 10.9286 6.07776C10.9286 5.41696 11.4693 4.88646 12.1429 4.88646C12.8164 4.88646 13.3571 5.41696 13.3571 6.07776ZM17 6.07776C17 2.78307 13.1959 0.121246 8.5 0.121246C3.80413 0.121246 0 2.78307 0 6.07776C0 7.89264 1.15737 9.51207 2.96931 10.601C2.72266 12.5648 2.01116 13.0022 1.4135 13.5513C1.29967 13.6537 1.18583 13.7468 1.22377 13.8957C1.26172 14.0353 1.40402 14.1377 1.5558 14.1191C1.8404 14.0911 2.11551 14.0446 2.37165 13.9981C4.00335 13.6537 5.41685 12.9278 6.49833 11.8668C7.13393 11.9784 7.80748 12.0343 8.5 12.0343C13.1959 12.0343 17 9.37246 17 6.07776Z"/>
</svg>
