<svg width="29" height="27" viewBox="0 0 29 27" fill="none" xmlns="http://www.w3.org/2000/svg" fill="#54CC9C">
<path d="M8.88037 13.5C8.12204 12.37 7.69913 11.014 7.69913 9.64286C7.69913 9.31138 7.7283 8.97991 7.77205 8.64844C7.14497 8.87444 6.5033 8.99498 5.83248 8.99498C3.86374 8.99498 2.34708 7.71429 2.04083 7.71429C0.188761 7.71429 0.232511 11.8125 0.232511 13.0329C0.232511 14.7054 1.60334 15.4286 3.06166 15.4286H5.01581C5.99289 14.2232 7.36371 13.5452 8.88037 13.5ZM24.499 23.0977C24.499 19.6925 23.7261 14.4643 19.4532 14.4643C18.9574 14.4643 17.1491 16.5586 14.2324 16.5586C11.3158 16.5586 9.50745 14.4643 9.01162 14.4643C4.73873 14.4643 3.96582 19.6925 3.96582 23.0977C3.96582 25.5385 5.52623 27 7.85954 27H20.6053C22.9386 27 24.499 25.5385 24.499 23.0977ZM9.56578 3.85714C9.56578 1.7327 7.88871 0 5.83248 0C3.77624 0 2.09917 1.7327 2.09917 3.85714C2.09917 5.98159 3.77624 7.71429 5.83248 7.71429C7.88871 7.71429 9.56578 5.98159 9.56578 3.85714ZM19.8324 9.64286C19.8324 6.44866 17.3241 3.85714 14.2324 3.85714C11.1408 3.85714 8.63246 6.44866 8.63246 9.64286C8.63246 12.8371 11.1408 15.4286 14.2324 15.4286C17.3241 15.4286 19.8324 12.8371 19.8324 9.64286ZM28.2323 13.0329C28.2323 11.8125 28.2761 7.71429 26.424 7.71429C26.1178 7.71429 24.6011 8.99498 22.6324 8.99498C21.9615 8.99498 21.3199 8.87444 20.6928 8.64844C20.7365 8.97991 20.7657 9.31138 20.7657 9.64286C20.7657 11.014 20.3428 12.37 19.5845 13.5C21.1011 13.5452 22.472 14.2232 23.449 15.4286H25.4032C26.8615 15.4286 28.2323 14.7054 28.2323 13.0329ZM26.3657 3.85714C26.3657 1.7327 24.6886 0 22.6324 0C20.5761 0 18.8991 1.7327 18.8991 3.85714C18.8991 5.98159 20.5761 7.71429 22.6324 7.71429C24.6886 7.71429 26.3657 5.98159 26.3657 3.85714Z"/>
</svg>
