<svg width="16" height="16" viewBox="0 0 16 16" fill="none" xmlns="http://www.w3.org/2000/svg">
<path fill-rule="evenodd" clip-rule="evenodd" d="M12.9163 13.9991C10.7458 13.9546 9 12.1812 9 10C9 8.98347 9.37919 8.05551 10.0038 7.34984C9.89899 7.33892 9.79072 7.33333 9.67891 7.33333C8.85625 8.15625 7.73906 8.66667 6.5 8.66667C5.26094 8.66667 4.14375 8.15625 3.32109 7.33333C0.660156 7.33333 0 10.5 0 13.2396C0 14.7604 0.975 16 2.16328 16H10.8367C11.8193 16 12.656 15.1524 12.9163 13.9991ZM6.5 0C8.65312 0 10.4 1.79167 10.4 4C10.4 6.20833 8.65312 8 6.5 8C4.34687 8 2.6 6.20833 2.6 4C2.6 1.79167 4.34687 0 6.5 0Z" fill="url(#paint0_linear_704_18298)"/>
<path fill-rule="evenodd" clip-rule="evenodd" d="M13 13C14.6569 13 16 11.6569 16 10C16 8.34315 14.6569 7 13 7C11.3431 7 10 8.34315 10 10C10 11.6569 11.3431 13 13 13ZM14.3774 8.68854C14.5223 8.53235 14.7664 8.5232 14.9226 8.6681C15.0788 8.813 15.0879 9.05709 14.943 9.21328L12.8441 11.4758C12.7823 11.5424 12.7024 11.5823 12.6189 11.5949C12.5065 11.6121 12.3876 11.5797 12.2978 11.4964L11.1665 10.4469C11.0103 10.302 11.0012 10.0579 11.1461 9.90175C11.291 9.74556 11.5351 9.73641 11.6913 9.88131L12.5402 10.6689L14.3774 8.68854Z" fill="url(#paint1_linear_704_18298)"/>
<defs>
<linearGradient id="paint0_linear_704_18298" x1="6.45815" y1="0" x2="6.45815" y2="16" gradientUnits="userSpaceOnUse">
<stop stop-color="#B9F3F2"/>
<stop offset="1" stop-color="#73CAC8"/>
</linearGradient>
<linearGradient id="paint1_linear_704_18298" x1="13" y1="7" x2="13" y2="13" gradientUnits="userSpaceOnUse">
<stop stop-color="#B9F3F2"/>
<stop offset="1" stop-color="#73CAC8"/>
</linearGradient>
</defs>
</svg>
