<svg width="21" height="20" viewBox="0 0 21 20" fill="none" xmlns="http://www.w3.org/2000/svg">
<path d="M3.41636 8.67679C3.32868 8.84402 3.17759 8.97123 2.99527 9.03131C2.81295 9.0914 2.6138 9.07962 2.44024 8.99849C2.26668 8.91736 2.13243 8.77328 2.06606 8.59694C1.9997 8.4206 2.00647 8.22594 2.08493 8.0544C2.22718 7.75779 2.38638 7.46923 2.56179 7.19006C2.7404 6.91134 2.93439 6.6423 3.1429 6.38412L3.15315 6.37077C3.35829 6.11895 3.57679 5.87778 3.80775 5.64826C4.04357 5.41275 4.29234 5.18994 4.55294 4.98081C4.70456 4.86207 4.89795 4.80633 5.09132 4.82563C5.18718 4.83504 5.28018 4.86289 5.36495 4.90757C5.44973 4.95225 5.52461 5.01287 5.58527 5.08594C5.7069 5.23396 5.76399 5.42276 5.74422 5.61155C5.73457 5.70513 5.70605 5.79592 5.66029 5.87869C5.61453 5.96146 5.55243 6.03456 5.47759 6.09378C5.25755 6.26806 5.04757 6.45412 4.84862 6.6511C4.25897 7.24373 3.77488 7.92839 3.41636 8.67679ZM1.52092 15.9336L1.56364 15.9019C2.0029 15.6466 2.66775 15.7133 3.10188 15.418C3.13351 15.37 3.16041 15.3191 3.18221 15.2661C3.22323 15.176 3.25912 15.0776 3.28305 15.0108C3.18647 14.8948 3.09851 14.7721 3.01984 14.6438L2.75321 14.2299C2.66779 14.1191 2.61517 13.9875 2.6011 13.8495C2.59849 13.8025 2.60728 13.7557 2.62673 13.7127C2.64608 13.6704 2.67754 13.6345 2.71732 13.6092C2.73771 13.5963 2.75949 13.5857 2.78227 13.5775C2.76452 13.3298 2.76052 13.0814 2.7703 12.8333C2.78499 12.6828 2.83661 12.5379 2.92081 12.411C3.005 12.284 3.11929 12.1788 3.25399 12.1041C3.37039 12.031 3.49705 11.9748 3.63 11.9373C3.71546 11.9139 3.55822 11.6503 3.64538 11.6419C4.06925 11.5985 4.75462 11.9756 5.04859 12.2877C5.21037 12.4638 5.30301 12.6902 5.31009 12.9268L5.29471 13.5942C5.3292 13.6029 5.36054 13.6208 5.38528 13.6458C5.41001 13.6708 5.42717 13.7021 5.43486 13.736C5.44913 13.8591 5.42342 13.9834 5.36137 14.0914L5.05885 14.5803C4.95521 14.7609 4.83015 14.9289 4.68625 15.0809C4.69836 15.1005 4.71148 15.1194 4.72556 15.1377C4.78368 15.2268 4.85005 15.3106 4.92383 15.388C5.26566 15.6299 6.12023 15.6883 6.4518 15.8652H6.46377L6.50479 15.8969C7.02997 15.2891 7.30359 14.5116 7.27197 13.717C7.24035 12.9225 6.90577 12.1681 6.33387 11.6019L6.32191 11.6202C5.72454 11.0457 4.9237 10.7174 4.08525 10.7035C3.2468 10.6895 2.43497 10.991 1.81792 11.5453C1.20086 12.0997 0.825857 12.8646 0.770568 13.6815C0.715279 14.4984 0.983943 15.3048 1.52092 15.9336ZM4.01456 9.95328C4.5419 9.95255 5.06419 10.0536 5.55139 10.2506C6.03859 10.4476 6.48109 10.7367 6.85345 11.1013L6.87567 11.1246C7.61888 11.8617 8.03358 12.8556 8.02942 13.8898C8.02526 14.9241 7.60257 15.9148 6.85345 16.6461L6.82952 16.6678C6.35976 17.1187 5.78356 17.4498 5.15174 17.632C4.51992 17.8141 3.8519 17.8417 3.2066 17.7122C2.5613 17.5827 1.95855 17.3002 1.45151 16.8896C0.944468 16.4789 0.548724 15.9528 0.299179 15.3576C0.0496339 14.7623 -0.0460423 14.1163 0.0205889 13.4764C0.0872201 12.8366 0.314111 12.2225 0.68125 11.6885C1.04839 11.1545 1.54449 10.7168 2.1258 10.4142C2.70712 10.1116 3.35577 9.95332 4.01456 9.95328ZM14.6215 16.037C14.948 15.7567 15.647 15.6866 16.076 15.4397C16.452 15.2194 16.3871 14.9975 16.3854 14.6337H15.7889C14.2404 14.6337 15.2607 14.7522 15.471 13.1103C15.7854 10.7909 18.1783 10.7893 18.532 13.1103C18.7577 14.6905 19.7284 14.6337 18.2124 14.6337H17.6023C17.6023 15.0359 17.5356 15.2411 17.9629 15.468C18.2808 15.6349 19.0038 15.7434 19.3507 16.0237C19.9321 15.4242 20.2528 14.6281 20.2455 13.8025C20.2382 12.977 19.9034 12.1864 19.3114 11.5969L19.2909 11.5802C18.6821 10.9869 17.8582 10.652 16.998 10.6483C16.1379 10.6445 15.3109 10.9722 14.6967 11.5602L14.6779 11.5802C14.0754 12.1695 13.7326 12.9654 13.7227 13.7981C13.7128 14.6307 14.0366 15.4342 14.6249 16.037H14.6215ZM16.9836 9.91323C17.5111 9.91256 18.0337 10.0136 18.5211 10.2106C19.0086 10.4076 19.4514 10.6967 19.8242 11.0612L19.8447 11.0846C20.5885 11.8212 21.0038 12.8151 21 13.8494C20.9961 14.8838 20.5735 15.8747 19.8242 16.606L19.8002 16.6277C19.0457 17.3541 18.0275 17.7596 16.9679 17.7555C15.9082 17.7514 14.8933 17.3382 14.1447 16.606L14.1225 16.5843C13.3783 15.8475 12.963 14.8531 12.9672 13.8183C12.9713 12.7835 13.3946 11.7924 14.1447 11.0612L14.1669 11.0395C14.9174 10.317 15.9295 9.91228 16.9836 9.91323ZM8.32503 5.98031L8.36775 5.94694C8.80871 5.69331 9.47186 5.76006 9.90599 5.46471C9.93626 5.41594 9.9631 5.3652 9.98632 5.31287C10.0256 5.22276 10.0632 5.12431 10.0854 5.05757C9.98944 4.94106 9.9015 4.81843 9.82224 4.69048L9.55561 4.27666C9.46864 4.16685 9.41425 4.03582 9.39837 3.89788C9.39597 3.85149 9.40475 3.8052 9.42401 3.76273C9.44399 3.72032 9.47602 3.68441 9.5163 3.65927C9.5363 3.64575 9.55817 3.63507 9.58125 3.62757C9.56263 3.37993 9.55864 3.13145 9.56928 2.88337C9.57508 2.82693 9.58595 2.77109 9.60176 2.71651C9.67659 2.48189 9.83719 2.28235 10.053 2.15585C10.17 2.08272 10.2972 2.02652 10.4307 1.98899C10.5144 1.96563 10.3589 1.70199 10.4461 1.69198C10.8682 1.65026 11.5536 2.0257 11.8493 2.3394C12.0093 2.51596 12.1017 2.74121 12.1108 2.97681L12.0937 3.64425C12.1282 3.65298 12.1595 3.67084 12.1843 3.69587C12.209 3.7209 12.2262 3.75213 12.2338 3.78609C12.2481 3.90915 12.2224 4.03348 12.1604 4.1415C12.1608 4.14427 12.1608 4.14708 12.1604 4.14984L11.8561 4.63875C11.7531 4.81967 11.628 4.98775 11.4835 5.13933L11.5228 5.19606C11.581 5.2847 11.6473 5.36792 11.7211 5.44469V5.45303C12.0629 5.69498 12.9175 5.75338 13.2491 5.93025H13.261L13.3021 5.96196C13.8265 5.35383 14.0996 4.57653 14.068 3.78216C14.0364 2.98779 13.7023 2.23352 13.1311 1.66695L13.1277 1.66862C12.5312 1.08996 11.7291 0.758188 10.8884 0.742379C10.0477 0.72657 9.23308 1.02794 8.61422 1.58375C7.99536 2.13955 7.61991 2.90697 7.56604 3.72624C7.51217 4.5455 7.78403 5.35349 8.32503 5.98198V5.98031ZM10.8187 3.94518e-06C11.346 -0.000727729 11.8683 0.10032 12.3555 0.297337C12.8427 0.494354 13.2852 0.783453 13.6576 1.14801L13.6798 1.17137C14.4238 1.90797 14.8391 2.90206 14.8349 3.93656C14.8308 4.97107 14.4075 5.96194 13.6576 6.69281L13.6353 6.7145C13.1656 7.16537 12.5895 7.49648 11.9578 7.67863C11.326 7.86079 10.6581 7.88838 10.0128 7.759C9.36759 7.62961 8.76487 7.3472 8.25782 6.93669C7.75077 6.52618 7.35497 6.00018 7.10532 5.40506C6.85568 4.80994 6.75985 4.16399 6.8263 3.52418C6.89275 2.88437 7.11943 2.27034 7.48636 1.73626C7.85328 1.20217 8.34917 0.764436 8.9303 0.461645C9.51144 0.158854 10.16 0.000313784 10.8187 3.94518e-06ZM15.7752 6.22226C15.6641 6.13046 15.5832 6.00864 15.5428 5.87212C15.5024 5.73559 15.5042 5.59045 15.5481 5.45494C15.5919 5.31942 15.6758 5.19958 15.7892 5.11047C15.9026 5.02136 16.0404 4.96697 16.1854 4.95412C16.3798 4.93869 16.5726 4.99864 16.7221 5.12098L16.9819 5.33957L17.2365 5.57651C17.4074 5.74337 17.5783 5.91023 17.7253 6.07709C17.8723 6.24395 18.021 6.42083 18.156 6.5977C18.2911 6.77457 18.4278 6.96813 18.5526 7.16169C18.6773 7.35525 18.7953 7.55215 18.8944 7.74904V7.76907C18.9571 7.89517 18.9807 8.03641 18.9622 8.17543C18.9438 8.31444 18.8842 8.44517 18.7907 8.55154C18.6972 8.6579 18.5738 8.73527 18.4359 8.77412C18.2979 8.81298 18.1514 8.81163 18.0142 8.77023C17.8367 8.71252 17.6891 8.58992 17.6023 8.42817C17.5134 8.26131 17.4143 8.09445 17.31 7.9376C17.2057 7.78075 17.0929 7.61722 16.9784 7.46872C16.8639 7.32021 16.7306 7.16503 16.5973 7.00818C16.464 6.85133 16.3375 6.72785 16.2042 6.59937C16.0709 6.47089 15.9222 6.34073 15.7718 6.21559L15.7752 6.22226ZM12.9961 18.1879C13.0875 18.1578 13.1841 18.1457 13.2804 18.1523C13.3766 18.1589 13.4705 18.184 13.5567 18.2263H13.5704C13.7395 18.3123 13.8681 18.4587 13.9293 18.6351C13.9894 18.8154 13.9741 19.0117 13.8867 19.181C13.7993 19.3504 13.6469 19.4792 13.4627 19.5395C13.2286 19.6162 12.9927 19.683 12.7534 19.7414C12.5141 19.7998 12.2817 19.8448 12.0373 19.8832C11.7929 19.9216 11.5485 19.9516 11.3075 19.97C11.0665 19.9883 10.8135 20 10.5691 20C10.3247 20 10.0701 19.99 9.82053 19.97C9.57099 19.9499 9.32488 19.9199 9.07534 19.8799C8.82581 19.8398 8.57627 19.7881 8.3387 19.7297C8.10113 19.6713 7.85501 19.5995 7.62257 19.5228C7.53068 19.4918 7.44595 19.4434 7.37322 19.3804C7.30049 19.3174 7.24119 19.2411 7.1987 19.1557C7.15561 19.0708 7.13025 18.9784 7.12408 18.8839C7.11792 18.7893 7.13109 18.6946 7.16281 18.605C7.22671 18.4243 7.36127 18.2755 7.53711 18.1912C7.62404 18.1492 7.71868 18.1244 7.81551 18.1184C7.91234 18.1124 8.00943 18.1252 8.10113 18.1562C8.29426 18.2196 8.49423 18.278 8.69762 18.323C8.89588 18.3714 9.09585 18.4131 9.29411 18.4449C9.49237 18.4766 9.69918 18.5016 9.91111 18.5183C10.123 18.535 10.3264 18.5433 10.5435 18.5433C10.7606 18.5433 10.9639 18.535 11.1656 18.5183C11.3673 18.5016 11.5792 18.4782 11.7741 18.4465H11.786C11.9843 18.4148 12.1843 18.3748 12.3825 18.3264C12.5808 18.278 12.7791 18.2229 12.9705 18.1595L12.9961 18.1879Z" fill="url(#paint0_linear_865_16604)"/>
<defs>
<linearGradient id="paint0_linear_865_16604" x1="-51.1874" y1="-28.7501" x2="30.1372" y2="29.9561" gradientUnits="userSpaceOnUse">
<stop stop-color="#63F3F0"/>
<stop offset="0.0677083" stop-color="#66FFFB"/>
<stop offset="0.333333" stop-color="#26B3FF"/>
<stop offset="0.829429" stop-color="#75CBC9"/>
<stop offset="0.89098" stop-color="#BCF5F3"/>
</linearGradient>
</defs>
</svg>
