<svg width="17" height="16" viewBox="0 0 17 16" fill="none" xmlns="http://www.w3.org/2000/svg">
<path fill-rule="evenodd" clip-rule="evenodd" d="M13.525 13.9991C11.3419 13.9546 9.58589 12.1812 9.58589 10C9.58589 8.98347 9.96728 8.0555 10.5956 7.34983C10.4901 7.33892 10.3812 7.33333 10.2688 7.33333C9.44136 8.15625 8.31768 8.66667 7.07143 8.66667C5.82517 8.66667 4.7015 8.15625 3.87407 7.33333C1.19768 7.33333 0.533691 10.5 0.533691 13.2396C0.533691 14.7604 1.51435 16 2.70953 16H11.4333C12.4216 16 13.2632 15.1524 13.525 13.9991ZM7.07143 0C9.23705 0 10.9941 1.79167 10.9941 4C10.9941 6.20833 9.23705 8 7.07143 8C4.9058 8 3.14879 6.20833 3.14879 4C3.14879 1.79167 4.9058 0 7.07143 0Z" fill="white"/>
<path fill-rule="evenodd" clip-rule="evenodd" d="M13.6097 13C15.2762 13 16.6271 11.6569 16.6271 10C16.6271 8.34315 15.2762 7 13.6097 7C11.9432 7 10.5923 8.34315 10.5923 10C10.5923 11.6569 11.9432 13 13.6097 13ZM14.9945 8.68868C15.1403 8.53242 15.3859 8.52321 15.543 8.66811C15.7001 8.81302 15.7092 9.05716 15.5634 9.21342L13.4525 11.4757C13.3992 11.5328 13.3326 11.5703 13.2618 11.5878C13.1389 11.6184 13.0033 11.5885 12.9035 11.4965L11.7654 10.4468C11.6084 10.3019 11.5992 10.0579 11.745 9.90171C11.8907 9.74551 12.1362 9.73631 12.2932 9.88115L13.147 10.6687L14.9945 8.68868Z" fill="white"/>
</svg>
