<svg width="64" height="50" viewBox="0 0 64 50" fill="none" xmlns="http://www.w3.org/2000/svg">
<path d="M63.9502 25.9951C65.2492 42.8916 40.8242 50.9448 28.367 49.2725C15.9097 47.6002 5.30743 41.6127 1.06754 25.9951C-5.61625 1.37535 20.7056 -7.24855 34.9768 6.79626C49.6208 21.2079 63.0657 14.4904 63.9502 25.9951Z" fill="url(#paint0_linear_1534_27541)"/>
<path d="M54.602 46.9993H8.85689C7.36888 46.9993 6.16211 45.7529 6.16211 44.2156V10.2698C6.16211 8.73242 7.36888 7.48608 8.85689 7.48608H54.602C56.0903 7.48608 57.2968 8.73242 57.2968 10.2698V44.2156C57.2968 45.7529 56.0903 46.9993 54.602 46.9993Z" fill="white"/>
<path d="M57.2968 15.6212H6.16211V10.4501C6.16211 8.81314 7.36889 7.48608 8.8569 7.48608H54.602C56.0903 7.48608 57.2968 8.81314 57.2968 10.4501V15.6212Z" fill="#DCF3FF"/>
<path d="M49.1622 10.9726C49.1622 11.6144 48.642 12.1348 48 12.1348C47.3583 12.1348 46.8379 11.6144 46.8379 10.9726C46.8379 10.3309 47.3583 9.81049 48 9.81049C48.642 9.81049 49.1622 10.3309 49.1622 10.9726Z" fill="white"/>
<path d="M42.1886 10.9726C42.1886 11.6144 41.6684 12.1348 41.0264 12.1348C40.3846 12.1348 39.8643 11.6144 39.8643 10.9726C39.8643 10.3309 40.3846 9.81049 41.0264 9.81049C41.6684 9.81049 42.1886 10.3309 42.1886 10.9726Z" fill="white"/>
<path d="M36.378 10.9726C36.378 11.6144 35.8578 12.1348 35.2159 12.1348C34.5741 12.1348 34.0537 11.6144 34.0537 10.9726C34.0537 10.3309 34.5741 9.81049 35.2159 9.81049C35.8578 9.81049 36.378 10.3309 36.378 10.9726Z" fill="white"/>
<path d="M29.4054 10.9726C29.4054 11.6144 28.8852 12.1348 28.2432 12.1348C27.6014 12.1348 27.0811 11.6144 27.0811 10.9726C27.0811 10.3309 27.6014 9.81049 28.2432 9.81049C28.8852 9.81049 29.4054 10.3309 29.4054 10.9726Z" fill="white"/>
<path d="M22.4327 10.9726C22.4327 11.6144 21.9125 12.1348 21.2706 12.1348C20.6288 12.1348 20.1084 11.6144 20.1084 10.9726C20.1084 10.3309 20.6288 9.81049 21.2706 9.81049C21.9125 9.81049 22.4327 10.3309 22.4327 10.9726Z" fill="white"/>
<path d="M15.4591 10.9726C15.4591 11.6144 14.9389 12.1348 14.2969 12.1348C13.6551 12.1348 13.1348 11.6144 13.1348 10.9726C13.1348 10.3309 13.6551 9.81049 14.2969 9.81049C14.9389 9.81049 15.4591 10.3309 15.4591 10.9726Z" fill="white"/>
<path fill-rule="evenodd" clip-rule="evenodd" d="M8.1055 8.29636C6.82189 8.29636 5.78126 9.37563 5.78126 10.7069V31.4861C5.78126 31.7099 5.60637 31.8913 5.39063 31.8913C5.17489 31.8913 5 31.7099 5 31.4861V10.7069C5 8.92813 6.39041 7.48608 8.1055 7.48608H54.1914C55.9064 7.48608 57.2969 8.92813 57.2969 10.7069C57.2969 10.9307 57.122 11.112 56.9062 11.112C56.6905 11.112 56.5156 10.9307 56.5156 10.7069C56.5156 9.37563 55.475 8.29636 54.1914 8.29636H8.1055Z" fill="#7694DF"/>
<path fill-rule="evenodd" clip-rule="evenodd" d="M13.6338 7.33222C13.6265 7.3953 13.6193 7.45944 13.6124 7.52463C13.5726 7.89648 13.1741 8.17143 12.7222 8.13876C12.2703 8.10609 11.9362 7.77817 11.9759 7.40632C12.0671 6.55224 12.1936 5.81653 12.3512 5.28141C12.4284 5.01934 12.5237 4.7678 12.6487 4.56716C12.7105 4.46797 12.801 4.34577 12.9343 4.24011C13.0706 4.13201 13.3073 4 13.6337 4C14.1436 4 14.4255 4.30802 14.5236 4.43158C14.6491 4.58945 14.7389 4.77843 14.8078 4.95755C14.9491 5.32533 15.0647 5.8226 15.1579 6.39558C15.3457 7.55142 15.4591 9.12711 15.4591 10.8533C15.4591 11.0601 15.4576 11.2655 15.4543 11.4682C15.4483 11.8415 15.0757 12.14 14.622 12.135C14.1684 12.13 13.8056 11.8234 13.8117 11.4502C13.8149 11.2541 13.8163 11.0548 13.8163 10.8533C13.8163 9.53161 13.7479 8.31608 13.6338 7.33222ZM14.1205 5.16918C14.1205 5.16921 14.1199 5.16999 14.1188 5.17142C14.1199 5.16987 14.1205 5.16915 14.1205 5.16918Z" fill="#2A2A2A"/>
<path fill-rule="evenodd" clip-rule="evenodd" d="M20.6064 7.33222C20.5991 7.3953 20.592 7.45944 20.585 7.52463C20.5453 7.89648 20.1468 8.17143 19.6949 8.13876C19.243 8.10609 18.9088 7.77817 18.9485 7.40632C19.0397 6.55224 19.1662 5.81653 19.3239 5.28141C19.4011 5.01934 19.4963 4.7678 19.6213 4.56716C19.6831 4.46797 19.7736 4.34577 19.9069 4.24011C20.0433 4.13201 20.28 4 20.6064 4C21.1162 4 21.3981 4.30802 21.4963 4.43158C21.6217 4.58945 21.7116 4.77843 21.7804 4.95755C21.9217 5.32533 22.0374 5.8226 22.1305 6.39558C22.3184 7.55142 22.4318 9.12711 22.4318 10.8533C22.4318 11.0601 22.4303 11.2655 22.427 11.4682C22.4209 11.8415 22.0483 12.14 21.5947 12.135C21.1411 12.13 20.7783 11.8234 20.7843 11.4502C20.7875 11.2541 20.789 11.0548 20.789 10.8533C20.789 9.53161 20.7206 8.31608 20.6064 7.33222ZM21.0931 5.16918C21.0931 5.16921 21.0926 5.16999 21.0914 5.17142C21.0925 5.16987 21.0931 5.16915 21.0931 5.16918Z" fill="#2A2A2A"/>
<path fill-rule="evenodd" clip-rule="evenodd" d="M27.5801 7.33222C27.5727 7.3953 27.5656 7.45944 27.5586 7.52463C27.5189 7.89648 27.1204 8.17143 26.6685 8.13876C26.2166 8.10609 25.8824 7.77817 25.9221 7.40632C26.0133 6.55224 26.1399 5.81653 26.2975 5.28141C26.3747 5.01934 26.47 4.7678 26.595 4.56716C26.6568 4.46797 26.7473 4.34577 26.8806 4.24011C27.0169 4.13201 27.2536 4 27.58 4C28.0899 4 28.3718 4.30802 28.4699 4.43158C28.5953 4.58945 28.6852 4.77843 28.754 4.95755C28.8954 5.32533 29.011 5.8226 29.1041 6.39558C29.292 7.55142 29.4054 9.12711 29.4054 10.8533C29.4054 11.0601 29.4039 11.2655 29.4006 11.4682C29.3946 11.8415 29.0219 12.14 28.5683 12.135C28.1147 12.13 27.7519 11.8234 27.758 11.4502C27.7612 11.2541 27.7626 11.0548 27.7626 10.8533C27.7626 9.53161 27.6942 8.31608 27.5801 7.33222ZM28.0668 5.16918C28.0668 5.16921 28.0662 5.16999 28.0651 5.17142C28.0662 5.16987 28.0668 5.16915 28.0668 5.16918Z" fill="#2A2A2A"/>
<path fill-rule="evenodd" clip-rule="evenodd" d="M34.5527 7.33222C34.5454 7.3953 34.5383 7.45944 34.5313 7.52463C34.4916 7.89648 34.0931 8.17143 33.6412 8.13876C33.1893 8.10609 32.8551 7.77817 32.8948 7.40632C32.986 6.55224 33.1125 5.81653 33.2702 5.28141C33.3474 5.01934 33.4426 4.7678 33.5676 4.56716C33.6294 4.46797 33.7199 4.34577 33.8532 4.24011C33.9896 4.13201 34.2262 4 34.5527 4C35.0625 4 35.3444 4.30802 35.4426 4.43158C35.568 4.58945 35.6579 4.77843 35.7267 4.95755C35.868 5.32533 35.9837 5.8226 36.0768 6.39558C36.2646 7.55142 36.3781 9.12711 36.3781 10.8533C36.3781 11.0601 36.3766 11.2655 36.3733 11.4682C36.3672 11.8415 35.9946 12.14 35.541 12.135C35.0874 12.13 34.7246 11.8234 34.7306 11.4502C34.7338 11.2541 34.7353 11.0548 34.7353 10.8533C34.7353 9.53161 34.6669 8.31608 34.5527 7.33222ZM35.0394 5.16918C35.0394 5.16921 35.0389 5.16999 35.0377 5.17142C35.0388 5.16987 35.0394 5.16915 35.0394 5.16918Z" fill="#2A2A2A"/>
<path fill-rule="evenodd" clip-rule="evenodd" d="M40.3633 7.33222C40.3559 7.3953 40.3488 7.45944 40.3418 7.52463C40.3021 7.89648 39.9036 8.17143 39.4517 8.13876C38.9998 8.10609 38.6656 7.77817 38.7054 7.40632C38.7965 6.55224 38.9231 5.81653 39.0807 5.28141C39.1579 5.01934 39.2532 4.7678 39.3782 4.56716C39.44 4.46797 39.5305 4.34577 39.6638 4.24011C39.8001 4.13201 40.0368 4 40.3632 4C40.8731 4 41.155 4.30802 41.2531 4.43158C41.3785 4.58945 41.4684 4.77843 41.5372 4.95755C41.6786 5.32533 41.7942 5.8226 41.8873 6.39558C42.0752 7.55142 42.1886 9.12711 42.1886 10.8533C42.1886 11.0601 42.1871 11.2655 42.1838 11.4682C42.1778 11.8415 41.8051 12.14 41.3515 12.135C40.8979 12.13 40.5351 11.8234 40.5412 11.4502C40.5444 11.2541 40.5458 11.0548 40.5458 10.8533C40.5458 9.53161 40.4774 8.31608 40.3633 7.33222ZM40.85 5.16918C40.85 5.16921 40.8494 5.16999 40.8483 5.17142C40.8494 5.16987 40.85 5.16915 40.85 5.16918Z" fill="#2A2A2A"/>
<path fill-rule="evenodd" clip-rule="evenodd" d="M47.3359 7.33138C47.3285 7.39473 47.3214 7.45916 47.3144 7.52463C47.2747 7.89648 46.8762 8.17143 46.4243 8.13876C45.9724 8.10609 45.6383 7.77817 45.678 7.40632C45.7692 6.55224 45.8957 5.81653 46.0533 5.28141C46.1305 5.01934 46.2258 4.7678 46.3508 4.56716C46.4126 4.46797 46.5031 4.34577 46.6363 4.24011C46.7727 4.13201 47.0093 4 47.3357 4C47.8455 4 48.1274 4.308 48.2256 4.43155C48.351 4.58941 48.4409 4.77838 48.5097 4.9575C48.6511 5.32529 48.7667 5.82256 48.8599 6.39555C49.0478 7.55139 49.1613 9.12709 49.1613 10.8533C49.1613 11.0601 49.1598 11.2655 49.1565 11.4682C49.1504 11.8415 48.7778 12.14 48.3243 12.135C47.8707 12.13 47.5079 11.8234 47.514 11.4502C47.5172 11.2541 47.5186 11.0548 47.5186 10.8533C47.5186 9.53124 47.4501 8.31539 47.3359 7.33138ZM47.8224 5.16918C47.8225 5.16921 47.8219 5.16999 47.8207 5.17142C47.8219 5.16987 47.8224 5.16915 47.8224 5.16918Z" fill="black"/>
<path fill-rule="evenodd" clip-rule="evenodd" d="M5.38514 35.3778C5.59784 35.3778 5.77027 35.559 5.77027 35.7825V43.7818C5.77027 45.1117 6.79626 46.1899 8.06181 46.1899H18.5607C18.7734 46.1899 18.9458 46.3711 18.9458 46.5946C18.9458 46.8181 18.7734 46.9993 18.5607 46.9993H8.06181C6.37085 46.9993 5 45.5587 5 43.7818V35.7825C5 35.559 5.17243 35.3778 5.38514 35.3778Z" fill="#7694DF"/>
<path fill-rule="evenodd" clip-rule="evenodd" d="M23.5947 46.4182C23.5947 46.0973 23.7656 45.8371 23.9763 45.8371H25.5375C25.7482 45.8371 25.919 46.0973 25.919 46.4182C25.919 46.7391 25.7482 46.9992 25.5375 46.9992H23.9763C23.7656 46.9992 23.5947 46.7391 23.5947 46.4182Z" fill="#7694DF"/>
<path fill-rule="evenodd" clip-rule="evenodd" d="M56.9224 35.3778C57.1293 35.3778 57.2969 35.5525 57.2969 35.768V43.8971C57.2969 45.6104 55.9639 46.9993 54.3195 46.9993H29.7798C29.573 46.9993 29.4053 46.8246 29.4053 46.6091C29.4053 46.3936 29.573 46.2189 29.7798 46.2189H54.3195C55.5502 46.2189 56.5479 45.1794 56.5479 43.8971V35.768C56.5479 35.5525 56.7156 35.3778 56.9224 35.3778Z" fill="#7694DF"/>
<path fill-rule="evenodd" clip-rule="evenodd" d="M56.7158 31.8917C56.3949 31.8917 56.1347 32.0302 56.1347 32.201V33.9067C56.1347 34.0775 56.3949 34.216 56.7158 34.216C57.0367 34.216 57.2969 34.0775 57.2969 33.9067V32.201C57.2969 32.0302 57.0367 31.8917 56.7158 31.8917Z" fill="#7694DF"/>
<path fill-rule="evenodd" clip-rule="evenodd" d="M56.7158 15.6215C56.3949 15.6215 56.1347 15.8292 56.1347 16.0854V18.644C56.1347 18.9002 56.3949 19.1079 56.7158 19.1079C57.0367 19.1079 57.2969 18.9002 57.2969 18.644V16.0854C57.2969 15.8292 57.0367 15.6215 56.7158 15.6215Z" fill="#7694DF"/>
<path fill-rule="evenodd" clip-rule="evenodd" d="M56.7158 20.2698C56.3949 20.2698 56.1347 20.4551 56.1347 20.6838V29.153C56.1347 29.3816 56.3949 29.567 56.7158 29.567C57.0367 29.567 57.2969 29.3816 57.2969 29.153V20.6838C57.2969 20.4551 57.0367 20.2698 56.7158 20.2698Z" fill="#7694DF"/>
<path d="M33.6372 30.0001H27.3628C26.6101 30.0001 26 29.39 26 28.6372V22.3626C26 21.6101 26.6101 21.0001 27.3628 21.0001H33.6372C34.3897 21.0001 35 21.6101 35 22.3626V28.6372C35 29.39 34.3897 30.0001 33.6372 30.0001Z" fill="#CFDCE2"/>
<path d="M28 25.5001C28 25.7762 28.2239 26.0001 28.5 26.0001H32.5C32.7761 26.0001 33 25.7762 33 25.5001C33 25.2239 32.7761 25.0001 32.5 25.0001H28.5C28.2239 25.0001 28 25.2239 28 25.5001Z" fill="white"/>
<path d="M30.5 23.0001C30.2239 23.0001 30 23.2239 30 23.5001L30 27.5001C30 27.7762 30.2239 28.0001 30.5 28.0001C30.7761 28.0001 31 27.7762 31 27.5001L31 23.5001C31 23.2239 30.7761 23.0001 30.5 23.0001Z" fill="white"/>
<path d="M48.6372 30.0001H42.3628C41.6101 30.0001 41 29.39 41 28.6372V22.3626C41 21.6101 41.6101 21.0001 42.3628 21.0001H48.6372C49.3897 21.0001 50 21.6101 50 22.3626V28.6372C50 29.39 49.3897 30.0001 48.6372 30.0001Z" fill="#CFDCE2"/>
<path d="M43 25.5001C43 25.7762 43.2239 26.0001 43.5 26.0001H47.5C47.7761 26.0001 48 25.7762 48 25.5001C48 25.2239 47.7761 25.0001 47.5 25.0001H43.5C43.2239 25.0001 43 25.2239 43 25.5001Z" fill="white"/>
<path d="M45.5 23.0001C45.2239 23.0001 45 23.2239 45 23.5001L45 27.5001C45 27.7762 45.2239 28.0001 45.5 28.0001C45.7761 28.0001 46 27.7762 46 27.5001L46 23.5001C46 23.2239 45.7761 23.0001 45.5 23.0001Z" fill="white"/>
<path d="M18.6373 30.0001H12.363C11.6103 30.0001 11 29.39 11 28.6372V22.3626C11 21.6101 11.6103 21.0001 12.363 21.0001H18.6373C19.39 21.0001 20 21.6101 20 22.3626V28.6372C20 29.39 19.39 30.0001 18.6373 30.0001Z" fill="#A8D1E7"/>
<path d="M13 25.5001C13 25.7762 13.2239 26.0001 13.5 26.0001H17.5C17.7761 26.0001 18 25.7762 18 25.5001C18 25.2239 17.7761 25.0001 17.5 25.0001H13.5C13.2239 25.0001 13 25.2239 13 25.5001Z" fill="white"/>
<path d="M15.5 23.0001C15.2239 23.0001 15 23.2239 15 23.5001L15 27.5001C15 27.7762 15.2239 28.0001 15.5 28.0001C15.7761 28.0001 16 27.7762 16 27.5001L16 23.5001C16 23.2239 15.7761 23.0001 15.5 23.0001Z" fill="white"/>
<path d="M33.6372 42.0001H27.3628C26.6101 42.0001 26 41.39 26 40.6372V34.3626C26 33.6101 26.6101 33.0001 27.3628 33.0001H33.6372C34.3897 33.0001 35 33.6101 35 34.3626V40.6372C35 41.39 34.3897 42.0001 33.6372 42.0001Z" fill="#CFDCE2"/>
<path d="M28 37.5001C28 37.7762 28.2239 38.0001 28.5 38.0001H32.5C32.7761 38.0001 33 37.7762 33 37.5001C33 37.2239 32.7761 37.0001 32.5 37.0001H28.5C28.2239 37.0001 28 37.2239 28 37.5001Z" fill="white"/>
<path d="M30.5 35.0001C30.2239 35.0001 30 35.2239 30 35.5001L30 39.5001C30 39.7762 30.2239 40.0001 30.5 40.0001C30.7761 40.0001 31 39.7762 31 39.5001L31 35.5001C31 35.2239 30.7761 35.0001 30.5 35.0001Z" fill="white"/>
<path d="M48.6372 42.0001H42.3628C41.6101 42.0001 41 41.39 41 40.6372V34.3626C41 33.6101 41.6101 33.0001 42.3628 33.0001H48.6372C49.3897 33.0001 50 33.6101 50 34.3626V40.6372C50 41.39 49.3897 42.0001 48.6372 42.0001Z" fill="#CFDCE2"/>
<path d="M43 37.5001C43 37.7762 43.2239 38.0001 43.5 38.0001H47.5C47.7761 38.0001 48 37.7762 48 37.5001C48 37.2239 47.7761 37.0001 47.5 37.0001H43.5C43.2239 37.0001 43 37.2239 43 37.5001Z" fill="white"/>
<path d="M45.5 35.0001C45.2239 35.0001 45 35.2239 45 35.5001L45 39.5001C45 39.7762 45.2239 40.0001 45.5 40.0001C45.7761 40.0001 46 39.7762 46 39.5001L46 35.5001C46 35.2239 45.7761 35.0001 45.5 35.0001Z" fill="white"/>
<path d="M18.6373 42.0001H12.363C11.6103 42.0001 11 41.39 11 40.6372V34.3626C11 33.6101 11.6103 33.0001 12.363 33.0001H18.6373C19.39 33.0001 20 33.6101 20 34.3626V40.6372C20 41.39 19.39 42.0001 18.6373 42.0001Z" fill="#CFDCE2"/>
<path d="M13 37.5001C13 37.7762 13.2239 38.0001 13.5 38.0001H17.5C17.7761 38.0001 18 37.7762 18 37.5001C18 37.2239 17.7761 37.0001 17.5 37.0001H13.5C13.2239 37.0001 13 37.2239 13 37.5001Z" fill="white"/>
<path d="M15.5 35.0001C15.2239 35.0001 15 35.2239 15 35.5001L15 39.5001C15 39.7762 15.2239 40.0001 15.5 40.0001C15.7761 40.0001 16 39.7762 16 39.5001L16 35.5001C16 35.2239 15.7761 35.0001 15.5 35.0001Z" fill="white"/>
<defs>
<linearGradient id="paint0_linear_1534_27541" x1="37.8513" y1="2.8763" x2="24.9065" y2="55.4245" gradientUnits="userSpaceOnUse">
<stop stop-color="#B9F3F2" stop-opacity="0"/>
<stop offset="1" stop-color="#73CAC8"/>
</linearGradient>
</defs>
</svg>
