<svg width="18" height="18" viewBox="0 0 18 18" fill="none" xmlns="http://www.w3.org/2000/svg">
<path d="M3.375 6.75V15.1875C3.375 16.1179 4.13212 16.875 5.0625 16.875H12.9375C13.8679 16.875 14.625 16.1179 14.625 15.1875V6.75H3.375ZM6.75 14.0625C6.75 14.373 6.498 14.625 6.1875 14.625C5.877 14.625 5.625 14.373 5.625 14.0625V9C5.625 8.6895 5.877 8.4375 6.1875 8.4375C6.498 8.4375 6.75 8.6895 6.75 9V14.0625ZM9.5625 14.0625C9.5625 14.373 9.3105 14.625 9 14.625C8.6895 14.625 8.4375 14.373 8.4375 14.0625V9C8.4375 8.6895 8.6895 8.4375 9 8.4375C9.3105 8.4375 9.5625 8.6895 9.5625 9V14.0625ZM12.375 14.0625C12.375 14.373 12.123 14.625 11.8125 14.625C11.502 14.625 11.25 14.373 11.25 14.0625V9C11.25 8.6895 11.502 8.4375 11.8125 8.4375C12.123 8.4375 12.375 8.6895 12.375 9V14.0625Z" fill="url(#paint0_linear_455_12242)"/>
<path d="M15.1875 3.375H11.8125V2.8125C11.8125 1.88212 11.0554 1.125 10.125 1.125H7.875C6.94462 1.125 6.1875 1.88212 6.1875 2.8125V3.375H2.8125C2.19206 3.375 1.6875 3.87956 1.6875 4.5V5.0625C1.6875 5.373 1.9395 5.625 2.25 5.625H15.75C16.0605 5.625 16.3125 5.373 16.3125 5.0625V4.5C16.3125 3.87956 15.8079 3.375 15.1875 3.375ZM7.3125 2.8125C7.3125 2.50256 7.56506 2.25 7.875 2.25H10.125C10.4349 2.25 10.6875 2.50256 10.6875 2.8125V3.375H7.3125V2.8125Z" fill="url(#paint1_linear_455_12242)"/>
<defs>
<linearGradient id="paint0_linear_455_12242" x1="-24.0468" y1="-7.80473" x2="17.8025" y2="24.1635" gradientUnits="userSpaceOnUse">
<stop stop-color="#63F3F0"/>
<stop offset="0.0677083" stop-color="#66FFFB"/>
<stop offset="0.333333" stop-color="#26B3FF"/>
<stop offset="0.829429" stop-color="#75CBC9"/>
<stop offset="0.89098" stop-color="#BCF5F3"/>
</linearGradient>
<linearGradient id="paint1_linear_455_12242" x1="-33.9609" y1="-5.34377" x2="-19.5844" y2="26.7788" gradientUnits="userSpaceOnUse">
<stop stop-color="#63F3F0"/>
<stop offset="0.0677083" stop-color="#66FFFB"/>
<stop offset="0.333333" stop-color="#26B3FF"/>
<stop offset="0.829429" stop-color="#75CBC9"/>
<stop offset="0.89098" stop-color="#BCF5F3"/>
</linearGradient>
</defs>
</svg>
