<svg width="16" height="17" viewBox="0 0 16 17" fill="none" xmlns="http://www.w3.org/2000/svg">
<path d="M5.81818 13.8125C5.81818 14.0117 5.65909 14.1667 5.45455 14.1667H4.72727C4.52273 14.1667 4.36364 14.0117 4.36364 13.8125V6.02083C4.36364 5.82161 4.52273 5.66667 4.72727 5.66667H5.45455C5.65909 5.66667 5.81818 5.82161 5.81818 6.02083V13.8125ZM8.72727 13.8125C8.72727 14.0117 8.56818 14.1667 8.36364 14.1667H7.63636C7.43182 14.1667 7.27273 14.0117 7.27273 13.8125V6.02083C7.27273 5.82161 7.43182 5.66667 7.63636 5.66667H8.36364C8.56818 5.66667 8.72727 5.82161 8.72727 6.02083V13.8125ZM11.6364 13.8125C11.6364 14.0117 11.4773 14.1667 11.2727 14.1667H10.5455C10.3409 14.1667 10.1818 14.0117 10.1818 13.8125V6.02083C10.1818 5.82161 10.3409 5.66667 10.5455 5.66667H11.2727C11.4773 5.66667 11.6364 5.82161 11.6364 6.02083V13.8125ZM5.45455 2.83333L6.01136 1.53841C6.04545 1.49414 6.13636 1.42773 6.20455 1.41667H9.80682C9.86364 1.42773 9.96591 1.49414 10 1.53841L10.5455 2.83333H5.45455ZM16 3.1875C16 2.98828 15.8409 2.83333 15.6364 2.83333H12.125L11.3295 0.985027C11.1023 0.442709 10.4205 0 9.81818 0H6.18182C5.57955 0 4.89773 0.442709 4.67045 0.985027L3.875 2.83333H0.363636C0.159091 2.83333 0 2.98828 0 3.1875V3.89583C0 4.09505 0.159091 4.25 0.363636 4.25H1.45455V14.7865C1.45455 16.0039 2.27273 17 3.27273 17H12.7273C13.7273 17 14.5455 15.9596 14.5455 14.7422V4.25H15.6364C15.8409 4.25 16 4.09505 16 3.89583V3.1875Z" fill="#A8D1E7"/>
</svg>
