<svg width="41" height="27" viewBox="0 0 41 27" xmlns="http://www.w3.org/2000/svg" fill="#FFD924">
<path d="M27.6835 20.2423L26.9439 20.6339L26.2726 19.3659L25.0047 20.0371L24.6131 19.2975L25.3342 16.9543L28.4046 17.8991L27.6835 20.2423ZM28.4608 7.65602C28.6426 7.71197 28.7343 7.91708 28.6784 8.09888L26.5027 15.1689C26.4468 15.3507 26.2557 15.4688 26.0739 15.4129C25.8921 15.3569 25.8004 15.1518 25.8563 14.97L28.032 7.89997C28.0879 7.71817 28.279 7.60008 28.4608 7.65602ZM27.2427 5.86593L23.0654 19.4404L25.0791 23.2443L28.8831 21.2306L33.0603 7.65616L27.2427 5.86593ZM34.03 4.50495C34.26 3.75754 33.8265 2.93864 33.0791 2.70865L30.0087 1.7638C29.2613 1.53381 28.4424 1.96731 28.2124 2.71471L27.6405 4.57312L33.4581 6.36336L34.03 4.50495Z"/>
<path d="M24.2826 24.3307C24.3591 24.0708 24.5286 23.3459 23.7226 23.0131C22.9848 22.7672 22.5083 23.3996 22.4029 23.7334C22.2097 24.3658 21.4543 24.7348 20.8043 24.7348H4.58968C3.62348 24.7348 2.41133 24.524 2.05999 23.505C1.91945 23.1186 1.93701 22.9605 2.07755 22.7497C2.23566 22.5388 2.51674 22.4861 2.74511 22.4861H18.0111C20.2421 22.4861 20.6989 21.8889 21.5246 19.1835L26.338 3.26752C26.5839 2.44186 26.4785 1.61619 26.0218 0.983769C25.5826 0.368913 24.8448 0 24.0191 0H10.6504C10.3518 0 10.0531 0.0878376 9.75446 0.158106L9.77203 0.105404C7.54098 -0.527018 7.40045 1.8797 6.66262 2.96887C6.38154 3.37292 5.95993 3.72427 5.88966 4.05805C5.83696 4.37426 6.01263 4.6729 5.97749 4.97155C5.87209 5.90261 5.1694 7.57151 4.74778 8.15123C4.48427 8.50257 4.09779 8.67825 3.97482 9.08229C3.86942 9.36337 4.04509 9.76742 4.00996 10.1363C3.92212 10.962 3.30726 12.5255 2.83295 13.3336C2.65727 13.6498 2.3235 13.8957 2.23566 14.2295C2.14782 14.5282 2.3235 14.9146 2.23566 15.2484C2.04242 16.1619 1.44513 17.5849 0.918111 18.4632C0.637034 18.9376 0.268121 19.2362 0.197852 19.6578C0.162717 19.8686 0.320823 20.097 0.303256 20.3781C0.285688 20.7997 0.215419 21.151 0.180285 21.5024C-0.0656576 22.1699 -0.0656576 22.9429 0.215419 23.7334C0.865409 25.5604 2.78025 26.9834 4.57211 26.9834H20.7867C22.2975 26.9834 23.8434 25.8239 24.2826 24.3307ZM10.1058 6.18369L10.4747 5.05938C10.5801 4.74317 10.9139 4.49723 11.2125 4.49723H21.8935C22.2097 4.49723 22.3854 4.74317 22.2799 5.05938L21.911 6.18369C21.8056 6.4999 21.4719 6.74584 21.1732 6.74584H10.4923C10.1761 6.74584 10.0004 6.4999 10.1058 6.18369ZM8.64772 10.6809L9.01664 9.55661C9.12204 9.2404 9.45582 8.99446 9.75446 8.99446H20.4354C20.7516 8.99446 20.9273 9.2404 20.8219 9.55661L20.4529 10.6809C20.3475 10.9971 20.0138 11.2431 19.7151 11.2431H9.0342C8.71799 11.2431 8.54232 10.9971 8.64772 10.6809Z"/>
</svg>
