<svg width="19" height="19" viewBox="0 0 19 19" fill="none" xmlns="http://www.w3.org/2000/svg">
<path d="M8.48901 17.3553C8.80483 17.3553 9.06076 17.606 9.06076 17.9153C9.06076 18.2246 8.80483 18.4753 8.48901 18.4753H1.33044C0.963794 18.4753 0.631639 18.3295 0.390237 18.0931C0.148835 17.8566 0 17.5313 0 17.1723V1.30301C0 0.943924 0.148835 0.618617 0.390237 0.382192C0.631639 0.145766 0.963794 0 1.33044 0H17.6696C18.0362 0 18.3684 0.147544 18.6098 0.382192C18.8512 0.618617 19 0.943924 19 1.30301V10.2161C19 10.5254 18.7441 10.776 18.4283 10.776C18.1124 10.776 17.8565 10.5254 17.8565 10.2161V1.30301C17.8565 1.25323 17.8347 1.20701 17.8002 1.17502C17.7658 1.14124 17.7186 1.11991 17.6696 1.11991H1.33044C1.27961 1.11991 1.23242 1.14124 1.19794 1.17324C1.16527 1.20879 1.14348 1.25323 1.14348 1.30301V17.1705C1.14348 17.2202 1.16527 17.2665 1.19975 17.2985C1.23424 17.3322 1.28143 17.3536 1.33225 17.3536H8.48901V17.3553ZM17.0548 11.1097C16.9622 11.0226 16.8551 10.9817 16.7317 10.9835C16.6083 10.9853 16.503 11.0333 16.4159 11.1222L15.7062 11.8457L17.6973 13.7282L18.4143 12.9976C18.4996 12.9123 18.5359 12.802 18.5341 12.6812C18.5322 12.5621 18.4887 12.4536 18.4016 12.3719L17.0548 11.1097ZM13.3357 18.1616C13.0726 18.2434 12.8112 18.3287 12.5498 18.4123C12.2866 18.4976 12.0253 18.5847 11.7639 18.67C11.145 18.8691 10.7983 18.9793 10.7257 18.9989C10.6549 19.0202 10.6967 18.7358 10.8527 18.1438L11.3446 16.2862L15.0746 12.4856L17.0639 14.361L13.3357 18.1616ZM5.73194 4.35524C5.41613 4.35524 5.1602 4.1046 5.1602 3.79529C5.1602 3.48598 5.41613 3.23533 5.73194 3.23533H13.2717C13.5875 3.23533 13.8434 3.48598 13.8434 3.79529C13.8434 4.1046 13.5875 4.35524 13.2717 4.35524H5.73194ZM5.73194 12.2995C5.41613 12.2995 5.15839 12.0453 5.15839 11.7324C5.15839 11.4196 5.41431 11.1654 5.73194 11.1654H9.44736C9.76318 11.1654 10.0209 11.4196 10.0209 11.7324C10.0209 12.0453 9.765 12.2995 9.44736 12.2995H5.73194ZM5.73194 8.3247C5.41613 8.3247 5.1602 8.07405 5.1602 7.76475C5.1602 7.45544 5.41613 7.20479 5.73194 7.20479H13.2717C13.5875 7.20479 13.8434 7.45544 13.8434 7.76475C13.8434 8.07405 13.5875 8.3247 13.2717 8.3247H5.73194Z" fill="#A8D1E7"/>
</svg>
