<svg width="25" height="24" viewBox="0 0 25 24" fill="none" xmlns="http://www.w3.org/2000/svg">
<path fill-rule="evenodd" clip-rule="evenodd" d="M10.5243 23.7209L20.1014 14.1438C19.369 12.2908 18.0695 10.8721 15.8232 10.8721C15.6754 10.8721 15.4132 11.055 15.0419 11.3141C14.1414 11.9425 12.5992 13.0187 10.4892 13.0187C8.37929 13.0187 6.83705 11.9425 5.93657 11.3141C5.56529 11.055 5.30311 10.8721 5.15522 10.8721C0.789672 10.8721 0 16.2309 0 19.7211C0 22.2229 1.59424 23.7209 3.97816 23.7209H10.5243ZM10.4892 0C13.6479 0 16.2106 2.65624 16.2106 5.93021C16.2106 9.20419 13.6479 11.8604 10.4892 11.8604C7.33054 11.8604 4.76783 9.20419 4.76783 5.93021C4.76783 2.65624 7.33054 0 10.4892 0Z" fill="#A8D1E7"/>
<path d="M14.3242 21.497V23.7208H16.548L23.1069 17.162L20.883 14.9381L14.3242 21.497ZM24.8266 15.4422C25.0579 15.2109 25.0579 14.8373 24.8266 14.6061L23.439 13.2184C23.2077 12.9871 22.8341 12.9871 22.6028 13.2184L21.5176 14.3036L23.7414 16.5274L24.8266 15.4422Z" fill="#A8D1E7"/>
</svg>
