<svg width="83" height="82" viewBox="0 0 83 82" fill="none" xmlns="http://www.w3.org/2000/svg">
<path d="M54.1655 48.1218C50.6798 55.847 42.0782 59.2192 34.9534 55.6538C27.8286 52.0883 24.8786 42.9352 28.3643 35.21C31.85 27.4848 40.4517 24.1126 47.5765 27.6781C54.7012 31.2435 57.6513 40.3966 54.1655 48.1218Z" fill="#F7A529"/>
<path d="M50.0641 49.1598C45.0036 55.6936 36.3275 57.0615 30.6858 52.2153C25.0441 47.369 24.5729 38.1436 29.6335 31.6098C34.694 25.076 43.3701 23.708 49.0118 28.5542C54.6535 33.4005 55.1246 42.6259 50.0641 49.1598Z" fill="#EED52C"/>
<path d="M29.4175 34.3941C29.4175 34.3941 33.5886 32.9273 34.7493 29.9956C35.6309 27.7691 29.5953 33.4582 29.4175 34.3941Z" fill="#FFFFEB"/>
<path d="M28.8548 35.954C29.1655 35.954 29.4177 36.611 29.4177 37.4202C29.4177 38.2294 29.1655 38.8864 28.8548 38.8864C28.5442 38.8864 28.292 38.2294 28.292 37.4202C28.292 36.611 28.5442 35.954 28.8548 35.954Z" fill="#FFFFEB"/>
<path d="M50.869 22.6844C50.4583 23.2443 50.0795 23.6333 49.7949 23.7568C49.2331 24.0006 48.41 23.7409 47.9299 23.1741C47.3998 22.5482 47.4328 21.7023 47.6164 21.1123C48.0719 19.648 48.3149 18.7438 48.7964 17.589C49.3295 16.3104 49.9207 14.9851 50.8663 13.9658C51.4212 13.3676 52.3942 12.7129 53.3143 13.7499C54.8413 15.4707 52.853 19.0972 52.1685 20.5205C52.1647 20.5279 52.1611 20.5353 52.1573 20.5429C51.7791 21.287 51.3618 22.0127 50.869 22.6844Z" fill="#FFA82A"/>
<path d="M43.2393 69.8574C43.2061 70.5714 43.1128 71.105 42.96 71.3409C42.6581 71.8067 41.9125 71.8851 41.2735 71.5242C40.568 71.1258 40.1771 70.2844 40.0248 69.6326C39.6472 68.0151 39.3852 67.0318 39.1791 65.7068C38.951 64.2396 38.7434 62.7035 38.9523 61.3236C39.0749 60.5137 39.4837 59.4798 40.684 60.123C42.676 61.1905 42.9657 65.544 43.1513 67.2138C43.1521 67.2227 43.153 67.2314 43.1539 67.2403C43.2357 68.1216 43.2792 69.0007 43.2393 69.8574Z" fill="#FFA82A"/>
<path d="M60.5729 64.146C60.9905 64.8156 61.2589 65.3516 61.306 65.6464C61.399 66.2283 60.9699 66.6858 60.3389 66.6868C59.6423 66.6879 58.8747 66.1214 58.3767 65.6046C57.1406 64.322 56.3686 63.5589 55.4222 62.4548C54.3743 61.2322 53.2971 59.9358 52.5827 58.5667C52.1634 57.7631 51.7896 56.6067 52.9536 56.5732C54.8852 56.5174 57.7464 60.3459 58.8917 61.7758C58.8977 61.7834 58.9036 61.791 58.9096 61.7987C59.5036 62.5616 60.0718 63.3425 60.5729 64.146Z" fill="#FFA82A"/>
<path d="M22.9385 62.8006C22.3372 63.1634 21.826 63.3885 21.4994 63.4129C20.8544 63.4612 20.1196 63.0021 19.8322 62.3778C19.5149 61.6885 19.8358 60.9717 20.2202 60.5179C21.174 59.3915 21.7248 58.685 22.5993 57.8319C23.5676 56.8872 24.6097 55.919 25.9024 55.3153C26.6609 54.9609 27.8569 54.678 28.4244 55.8322C29.3662 57.7474 26.1435 60.29 24.9746 61.3155C24.9683 61.3208 24.962 61.3263 24.9557 61.3317C24.3243 61.862 23.66 62.3653 22.9385 62.8006Z" fill="#FFA82A"/>
<path d="M12.1696 45.0708C11.3952 44.9409 10.7931 44.7822 10.4888 44.6117C9.88785 44.2749 9.54917 43.5932 9.71636 43.069C9.90087 42.4902 10.6664 42.2566 11.3108 42.211C12.9101 42.0979 13.8713 42.0001 15.2168 42.0004C16.7065 42.0007 18.2772 42.0292 19.8231 42.4104C20.7304 42.6341 21.9749 43.1466 21.6979 44.1362C21.2383 45.7784 16.6854 45.4289 14.9644 45.362C14.9552 45.3615 14.9461 45.3611 14.9369 45.3606C14.0233 45.3107 13.0986 45.2267 12.1696 45.0708Z" fill="#FFA82A"/>
<path d="M61.9012 47.7531C61.1618 47.4335 60.6058 47.1357 60.3545 46.9078C59.8584 46.4579 59.7405 45.7836 60.0817 45.3801C60.4585 44.9345 61.3085 44.9406 61.9744 45.0751C63.6269 45.4089 64.6299 45.5841 65.9888 45.9466C67.4932 46.3478 69.0702 46.7951 70.5062 47.5374C71.349 47.9732 72.4374 48.7466 71.8321 49.5186C70.8277 50.7999 66.3442 49.2753 64.6281 48.7547C64.619 48.7519 64.6099 48.7489 64.6007 48.746C63.6943 48.4574 62.7882 48.1366 61.9012 47.7531Z" fill="#FFA82A"/>
<path d="M16.0703 25.8327C15.4408 25.3342 14.9895 24.9107 14.8211 24.6404C14.4887 24.1068 14.6266 23.5003 15.1277 23.2644C15.681 23.0041 16.5427 23.2717 17.1682 23.5911C18.7205 24.3835 19.6732 24.8412 20.9161 25.5673C22.2922 26.3712 23.7245 27.2362 24.9006 28.3073C25.5908 28.9359 26.4016 29.9259 25.4913 30.3919C23.9805 31.1651 20.0053 28.4916 18.4597 27.5215C18.4515 27.5162 18.4434 27.5111 18.4352 27.5058C17.6241 26.9819 16.8256 26.4309 16.0703 25.8327Z" fill="#FFA82A"/>
<path d="M30.8622 13.1944C30.725 12.4645 30.6844 11.9055 30.7676 11.6364C30.9319 11.1051 31.5886 10.8787 32.2517 11.1183C32.9838 11.383 33.5346 12.1583 33.8251 12.7885C34.5458 14.3528 35.0131 15.2972 35.51 16.5989C36.0601 18.0402 36.6077 19.5556 36.7417 20.9947C36.8203 21.8393 36.6926 22.9673 35.4552 22.5522C33.4016 21.8634 32.12 17.5102 31.5609 15.8552C31.5581 15.8465 31.5553 15.8376 31.5524 15.8287C31.272 14.9522 31.0268 14.0701 30.8622 13.1944Z" fill="#FFA82A"/>
<path d="M66.0143 28.4637C66.753 28.3708 67.3478 28.3595 67.6805 28.4495C68.3374 28.6272 68.8822 29.2479 68.9186 29.8524C68.9588 30.52 68.3571 30.9952 67.7969 31.2351C66.4065 31.8307 65.5814 32.2201 64.3778 32.6202C63.0452 33.0631 61.6303 33.5003 60.1122 33.5568C59.2213 33.5899 57.9264 33.4177 57.8231 32.2879C57.6517 30.4129 61.848 29.428 63.4111 28.9869C63.4195 28.9848 63.4278 28.9825 63.4362 28.9802C64.2712 28.7612 65.1279 28.5751 66.0143 28.4637Z" fill="#FFA82A"/>
<path d="M35.2766 35.885C36.2768 35.7975 37.0917 36.4367 37.0952 37.3116C37.0987 38.1864 36.2895 38.9679 35.2893 39.0554C34.2891 39.143 33.4742 38.5038 33.4707 37.6289C33.4672 36.754 34.2764 35.9726 35.2766 35.885Z" fill="#461706"/>
<path d="M47.197 36.2146C48.1972 36.127 49.0121 36.7662 49.0156 37.6411C49.0191 38.516 48.2099 39.2974 47.2097 39.385C46.2095 39.4725 45.3946 38.8333 45.3911 37.9584C45.3876 37.0836 46.1968 36.3021 47.197 36.2146Z" fill="#461706"/>
<path d="M36.4792 42.7982C36.3374 42.8077 36.5788 47.3828 41.3308 47.1449C45.3954 46.9415 45.8403 42.168 45.8403 42.168C45.8403 42.168 41.0934 43.2254 36.4792 42.7982Z" fill="#461706"/>
</svg>
