<svg width="19" height="19" viewBox="0 0 19 19" fill="none" xmlns="http://www.w3.org/2000/svg">
<path d="M2.73879 7.40646V3.4432H5.33539V4.31052H3.74189V4.99199H5.1762V5.85768H3.74189V7.40646H2.73879ZM2.57651 0H12.8547C13.5377 0.00129295 14.1923 0.288038 14.6752 0.797428C15.1581 1.30682 15.43 1.99733 15.4312 2.71771V8.37323C15.4288 9.09277 15.1564 9.78203 14.6736 10.2904C14.1908 10.7987 13.5369 11.0848 12.8547 11.0861H7.02628L3.11592 14.6369C3.05103 14.6948 2.97147 14.7313 2.88709 14.742C2.8027 14.7526 2.71721 14.7369 2.64119 14.6969C2.56517 14.6568 2.50198 14.594 2.45944 14.5164C2.4169 14.4388 2.39687 14.3497 2.40185 14.2603L2.61051 11.0861H2.57651C1.89435 11.0848 1.24042 10.7987 0.757627 10.2904C0.274836 9.78203 0.00244977 9.09277 0 8.37323L0 2.71771C0.00122577 1.99733 0.273072 1.30682 0.755995 0.797428C1.23892 0.288038 1.89355 0.00129295 2.57651 0V0ZM16.9505 4.0187C17.5249 4.1375 18.0427 4.46208 18.4162 4.93746C18.7897 5.41284 18.996 6.00978 19 6.62718V12.6919C18.998 13.3972 18.7313 14.0729 18.2584 14.5715C17.7855 15.07 17.1447 15.3508 16.476 15.3526H16.3833L16.5904 18.5854C16.5929 18.6622 16.5744 18.738 16.5372 18.804C16.4999 18.87 16.4456 18.9233 16.3805 18.9577C16.3154 18.992 16.2423 19.0059 16.1699 18.9977C16.0975 18.9895 16.0289 18.9596 15.9722 18.9115L12.0386 15.2482H5.91345L8.46059 12.5158H14.8099C15.3773 12.5137 15.9208 12.2749 16.3219 11.8515C16.7229 11.4282 16.9489 10.8547 16.9505 10.2562V4.19803C16.9505 4.13771 16.9505 4.07739 16.9505 4.0187ZM12.8609 0.921121H2.57651C2.12552 0.925402 1.69427 1.11683 1.37608 1.45398C1.05789 1.79113 0.878366 2.24688 0.876352 2.72261V8.37323C0.880411 8.84894 1.06189 9.30383 1.38153 9.63945C1.70116 9.97508 2.13323 10.1644 2.58423 10.1666H3.11283C3.16971 10.1707 3.22526 10.1866 3.27628 10.2135C3.3273 10.2403 3.37279 10.2776 3.41013 10.323C3.44748 10.3685 3.47594 10.4212 3.49388 10.4783C3.51182 10.5354 3.51889 10.5957 3.51468 10.6557L3.33849 13.2332L6.56414 10.2986C6.60477 10.2561 6.65304 10.2225 6.70611 10.1998C6.75918 10.1771 6.81601 10.1658 6.87326 10.1666H12.8532C13.3028 10.1623 13.7329 9.97201 14.0509 9.63661C14.3689 9.30121 14.5493 8.84754 14.5533 8.37323V2.71771C14.5493 2.24341 14.3689 1.78974 14.0509 1.45434C13.7329 1.11894 13.3028 0.928636 12.8532 0.924382L12.8609 0.921121ZM6.21484 7.41136H5.13292L6.33694 3.4432H7.70788L8.92581 7.40646H7.84389L7.03709 4.5355H7.00773L6.20093 7.40646L6.21484 7.41136ZM6.01236 5.8479H8.03709V6.65326H5.99845V5.843L6.01236 5.8479ZM10.5487 5.94082H11.3215L11.592 6.31579L12.068 6.89455L12.6862 7.7097H11.8037L11.3648 7.16029L11.068 6.70217L10.5348 5.94408L10.5487 5.94082ZM12.6986 5.43054C12.7104 5.81792 12.6273 6.20197 12.4575 6.54566C12.3098 6.83622 12.0846 7.07481 11.8099 7.23202C11.5289 7.3858 11.2169 7.46607 10.9003 7.46607C10.5837 7.46607 10.2718 7.3858 9.99073 7.23202C9.7166 7.073 9.49216 6.83342 9.34467 6.5424C9.17661 6.19989 9.09466 5.81763 9.10665 5.43217C9.09428 5.04511 9.17623 4.66117 9.34467 4.31704C9.49218 4.02645 9.71666 3.78741 9.99073 3.62905C10.2719 3.4758 10.5838 3.39583 10.9003 3.39583C11.2168 3.39583 11.5287 3.4758 11.8099 3.62905C12.0844 3.78739 12.3094 4.0264 12.4575 4.31704C12.6277 4.66058 12.7108 5.04474 12.6986 5.43217V5.43054ZM11.6662 5.43054C11.6714 5.22658 11.6416 5.02331 11.5781 4.83059C11.5305 4.68155 11.441 4.55133 11.3215 4.45725C11.1954 4.37515 11.0501 4.33167 10.9019 4.33167C10.7536 4.33167 10.6084 4.37515 10.4822 4.45725C10.3627 4.55167 10.2728 4.68171 10.2241 4.83059C10.1619 5.02361 10.1326 5.22673 10.1376 5.43054C10.1281 5.63401 10.1527 5.83765 10.2102 6.03212C10.2589 6.18054 10.3489 6.31006 10.4683 6.40383C10.5941 6.48683 10.7395 6.53085 10.8879 6.53085C11.0363 6.53085 11.1818 6.48683 11.3076 6.40383C11.427 6.3104 11.5165 6.18071 11.5641 6.03212C11.6276 5.83937 11.6574 5.63612 11.6522 5.43217L11.6662 5.43054Z" fill="url(#paint0_linear_865_16583)"/>
<defs>
<linearGradient id="paint0_linear_865_16583" x1="-46.3124" y1="-27.3126" x2="29.6876" y2="24.9374" gradientUnits="userSpaceOnUse">
<stop stop-color="#63F3F0"/>
<stop offset="0.0677083" stop-color="#66FFFB"/>
<stop offset="0.333333" stop-color="#26B3FF"/>
<stop offset="0.829429" stop-color="#75CBC9"/>
<stop offset="0.89098" stop-color="#BCF5F3"/>
</linearGradient>
</defs>
</svg>
