<svg width="17" height="20" viewBox="0 0 17 20" fill="none" xmlns="http://www.w3.org/2000/svg">
<path d="M16.7143 8.47096C16.7143 4.34261 12.8873 0.857117 8.35714 0.857117C3.82701 0.857117 0 4.34261 0 8.47096C0 9.56582 0.200893 10.6306 0.602679 11.625L0.803571 12.1172L2.66183 12.4486C2.95312 13.5435 3.94755 14.3571 5.14286 14.3571V14.6785C5.14286 14.8594 5.28348 15 5.46429 15H6.10714C6.28795 15 6.42857 14.8594 6.42857 14.6785V8.89283C6.42857 8.71203 6.28795 8.5714 6.10714 8.5714H5.46429C5.28348 8.5714 5.14286 8.71203 5.14286 8.89283V9.21426C4.17857 9.21426 3.34487 9.74663 2.9029 10.5301L2.21987 10.4096C2.02902 9.78681 1.92857 9.14395 1.92857 8.47096C1.92857 5.43747 4.93192 2.78569 8.35714 2.78569C11.7824 2.78569 14.7857 5.43747 14.7857 8.47096C14.7857 9.14395 14.6853 9.78681 14.4944 10.4096L13.8114 10.5301C13.3694 9.74663 12.5357 9.21426 11.5714 9.21426V8.89283C11.5714 8.71203 11.4308 8.5714 11.25 8.5714H10.6071C10.4263 8.5714 10.2857 8.71203 10.2857 8.89283V14.6785C10.2857 14.8594 10.4263 15 10.6071 15H11.25C11.4308 15 11.5714 14.8594 11.5714 14.6785V14.3571C12.7667 14.3571 13.7612 13.5435 14.0525 12.4486L15.9107 12.1172L16.1116 11.625C16.5134 10.6306 16.7143 9.56582 16.7143 8.47096Z" fill="url(#paint0_linear_659_13906)"/>
<path fill-rule="evenodd" clip-rule="evenodd" d="M0.0761471 10.4595C0.0756252 10.0142 0.0751466 9.60582 0.062467 9.23715L1.46147 9.17892C1.47485 9.56806 1.47534 9.99518 1.47584 10.4337C1.47587 10.4618 1.4759 10.49 1.47594 10.5182C1.47653 10.9904 1.47806 11.4793 1.4951 11.9745C1.52933 12.9695 1.62567 13.9551 1.886 14.8191C2.14586 15.6815 2.55492 16.3753 3.1778 16.8434C3.78987 17.3035 4.68592 17.6038 6.05255 17.5469L6.09682 18.8336C4.46557 18.9015 3.21243 18.5435 2.28354 17.8454C1.36547 17.1553 0.841831 16.1911 0.536813 15.1788C0.232258 14.1681 0.131529 13.0624 0.0960974 12.0327C0.0783022 11.5156 0.0768362 11.0087 0.0762406 10.5372C0.0762077 10.5112 0.0761773 10.4853 0.0761471 10.4595Z" fill="url(#paint1_linear_659_13906)"/>
<circle cx="6.5" cy="18.5" r="1.5" fill="url(#paint2_linear_659_13906)"/>
<defs>
<linearGradient id="paint0_linear_659_13906" x1="-40.741" y1="-19.4733" x2="18.5652" y2="28.713" gradientUnits="userSpaceOnUse">
<stop stop-color="#63F3F0"/>
<stop offset="0.0677083" stop-color="#66FFFB"/>
<stop offset="0.333333" stop-color="#26B3FF"/>
<stop offset="0.829429" stop-color="#75CBC9"/>
<stop offset="0.89098" stop-color="#BCF5F3"/>
</linearGradient>
<linearGradient id="paint1_linear_659_13906" x1="-14.5226" y1="-4.31166" x2="15.0138" y2="6.38411" gradientUnits="userSpaceOnUse">
<stop stop-color="#63F3F0"/>
<stop offset="0.0677083" stop-color="#66FFFB"/>
<stop offset="0.333333" stop-color="#26B3FF"/>
<stop offset="0.829429" stop-color="#75CBC9"/>
<stop offset="0.89098" stop-color="#BCF5F3"/>
</linearGradient>
<linearGradient id="paint2_linear_659_13906" x1="-2.31249" y1="12.6875" x2="9.68751" y2="20.9375" gradientUnits="userSpaceOnUse">
<stop stop-color="#63F3F0"/>
<stop offset="0.0677083" stop-color="#66FFFB"/>
<stop offset="0.333333" stop-color="#26B3FF"/>
<stop offset="0.829429" stop-color="#75CBC9"/>
<stop offset="0.89098" stop-color="#BCF5F3"/>
</linearGradient>
</defs>
</svg>
