<svg width="28" height="27" viewBox="0 0 28 27" fill="none" xmlns="http://www.w3.org/2000/svg" fill="#75DCE1">
<path d="M6.8 27C9.00914 27 10.8 25.2091 10.8 23V20.6706C10.8 18.9033 12.2327 17.4706 14 17.4706C15.7673 17.4706 17.2 18.9033 17.2 20.6706V23C17.2 25.2091 18.9909 27 21.2 27C23.4091 27 25.2 25.2091 25.2 23V15.62C25.2 14.8877 25.7936 14.2941 26.5259 14.2941C27.7434 14.2941 28.3171 12.7907 27.4092 11.9795L14.6662 0.595201C14.2868 0.256192 13.7132 0.256192 13.3338 0.595201L0.590819 11.9795C-0.317131 12.7907 0.256639 14.2941 1.47415 14.2941C2.2064 14.2941 2.8 14.8877 2.8 15.62V23C2.8 25.2091 4.59086 27 6.8 27Z"/>
</svg>
