<svg width="47" height="41" viewBox="0 0 47 41" fill="none" xmlns="http://www.w3.org/2000/svg">
<path fill-rule="evenodd" clip-rule="evenodd" d="M32.6326 26.7755C40.0265 26.7755 46.0204 23.2166 46.0204 18.8265C46.0204 14.4364 40.0265 10.8775 32.6326 10.8775C28.8558 10.8775 25.4442 11.8062 23.0102 13.2998C20.5762 11.8062 17.1646 10.8776 13.3878 10.8776C5.9939 10.8776 0 14.4364 0 18.8265C0 23.2166 5.9939 26.7755 13.3878 26.7755C17.1646 26.7755 20.5762 25.8469 23.0102 24.3532C25.4442 25.8469 28.8558 26.7755 32.6326 26.7755ZM20.0816 18.8265C20.0816 20.4439 17.0847 21.7551 13.3878 21.7551C9.69083 21.7551 6.69387 20.4439 6.69387 18.8265C6.69387 17.2091 9.69083 15.8979 13.3878 15.8979C17.0847 15.8979 20.0816 17.2091 20.0816 18.8265ZM32.6326 21.7551C36.3296 21.7551 39.3265 20.4439 39.3265 18.8265C39.3265 17.2091 36.3296 15.8979 32.6326 15.8979C28.9357 15.8979 25.9388 17.2091 25.9388 18.8265C25.9388 20.4439 28.9357 21.7551 32.6326 21.7551Z" fill="#5CCB9B"/>
<rect x="35.9795" y="4.18367" width="0.836735" height="7.53061" rx="0.418367" transform="rotate(-90 35.9795 4.18367)" fill="#5CCB9B"/>
<rect x="39.3264" width="0.836735" height="7.53061" rx="0.418367" fill="#5CCB9B"/>
<rect x="2.51025" y="32.6327" width="0.836735" height="7.53061" rx="0.418367" transform="rotate(-90 2.51025 32.6327)" fill="#5CCB9B"/>
<rect x="5.85718" y="28.449" width="0.836735" height="7.53061" rx="0.418367" fill="#5CCB9B"/>
<rect x="37.6531" y="23.4286" width="1.67347" height="10.0408" fill="#5CCB9B"/>
<rect x="36.8164" y="30.9592" width="3.34694" height="10.0408" rx="1.67347" fill="#5CCB9B"/>
</svg>
