<svg width="13" height="14" viewBox="0 0 13 14" fill="none" xmlns="http://www.w3.org/2000/svg">
<path d="M8.64077 10.6607C8.64077 10.8114 8.52358 10.9286 8.37291 10.9286H4.62291C4.47224 10.9286 4.35505 10.8114 4.35505 10.6607V9.32144C4.35505 9.17077 4.47224 9.05358 4.62291 9.05358H5.42648V6.37501H4.62291C4.47224 6.37501 4.35505 6.25782 4.35505 6.10715V4.76787C4.35505 4.6172 4.47224 4.50001 4.62291 4.50001H7.30148C7.45215 4.50001 7.56934 4.6172 7.56934 4.76787V9.05358H8.37291C8.52358 9.05358 8.64077 9.17077 8.64077 9.32144V10.6607ZM7.56934 3.16072C7.56934 3.31139 7.45215 3.42858 7.30148 3.42858H5.69434C5.54367 3.42858 5.42648 3.31139 5.42648 3.16072V1.82144C5.42648 1.67077 5.54367 1.55358 5.69434 1.55358H7.30148C7.45215 1.55358 7.56934 1.67077 7.56934 1.82144V3.16072ZM12.9265 6.64287C12.9265 3.09376 10.047 0.214294 6.49791 0.214294C2.9488 0.214294 0.0693359 3.09376 0.0693359 6.64287C0.0693359 10.192 2.9488 13.0714 6.49791 13.0714C10.047 13.0714 12.9265 10.192 12.9265 6.64287Z" fill="#FFD924"/>
</svg>
