<svg width="20" height="18" viewBox="0 0 20 18" fill="none" xmlns="http://www.w3.org/2000/svg">
<path fill-rule="evenodd" clip-rule="evenodd" d="M10 0C11.3055 0 12.4883 0.519496 13.3445 1.35889C14.2004 2.19828 14.7301 3.35833 14.7301 4.63907C14.7301 5.91942 14.2004 7.07947 13.3445 7.91925C12.4883 8.75864 11.3055 9.27814 10 9.27814C8.69375 9.27814 7.51133 8.75864 6.65547 7.91925C5.79922 7.07947 5.26992 5.91942 5.26992 4.63907C5.26992 3.35833 5.79922 2.19828 6.65547 1.35889C7.51133 0.519496 8.69375 0 10 0ZM14.3848 8.10697L15.4582 9.21722C15.9055 8.95939 16.4266 8.81189 16.9828 8.81189C17.8145 8.81189 18.5688 9.14328 19.1152 9.67849L19.1168 9.6804C19.6625 10.216 20 10.9554 20 11.771C20 12.5882 19.6621 13.328 19.116 13.8636L19.1008 13.8774C18.5555 14.4045 17.8074 14.7302 16.9828 14.7302C16.1496 14.7302 15.3953 14.3988 14.8492 13.8636L14.8352 13.8482C14.2977 13.3134 13.9656 12.5798 13.9656 11.771C13.9656 10.9573 14.3016 10.2194 14.8449 9.68385L13.8586 8.66401C14.047 8.49062 14.2229 8.30449 14.3848 8.10697ZM6.24375 8.75634L5.15234 10.244C5.69727 10.7792 6.03398 11.5174 6.03398 12.3331C6.03398 13.1502 5.69609 13.89 5.15039 14.4252L5.13477 14.4394C4.59023 14.9662 3.8418 15.2918 3.0168 15.2918C2.18398 15.2918 1.4293 14.9604 0.883594 14.4252L0.869531 14.4103C0.332031 13.8758 0 13.1422 0 12.3331C0 11.5159 0.337891 10.7761 0.883594 10.2409C1.4293 9.70569 2.18398 9.3743 3.0168 9.3743C3.57305 9.3743 4.09414 9.52218 4.5418 9.78001L5.69766 8.20505C5.79922 8.32305 5.90547 8.43683 6.01641 8.54563C6.09023 8.61766 6.16602 8.68815 6.24375 8.75634ZM10.3871 10.1512V12.1066C11.0648 12.1917 11.6723 12.4978 12.132 12.9487C12.6789 13.4854 13.0168 14.2248 13.0168 15.0412C13.0168 15.8584 12.6789 16.5982 12.1332 17.1334L12.118 17.1476C11.573 17.6744 10.825 18 10 18C9.1668 18 8.4125 17.6686 7.8668 17.1334L7.85234 17.1185C7.31523 16.584 6.9832 15.8504 6.9832 15.0412C6.9832 14.2248 7.3207 13.4854 7.8668 12.9499C8.32656 12.4982 8.93437 12.1917 9.6125 12.1066V10.1512C9.74063 10.1597 9.86992 10.1643 10 10.1643C10.1301 10.1643 10.259 10.1597 10.3871 10.1512ZM1.08164 13.9099L1.22422 13.8023C1.54609 13.6153 2.03203 13.6644 2.34883 13.4475C2.36758 13.4195 2.38789 13.3793 2.40742 13.3356C2.4375 13.2694 2.46406 13.1973 2.48125 13.1479C2.40937 13.0648 2.34766 12.9709 2.28867 12.8786L2.09336 12.5744C2.02266 12.4702 1.98516 12.3748 1.98281 12.2967C1.98164 12.2599 1.98789 12.2265 2.00195 12.197C2.01641 12.166 2.03867 12.1407 2.06914 12.1208C2.0832 12.1112 2.09922 12.1032 2.11641 12.0971C2.10352 11.9323 2.09922 11.7247 2.10703 11.5504C2.11094 11.5094 2.11953 11.468 2.13125 11.4266C2.18125 11.2523 2.30547 11.1117 2.46055 11.0152C2.54531 10.9619 2.63906 10.9221 2.73633 10.8949C2.79844 10.8776 2.68359 10.6834 2.74766 10.6769C3.05742 10.6455 3.5582 10.9228 3.77422 11.1523C3.88242 11.2672 3.95039 11.4197 3.96523 11.6208L3.95312 12.117C4.00703 12.1331 4.04219 12.1668 4.05586 12.2212C4.07148 12.2817 4.05469 12.3668 4.00234 12.4825C4.00156 12.4844 4.00039 12.4867 3.99883 12.4886L3.77695 12.8476C3.69531 12.9794 3.6125 13.1119 3.5043 13.2157C3.51406 13.2295 3.52422 13.2433 3.53359 13.2575C3.57773 13.3207 3.62227 13.3843 3.67852 13.4406C3.68047 13.4425 3.68242 13.4445 3.68359 13.4464C3.93906 13.6234 4.56172 13.6667 4.80078 13.7973L4.81016 13.8027L4.95 13.9115C5.31328 13.4835 5.53242 12.9334 5.53242 12.3331C5.53242 11.6519 5.25039 11.0347 4.7957 10.5884C4.34102 10.1424 3.71172 9.86621 3.0168 9.86621C2.32227 9.86621 1.69336 10.1424 1.23828 10.5888C0.783203 11.0347 0.501562 11.6519 0.501562 12.3331C0.501562 12.9326 0.719531 13.4824 1.08164 13.9099ZM15.1652 13.4782C15.3309 13.1774 15.9602 13.1426 16.318 12.9322C16.5926 12.7706 16.5457 12.6081 16.5441 12.3403H16.1082C14.9762 12.3403 15.7215 12.4277 15.8754 11.2209C16.1059 9.51643 17.8563 9.5149 18.1145 11.2209C18.2801 12.3821 18.9898 12.3403 17.8816 12.3403H17.4395C17.4375 12.6357 17.3906 12.787 17.7035 12.9529C17.9711 13.0954 18.6309 13.1782 18.8121 13.4644C19.2375 13.0226 19.4984 12.4265 19.4984 11.771C19.4984 11.0891 19.2172 10.4719 18.7621 10.026C18.307 9.57965 17.6781 9.30381 16.9828 9.30381C16.2883 9.30381 15.659 9.58003 15.2039 10.0263C14.7484 10.4719 14.4672 11.0891 14.4672 11.771C14.4672 12.4338 14.7328 13.0357 15.1652 13.4782ZM8.06484 16.6181L8.20703 16.5105C8.5293 16.3235 9.01523 16.3726 9.33164 16.1557C9.35078 16.1277 9.37109 16.0875 9.39062 16.0438C9.42031 15.9776 9.44687 15.9055 9.46406 15.8561C9.39219 15.773 9.33047 15.6791 9.27148 15.5868L9.07656 15.2826C9.00547 15.1784 8.96836 15.083 8.96602 15.0049C8.96484 14.9681 8.97109 14.9347 8.98516 14.9052C8.99961 14.8742 9.02187 14.8489 9.05195 14.829C9.06641 14.8194 9.08203 14.8114 9.09922 14.8053C9.08672 14.6401 9.08203 14.4329 9.09023 14.2586C9.09414 14.2176 9.10273 14.1762 9.11445 14.1348C9.16406 13.9605 9.28867 13.8199 9.44336 13.7234C9.52852 13.6697 9.62188 13.6299 9.71953 13.6031C9.78125 13.5858 9.6668 13.3916 9.73047 13.3851C10.0402 13.3537 10.541 13.631 10.757 13.8605C10.8656 13.9754 10.9332 14.1275 10.948 14.329L10.9363 14.8252C10.9902 14.8413 11.025 14.875 11.0391 14.9294C11.0543 14.9899 11.0375 15.075 10.9855 15.1903C10.9848 15.1926 10.9832 15.1949 10.982 15.1968L10.7598 15.5558C10.6785 15.6876 10.5953 15.8201 10.4875 15.9239C10.4973 15.9377 10.507 15.9515 10.5164 15.9657C10.5605 16.0289 10.6051 16.0925 10.6617 16.1488C10.6637 16.1507 10.6652 16.1526 10.6664 16.1546C10.9223 16.3316 11.5449 16.3749 11.784 16.5055L11.7934 16.5109L11.9332 16.6197C12.3101 16.1768 12.5161 15.6181 12.5152 15.0412C12.5152 14.3597 12.2336 13.7425 11.7789 13.2962C11.3242 12.8502 10.6949 12.574 10 12.574C9.30508 12.574 8.67617 12.8506 8.22148 13.2966C7.76641 13.7425 7.48477 14.3597 7.48477 15.0412C7.48477 15.6408 7.70273 16.1906 8.06484 16.6181ZM11.423 2.11706H11.4238C11.9898 2.11706 12.4488 2.56721 12.4488 3.12234C12.4488 3.67746 11.9898 4.128 11.4238 4.128C11.1836 4.12813 10.9511 4.0454 10.7668 3.8943L9.40547 4.45096C9.40977 4.48889 9.4125 4.52682 9.41289 4.56513L10.8277 5.20454C10.9996 5.08539 11.2055 5.02026 11.4176 5.02026C11.9813 5.02026 12.4383 5.46888 12.4383 6.02133C12.4383 6.57415 11.9813 7.02239 11.4176 7.02239C10.8543 7.02239 10.3977 6.57377 10.3977 6.02133C10.3977 5.9447 10.4066 5.86808 10.4242 5.79338L9.1668 5.22561C8.97305 5.44743 8.68906 5.57807 8.3875 5.57807C7.82109 5.57807 7.36211 5.12753 7.36211 4.57241C7.36211 4.01728 7.82109 3.56713 8.3875 3.56713C8.6418 3.56713 8.88711 3.66022 9.07461 3.82688L10.4113 3.28018C10.4027 3.22808 10.3984 3.17559 10.3984 3.12234C10.3984 2.56721 10.8574 2.11706 11.423 2.11706Z" fill="url(#paint0_linear_865_16596)"/>
<defs>
<linearGradient id="paint0_linear_865_16596" x1="-48.7499" y1="-25.8751" x2="25.6489" y2="30.9574" gradientUnits="userSpaceOnUse">
<stop stop-color="#63F3F0"/>
<stop offset="0.0677083" stop-color="#66FFFB"/>
<stop offset="0.333333" stop-color="#26B3FF"/>
<stop offset="0.829429" stop-color="#75CBC9"/>
<stop offset="0.89098" stop-color="#BCF5F3"/>
</linearGradient>
</defs>
</svg>
