<svg width="17" height="18" viewBox="0 0 17 18" fill="none" xmlns="http://www.w3.org/2000/svg">
<path d="M10.3582 6.53796C10.3582 5.17189 9.24826 4.07145 7.89167 4.07145C6.53509 4.07145 5.42515 5.17189 5.42515 6.53796C5.42515 7.89455 6.53509 8.995 7.89167 8.995C9.24826 8.995 10.3582 7.89455 10.3582 6.53796ZM9.90283 8.62502C9.27672 8.995 8.64111 9.45035 7.89167 9.45035C7.14223 9.45035 6.50663 8.995 5.88051 8.62502H5.83308C4.06857 8.62502 3.78397 10.8354 3.78397 12.173C3.78397 12.9699 4.28676 13.7857 5.15953 13.7857H10.6238C11.4966 13.7857 11.9994 12.9699 11.9994 12.173C11.9994 10.7785 11.7148 8.62502 9.90283 8.62502ZM16.3917 6.19645V4.37502C16.3917 4.21375 16.2494 4.07145 16.0881 4.07145H15.1774V1.94645C15.1774 1.11163 14.4944 0.428589 13.6595 0.428589H2.12381C1.28899 0.428589 0.605957 1.11163 0.605957 1.94645V15.9107C0.605957 16.7456 1.28899 17.4286 2.12381 17.4286H13.6595C14.4944 17.4286 15.1774 16.7456 15.1774 15.9107V13.7857H16.0881C16.2494 13.7857 16.3917 13.6434 16.3917 13.4822V11.6607C16.3917 11.4995 16.2494 11.3572 16.0881 11.3572H15.1774V10.1429H16.0881C16.2494 10.1429 16.3917 10.0006 16.3917 9.8393V8.01788C16.3917 7.8566 16.2494 7.7143 16.0881 7.7143H15.1774V6.50002H16.0881C16.2494 6.50002 16.3917 6.35772 16.3917 6.19645ZM13.9631 15.9107C13.9631 16.072 13.8208 16.2143 13.6595 16.2143H2.12381C1.96254 16.2143 1.82024 16.072 1.82024 15.9107V1.94645C1.82024 1.78517 1.96254 1.64287 2.12381 1.64287H13.6595C13.8208 1.64287 13.9631 1.78517 13.9631 1.94645V15.9107Z" fill="url(#paint0_linear_659_13838)"/>
<defs>
<linearGradient id="paint0_linear_659_13838" x1="-37.8717" y1="-24.009" x2="28.1921" y2="18.1656" gradientUnits="userSpaceOnUse">
<stop stop-color="#63F3F0"/>
<stop offset="0.0677083" stop-color="#66FFFB"/>
<stop offset="0.333333" stop-color="#26B3FF"/>
<stop offset="0.829429" stop-color="#75CBC9"/>
<stop offset="0.89098" stop-color="#BCF5F3"/>
</linearGradient>
</defs>
</svg>
