<svg width="23" height="19" viewBox="0 0 23 19" fill="none" xmlns="http://www.w3.org/2000/svg">
<path d="M0 9.60068C0 10.5944 0.805583 11.4 1.79932 11.4C2.79306 11.4 3.59864 10.5944 3.59864 9.60068V9.39932C3.59864 8.40558 2.79306 7.6 1.79932 7.6C0.805583 7.6 0 8.40558 0 9.39932V9.60068ZM0 17.2007C0 18.1944 0.805583 19 1.79932 19C2.79306 19 3.59864 18.1944 3.59864 17.2007V16.9993C3.59864 16.0056 2.79306 15.2 1.79932 15.2C0.805583 15.2 0 16.0056 0 16.9993V17.2007ZM0 2.00068C0 2.99442 0.805583 3.8 1.79932 3.8C2.79306 3.8 3.59864 2.99442 3.59864 2.00068V1.79932C3.59864 0.805582 2.79306 0 1.79932 0C0.805583 0 0 0.805583 0 1.79932V2.00068ZM7.19728 9.5C7.19728 10.5493 8.04794 11.4 9.09728 11.4H21.1C22.1493 11.4 23 10.5493 23 9.5C23 8.45066 22.1493 7.6 21.1 7.6H9.09728C8.04794 7.6 7.19728 8.45066 7.19728 9.5ZM7.19728 17.1C7.19728 18.1493 8.04794 19 9.09728 19H21.1C22.1493 19 23 18.1493 23 17.1C23 16.0507 22.1493 15.2 21.1 15.2H9.09728C8.04794 15.2 7.19728 16.0507 7.19728 17.1ZM9.09728 0C8.04794 0 7.19728 0.850659 7.19728 1.9C7.19728 2.94934 8.04794 3.8 9.09728 3.8H21.1C22.1493 3.8 23 2.94934 23 1.9C23 0.850659 22.1493 0 21.1 0H9.09728Z" fill="#A8D1E7"/>
</svg>
