<svg width="25" height="17" viewBox="0 0 25 17" fill="none" xmlns="http://www.w3.org/2000/svg">
<path d="M9.72222 15.5833C9.72222 16.3657 10.3565 17 11.1389 17H13.8611C14.6435 17 15.2778 16.3657 15.2778 15.5833C15.2778 14.8009 14.6435 14.1667 13.8611 14.1667H11.1389C10.3565 14.1667 9.72222 14.8009 9.72222 15.5833ZM1.41667 0C0.634262 0 0 0.634263 0 1.41667C0 2.19907 0.634263 2.83333 1.41667 2.83333H23.5833C24.3657 2.83333 25 2.19907 25 1.41667C25 0.634263 24.3657 0 23.5833 0H1.41667ZM4.16667 8.5C4.16667 9.2824 4.80093 9.91667 5.58333 9.91667H19.4167C20.1991 9.91667 20.8333 9.2824 20.8333 8.5C20.8333 7.7176 20.1991 7.08333 19.4167 7.08333H5.58333C4.80093 7.08333 4.16667 7.7176 4.16667 8.5Z" fill="#A8D1E7"/>
</svg>
