<svg width="30" height="24" viewBox="0 0 30 24" fill="none" xmlns="http://www.w3.org/2000/svg">
<path d="M20.2909 7.26949C20.6182 7.26949 20.9455 7.26949 21.3273 7.32294C20.4 3.15368 15.8182 0 10.5818 0C4.74545 0 0 3.902 0 8.87305C0 11.706 1.58182 14.0579 4.2 15.8753L3.16364 19.029L6.87273 17.2116C8.23636 17.4788 9.27273 17.7461 10.5818 17.7461C10.9636 17.7461 11.2364 17.6926 11.6182 17.6926C11.4 16.9978 11.2364 16.2494 11.2364 15.5011C11.2364 10.9577 15.2182 7.26949 20.2909 7.26949ZM30 15.3942C30 11.2249 25.7455 7.85746 20.9455 7.85746C15.8727 7.85746 11.9455 11.2249 11.9455 15.3942C11.9455 19.5635 15.9273 22.931 20.9455 22.931C21.9818 22.931 23.0727 22.6637 24.1636 22.3964L27.0545 24L26.2364 21.3808C28.4182 19.8307 30 17.7461 30 15.3942Z" fill="#A8D1E7"/>
</svg>
