<svg width="42" height="52" viewBox="0 0 42 52" fill="none" xmlns="http://www.w3.org/2000/svg">
<path d="M32.575 46.3152C32.575 41.5913 31.232 38.7939 25.65 36.5C23.6573 35.1897 22.7326 32.5 20.65 32.5C18.5674 32.5 18.2253 35.1897 15.65 36.5C9.49301 38.7939 9 41.5913 9 46.3152C9 48.9376 11.7888 51.075 13.786 51.075H28.364C30.3613 51.075 32.575 48.9376 32.575 46.3152Z" fill="#F77D3E"/>
<path fill-rule="evenodd" clip-rule="evenodd" d="M30.2 23.625C30.2 18.5458 26.0792 14.425 21 14.425C15.9209 14.425 11.8 18.5458 11.8 23.625C11.8 28.7042 15.9209 35.125 21 35.125C26.0792 35.125 30.2 28.7042 30.2 23.625ZM20.2589 28.1478L21 28.7361L21.7412 28.1523L21.7613 28.1363C24.3823 26.0596 26.1112 24.6897 26.1112 23.0094C26.1112 21.6368 24.8743 20.5583 23.3 20.5583C22.4107 20.5583 21.5572 20.9193 21 21.4898C20.4429 20.9193 19.5894 20.5583 18.7 20.5583C17.1258 20.5583 15.8889 21.6368 15.8889 23.0094C15.8889 24.6926 17.6239 26.0644 20.2525 28.1427L20.2589 28.1478Z" fill="#F77D3E"/>
<path fill-rule="evenodd" clip-rule="evenodd" d="M21 -4.86374e-05C21.5523 -4.86374e-05 22 0.447667 22 0.999951V7.99995C22 8.55224 21.5523 8.99995 21 8.99995C20.4477 8.99995 20 8.55224 20 7.99995V0.999951C20 0.447667 20.4477 -4.86374e-05 21 -4.86374e-05Z" fill="#F77D3E"/>
<path fill-rule="evenodd" clip-rule="evenodd" d="M-3.99104e-08 23C-6.19523e-08 22.4477 0.397969 22 0.888889 22L7.11111 22C7.60203 22 8 22.4477 8 23C8 23.5522 7.60203 24 7.11111 24L0.888889 24C0.397969 24 -1.78685e-08 23.5522 -3.99104e-08 23Z" fill="#F77D3E"/>
<path fill-rule="evenodd" clip-rule="evenodd" d="M2.15201 11.2543C2.52653 10.8079 3.19205 10.7496 3.63849 11.1241L9.29693 15.871C9.74337 16.2455 9.80167 16.9111 9.42714 17.3575C9.05262 17.8039 8.3871 17.8622 7.94066 17.4877L2.28223 12.7408C1.83579 12.3663 1.77749 11.7008 2.15201 11.2543Z" fill="#F77D3E"/>
<path fill-rule="evenodd" clip-rule="evenodd" d="M11.0356 3.6119C11.5822 3.40986 12.189 3.68917 12.3911 4.23575L14.9519 11.1635C15.1539 11.7101 14.8746 12.3169 14.328 12.519C13.7815 12.721 13.1746 12.4417 12.9725 11.8951L10.4117 4.96741C10.2097 4.42083 10.489 3.81395 11.0356 3.6119Z" fill="#F77D3E"/>
<path fill-rule="evenodd" clip-rule="evenodd" d="M42 23C42 22.4477 41.602 22 41.1111 22L34.8889 22C34.398 22 34 22.4477 34 23C34 23.5522 34.398 24 34.8889 24L41.1111 24C41.602 24 42 23.5522 42 23Z" fill="#F77D3E"/>
<path fill-rule="evenodd" clip-rule="evenodd" d="M40.0936 11.2543C39.7191 10.8079 39.0536 10.7496 38.6071 11.1241L32.9487 15.871C32.5022 16.2455 32.4439 16.9111 32.8185 17.3575C33.193 17.8039 33.8585 17.8622 34.3049 17.4877L39.9634 12.7408C40.4098 12.3663 40.4681 11.7008 40.0936 11.2543Z" fill="#F77D3E"/>
<path fill-rule="evenodd" clip-rule="evenodd" d="M31.21 3.6119C30.6634 3.40986 30.0566 3.68917 29.8545 4.23575L27.2937 11.1635C27.0917 11.7101 27.371 12.3169 27.9176 12.519C28.4641 12.721 29.071 12.4417 29.2731 11.8951L31.8339 4.96741C32.0359 4.42083 31.7566 3.81395 31.21 3.6119Z" fill="#F77D3E"/>
</svg>
