<svg width="64" height="53" viewBox="0 0 64 53" fill="none" xmlns="http://www.w3.org/2000/svg">
<path d="M63.9502 28.995C65.2492 45.8915 40.8242 53.9447 28.367 52.2724C15.9097 50.6001 5.30743 44.6126 1.06754 28.995C-5.61625 4.37529 20.7056 -4.24861 34.9768 9.7962C49.6208 24.2079 63.0657 17.4904 63.9502 28.995Z" fill="url(#paint0_linear_1534_18927)"/>
<path d="M54.602 49.9993H8.85689C7.36888 49.9993 6.16211 48.753 6.16211 47.2156V13.2698C6.16211 11.7324 7.36888 10.4861 8.85689 10.4861H54.602C56.0903 10.4861 57.2968 11.7324 57.2968 13.2698V47.2156C57.2968 48.753 56.0903 49.9993 54.602 49.9993Z" fill="white"/>
<path d="M57.2968 18.6212H6.16211V13.4501C6.16211 11.8132 7.36889 10.4861 8.8569 10.4861H54.602C56.0903 10.4861 57.2968 11.8132 57.2968 13.4501V18.6212Z" fill="#DCF3FF"/>
<path d="M49.1622 13.9727C49.1622 14.6144 48.642 15.1348 48 15.1348C47.3583 15.1348 46.8379 14.6144 46.8379 13.9727C46.8379 13.3309 47.3583 12.8105 48 12.8105C48.642 12.8105 49.1622 13.3309 49.1622 13.9727Z" fill="white"/>
<path fill-rule="evenodd" clip-rule="evenodd" d="M47.3369 10.3314C47.3295 10.3948 47.3223 10.4592 47.3153 10.5247C47.2756 10.8965 46.8771 11.1715 46.4253 11.1388C45.9734 11.1061 45.6393 10.7782 45.679 10.4064C45.7702 9.55227 45.8967 8.81656 46.0543 8.28144C46.1315 8.01937 46.2267 7.76783 46.3517 7.56719C46.4135 7.468 46.504 7.3458 46.6373 7.24014C46.7736 7.13205 47.0103 7.00003 47.3367 7.00003C47.8465 7.00003 48.1284 7.30803 48.2265 7.43158C48.3519 7.58944 48.4418 7.77841 48.5107 7.95753C48.652 8.32532 48.7677 8.82259 48.8609 9.39558C49.0488 10.5514 49.1622 12.1271 49.1622 13.8533C49.1622 14.0602 49.1607 14.2655 49.1575 14.4682C49.1514 14.8415 48.7788 15.14 48.3252 15.135C47.8717 15.1301 47.5089 14.8234 47.5149 14.4502C47.5181 14.2541 47.5196 14.0549 47.5196 13.8533C47.5196 12.5313 47.4511 11.3154 47.3369 10.3314ZM47.8234 8.16921C47.8234 8.16925 47.8229 8.17002 47.8217 8.17145C47.8228 8.1699 47.8234 8.16918 47.8234 8.16921Z" fill="#2A2A2A"/>
<path d="M42.1886 13.9727C42.1886 14.6144 41.6684 15.1348 41.0264 15.1348C40.3846 15.1348 39.8643 14.6144 39.8643 13.9727C39.8643 13.3309 40.3846 12.8105 41.0264 12.8105C41.6684 12.8105 42.1886 13.3309 42.1886 13.9727Z" fill="white"/>
<path d="M36.378 13.9727C36.378 14.6144 35.8578 15.1348 35.2159 15.1348C34.5741 15.1348 34.0537 14.6144 34.0537 13.9727C34.0537 13.3309 34.5741 12.8105 35.2159 12.8105C35.8578 12.8105 36.378 13.3309 36.378 13.9727Z" fill="white"/>
<path d="M29.4054 13.9727C29.4054 14.6144 28.8852 15.1348 28.2432 15.1348C27.6014 15.1348 27.0811 14.6144 27.0811 13.9727C27.0811 13.3309 27.6014 12.8105 28.2432 12.8105C28.8852 12.8105 29.4054 13.3309 29.4054 13.9727Z" fill="white"/>
<path d="M22.4327 13.9727C22.4327 14.6144 21.9125 15.1348 21.2706 15.1348C20.6288 15.1348 20.1084 14.6144 20.1084 13.9727C20.1084 13.3309 20.6288 12.8105 21.2706 12.8105C21.9125 12.8105 22.4327 13.3309 22.4327 13.9727Z" fill="white"/>
<path d="M15.4591 13.9727C15.4591 14.6144 14.9389 15.1348 14.2969 15.1348C13.6551 15.1348 13.1348 14.6144 13.1348 13.9727C13.1348 13.3309 13.6551 12.8105 14.2969 12.8105C14.9389 12.8105 15.4591 13.3309 15.4591 13.9727Z" fill="white"/>
<path fill-rule="evenodd" clip-rule="evenodd" d="M8.1055 11.2964C6.82189 11.2964 5.78126 12.3757 5.78126 13.7069V34.4862C5.78126 34.7099 5.60637 34.8913 5.39063 34.8913C5.17489 34.8913 5 34.7099 5 34.4862V13.7069C5 11.9282 6.39041 10.4861 8.1055 10.4861H54.1914C55.9064 10.4861 57.2969 11.9282 57.2969 13.7069C57.2969 13.9307 57.122 14.1121 56.9062 14.1121C56.6905 14.1121 56.5156 13.9307 56.5156 13.7069C56.5156 12.3757 55.475 11.2964 54.1914 11.2964H8.1055Z" fill="#7694DF"/>
<path fill-rule="evenodd" clip-rule="evenodd" d="M13.6338 10.3322C13.6265 10.3953 13.6193 10.4595 13.6124 10.5247C13.5726 10.8965 13.1741 11.1715 12.7222 11.1388C12.2703 11.1061 11.9362 10.7782 11.9759 10.4064C12.0671 9.55227 12.1936 8.81656 12.3512 8.28144C12.4284 8.01937 12.5237 7.76783 12.6487 7.56719C12.7105 7.468 12.801 7.3458 12.9343 7.24014C13.0706 7.13205 13.3073 7.00003 13.6337 7.00003C14.1436 7.00003 14.4255 7.30805 14.5236 7.43161C14.6491 7.58948 14.7389 7.77846 14.8078 7.95758C14.9491 8.32536 15.0647 8.82263 15.1579 9.39561C15.3457 10.5514 15.4591 12.1271 15.4591 13.8533C15.4591 14.0602 15.4576 14.2655 15.4543 14.4682C15.4483 14.8415 15.0757 15.14 14.622 15.135C14.1684 15.1301 13.8056 14.8234 13.8117 14.4502C13.8149 14.2541 13.8163 14.0549 13.8163 13.8533C13.8163 12.5316 13.7479 11.3161 13.6338 10.3322ZM14.1205 8.16921C14.1205 8.16925 14.1199 8.17002 14.1188 8.17145C14.1199 8.1699 14.1205 8.16918 14.1205 8.16921Z" fill="#2A2A2A"/>
<path fill-rule="evenodd" clip-rule="evenodd" d="M20.6064 10.3322C20.5991 10.3953 20.592 10.4595 20.585 10.5247C20.5453 10.8965 20.1468 11.1715 19.6949 11.1388C19.243 11.1061 18.9088 10.7782 18.9485 10.4064C19.0397 9.55227 19.1662 8.81656 19.3239 8.28144C19.4011 8.01937 19.4963 7.76783 19.6213 7.56719C19.6831 7.468 19.7736 7.3458 19.9069 7.24014C20.0433 7.13205 20.28 7.00003 20.6064 7.00003C21.1162 7.00003 21.3981 7.30805 21.4963 7.43161C21.6217 7.58948 21.7116 7.77846 21.7804 7.95758C21.9217 8.32536 22.0374 8.82263 22.1305 9.39561C22.3184 10.5514 22.4318 12.1271 22.4318 13.8533C22.4318 14.0602 22.4303 14.2655 22.427 14.4682C22.4209 14.8415 22.0483 15.14 21.5947 15.135C21.1411 15.1301 20.7783 14.8234 20.7843 14.4502C20.7875 14.2541 20.789 14.0549 20.789 13.8533C20.789 12.5316 20.7206 11.3161 20.6064 10.3322ZM21.0931 8.16921C21.0931 8.16925 21.0926 8.17002 21.0914 8.17145C21.0925 8.1699 21.0931 8.16918 21.0931 8.16921Z" fill="#2A2A2A"/>
<path fill-rule="evenodd" clip-rule="evenodd" d="M27.5801 10.3322C27.5727 10.3953 27.5656 10.4595 27.5586 10.5247C27.5189 10.8965 27.1204 11.1715 26.6685 11.1388C26.2166 11.1061 25.8824 10.7782 25.9221 10.4064C26.0133 9.55227 26.1399 8.81656 26.2975 8.28144C26.3747 8.01937 26.47 7.76783 26.595 7.56719C26.6568 7.468 26.7473 7.3458 26.8806 7.24014C27.0169 7.13205 27.2536 7.00003 27.58 7.00003C28.0899 7.00003 28.3718 7.30805 28.4699 7.43161C28.5953 7.58948 28.6852 7.77846 28.754 7.95758C28.8954 8.32536 29.011 8.82263 29.1041 9.39561C29.292 10.5514 29.4054 12.1271 29.4054 13.8533C29.4054 14.0602 29.4039 14.2655 29.4006 14.4682C29.3946 14.8415 29.0219 15.14 28.5683 15.135C28.1147 15.1301 27.7519 14.8234 27.758 14.4502C27.7612 14.2541 27.7626 14.0549 27.7626 13.8533C27.7626 12.5316 27.6942 11.3161 27.5801 10.3322ZM28.0668 8.16921C28.0668 8.16925 28.0662 8.17002 28.0651 8.17145C28.0662 8.1699 28.0668 8.16918 28.0668 8.16921Z" fill="#2A2A2A"/>
<path fill-rule="evenodd" clip-rule="evenodd" d="M34.5527 10.3322C34.5454 10.3953 34.5383 10.4595 34.5313 10.5247C34.4916 10.8965 34.0931 11.1715 33.6412 11.1388C33.1893 11.1061 32.8551 10.7782 32.8948 10.4064C32.986 9.55227 33.1125 8.81656 33.2702 8.28144C33.3474 8.01937 33.4426 7.76783 33.5676 7.56719C33.6294 7.468 33.7199 7.3458 33.8532 7.24014C33.9896 7.13205 34.2262 7.00003 34.5527 7.00003C35.0625 7.00003 35.3444 7.30805 35.4426 7.43161C35.568 7.58948 35.6579 7.77846 35.7267 7.95758C35.868 8.32536 35.9837 8.82263 36.0768 9.39561C36.2646 10.5514 36.3781 12.1271 36.3781 13.8533C36.3781 14.0602 36.3766 14.2655 36.3733 14.4682C36.3672 14.8415 35.9946 15.14 35.541 15.135C35.0874 15.1301 34.7246 14.8234 34.7306 14.4502C34.7338 14.2541 34.7353 14.0549 34.7353 13.8533C34.7353 12.5316 34.6669 11.3161 34.5527 10.3322ZM35.0394 8.16921C35.0394 8.16925 35.0389 8.17002 35.0377 8.17145C35.0388 8.1699 35.0394 8.16918 35.0394 8.16921Z" fill="#2A2A2A"/>
<path fill-rule="evenodd" clip-rule="evenodd" d="M40.3633 10.3322C40.3559 10.3953 40.3488 10.4595 40.3418 10.5247C40.3021 10.8965 39.9036 11.1715 39.4517 11.1388C38.9998 11.1061 38.6656 10.7782 38.7054 10.4064C38.7965 9.55227 38.9231 8.81656 39.0807 8.28144C39.1579 8.01937 39.2532 7.76783 39.3782 7.56719C39.44 7.468 39.5305 7.3458 39.6638 7.24014C39.8001 7.13205 40.0368 7.00003 40.3632 7.00003C40.8731 7.00003 41.155 7.30805 41.2531 7.43161C41.3785 7.58948 41.4684 7.77846 41.5372 7.95758C41.6786 8.32536 41.7942 8.82263 41.8873 9.39561C42.0752 10.5514 42.1886 12.1271 42.1886 13.8533C42.1886 14.0602 42.1871 14.2655 42.1838 14.4682C42.1778 14.8415 41.8051 15.14 41.3515 15.135C40.8979 15.1301 40.5351 14.8234 40.5412 14.4502C40.5444 14.2541 40.5458 14.0549 40.5458 13.8533C40.5458 12.5316 40.4774 11.3161 40.3633 10.3322ZM40.85 8.16921C40.85 8.16925 40.8494 8.17002 40.8483 8.17145C40.8494 8.1699 40.85 8.16918 40.85 8.16921Z" fill="#2A2A2A"/>
<path fill-rule="evenodd" clip-rule="evenodd" d="M47.3359 10.3314C47.3285 10.3948 47.3214 10.4592 47.3144 10.5247C47.2747 10.8965 46.8762 11.1715 46.4243 11.1388C45.9724 11.1061 45.6383 10.7782 45.678 10.4064C45.7692 9.55227 45.8957 8.81656 46.0533 8.28144C46.1305 8.01937 46.2258 7.76783 46.3508 7.56719C46.4126 7.468 46.5031 7.3458 46.6363 7.24014C46.7727 7.13205 47.0093 7.00003 47.3357 7.00003C47.8455 7.00003 48.1274 7.30803 48.2256 7.43158C48.351 7.58944 48.4409 7.77841 48.5097 7.95753C48.6511 8.32532 48.7667 8.82259 48.8599 9.39558C49.0478 10.5514 49.1613 12.1271 49.1613 13.8533C49.1613 14.0602 49.1598 14.2655 49.1565 14.4682C49.1504 14.8415 48.7778 15.14 48.3243 15.135C47.8707 15.1301 47.5079 14.8234 47.514 14.4502C47.5172 14.2541 47.5186 14.0549 47.5186 13.8533C47.5186 12.5313 47.4501 11.3154 47.3359 10.3314ZM47.8224 8.16921C47.8225 8.16925 47.8219 8.17002 47.8207 8.17145C47.8219 8.1699 47.8224 8.16918 47.8224 8.16921Z" fill="black"/>
<path fill-rule="evenodd" clip-rule="evenodd" d="M5.38514 38.3778C5.59784 38.3778 5.77027 38.559 5.77027 38.7826V46.7818C5.77027 48.1117 6.79626 49.1899 8.06181 49.1899H18.5607C18.7734 49.1899 18.9458 49.3711 18.9458 49.5946C18.9458 49.8182 18.7734 49.9994 18.5607 49.9994H8.06181C6.37085 49.9994 5 48.5588 5 46.7818V38.7826C5 38.559 5.17243 38.3778 5.38514 38.3778Z" fill="#7694DF"/>
<path fill-rule="evenodd" clip-rule="evenodd" d="M23.5947 49.4182C23.5947 49.0973 23.7656 48.8371 23.9763 48.8371H25.5375C25.7482 48.8371 25.919 49.0973 25.919 49.4182C25.919 49.7391 25.7482 49.9992 25.5375 49.9992H23.9763C23.7656 49.9992 23.5947 49.7391 23.5947 49.4182Z" fill="#7694DF"/>
<path fill-rule="evenodd" clip-rule="evenodd" d="M56.9224 38.3778C57.1293 38.3778 57.2969 38.5525 57.2969 38.7681V46.8971C57.2969 48.6104 55.9639 49.9994 54.3195 49.9994H29.7798C29.573 49.9994 29.4053 49.8247 29.4053 49.6091C29.4053 49.3936 29.573 49.2189 29.7798 49.2189H54.3195C55.5502 49.2189 56.5479 48.1794 56.5479 46.8971V38.7681C56.5479 38.5525 56.7156 38.3778 56.9224 38.3778Z" fill="#7694DF"/>
<path fill-rule="evenodd" clip-rule="evenodd" d="M56.7158 34.8918C56.3949 34.8918 56.1347 35.0302 56.1347 35.2011V36.9067C56.1347 37.0776 56.3949 37.2161 56.7158 37.2161C57.0367 37.2161 57.2969 37.0776 57.2969 36.9067V35.2011C57.2969 35.0302 57.0367 34.8918 56.7158 34.8918Z" fill="#7694DF"/>
<path fill-rule="evenodd" clip-rule="evenodd" d="M56.7158 18.6215C56.3949 18.6215 56.1347 18.8292 56.1347 19.0854V21.644C56.1347 21.9002 56.3949 22.1079 56.7158 22.1079C57.0367 22.1079 57.2969 21.9002 57.2969 21.644V19.0854C57.2969 18.8292 57.0367 18.6215 56.7158 18.6215Z" fill="#7694DF"/>
<path fill-rule="evenodd" clip-rule="evenodd" d="M56.7158 23.2698C56.3949 23.2698 56.1347 23.4551 56.1347 23.6838V32.153C56.1347 32.3816 56.3949 32.567 56.7158 32.567C57.0367 32.567 57.2969 32.3816 57.2969 32.153V23.6838C57.2969 23.4551 57.0367 23.2698 56.7158 23.2698Z" fill="#7694DF"/>
<path d="M33.6372 33.0001H27.3628C26.6101 33.0001 26 32.39 26 31.6373V25.3627C26 24.6102 26.6101 24.0001 27.3628 24.0001H33.6372C34.3897 24.0001 35 24.6102 35 25.3627V31.6373C35 32.39 34.3897 33.0001 33.6372 33.0001Z" fill="#F66D63"/>
<path fill-rule="evenodd" clip-rule="evenodd" d="M29.5989 29.7387L32.2944 27.1171C32.4548 26.961 32.6942 26.9611 32.8546 27.1172C33.0485 27.306 33.0485 27.6418 32.8546 27.8306L29.5988 31.0001L28.1457 29.5855C27.951 29.3959 27.9515 29.0585 28.1469 28.8696C28.3077 28.7141 28.5469 28.7146 28.7072 28.8707L29.5989 29.7387Z" fill="white"/>
<path d="M48.6372 33.0001H42.3628C41.6101 33.0001 41 32.39 41 31.6373V25.3627C41 24.6102 41.6101 24.0001 42.3628 24.0001H48.6372C49.3897 24.0001 50 24.6102 50 25.3627V31.6373C50 32.39 49.3897 33.0001 48.6372 33.0001Z" fill="#F3CF20"/>
<path fill-rule="evenodd" clip-rule="evenodd" d="M44.5989 29.7387L47.2944 27.1171C47.4548 26.961 47.6942 26.9611 47.8546 27.1172C48.0485 27.306 48.0485 27.6418 47.8546 27.8306L44.5988 31.0001L43.1457 29.5855C42.951 29.3959 42.9515 29.0585 43.1469 28.8696C43.3077 28.7141 43.5469 28.7146 43.7072 28.8707L44.5989 29.7387Z" fill="white"/>
<path d="M18.6373 33.0001H12.363C11.6103 33.0001 11 32.39 11 31.6373V25.3627C11 24.6102 11.6103 24.0001 12.363 24.0001H18.6373C19.39 24.0001 20 24.6102 20 25.3627V31.6373C20 32.39 19.39 33.0001 18.6373 33.0001Z" fill="#73CAC8"/>
<path fill-rule="evenodd" clip-rule="evenodd" d="M14.5989 29.7387L17.2944 27.1171C17.4548 26.961 17.6942 26.9611 17.8546 27.1172C18.0485 27.306 18.0485 27.6418 17.8546 27.8306L14.5988 31.0001L13.1457 29.5855C12.951 29.3959 12.9515 29.0585 13.1469 28.8696C13.3077 28.7141 13.5469 28.7146 13.7072 28.8707L14.5989 29.7387Z" fill="white"/>
<path d="M33.6372 45.0001H27.3628C26.6101 45.0001 26 44.39 26 43.6373V37.3627C26 36.6102 26.6101 36.0001 27.3628 36.0001H33.6372C34.3897 36.0001 35 36.6102 35 37.3627V43.6373C35 44.39 34.3897 45.0001 33.6372 45.0001Z" fill="#CFDCE2"/>
<path d="M28 40.5001C28 40.7762 28.2239 41.0001 28.5 41.0001H32.5C32.7761 41.0001 33 40.7762 33 40.5001C33 40.2239 32.7761 40.0001 32.5 40.0001H28.5C28.2239 40.0001 28 40.2239 28 40.5001Z" fill="white"/>
<path d="M30.5 38.0001C30.2239 38.0001 30 38.2239 30 38.5001L30 42.5001C30 42.7762 30.2239 43.0001 30.5 43.0001C30.7761 43.0001 31 42.7762 31 42.5001L31 38.5001C31 38.2239 30.7761 38.0001 30.5 38.0001Z" fill="white"/>
<path d="M48.6372 45.0001H42.3628C41.6101 45.0001 41 44.39 41 43.6373V37.3627C41 36.6102 41.6101 36.0001 42.3628 36.0001H48.6372C49.3897 36.0001 50 36.6102 50 37.3627V43.6373C50 44.39 49.3897 45.0001 48.6372 45.0001Z" fill="#CFDCE2"/>
<path d="M43 40.5001C43 40.7762 43.2239 41.0001 43.5 41.0001H47.5C47.7761 41.0001 48 40.7762 48 40.5001C48 40.2239 47.7761 40.0001 47.5 40.0001H43.5C43.2239 40.0001 43 40.2239 43 40.5001Z" fill="white"/>
<path d="M45.5 38.0001C45.2239 38.0001 45 38.2239 45 38.5001L45 42.5001C45 42.7762 45.2239 43.0001 45.5 43.0001C45.7761 43.0001 46 42.7762 46 42.5001L46 38.5001C46 38.2239 45.7761 38.0001 45.5 38.0001Z" fill="white"/>
<path d="M18.6373 45.0001H12.363C11.6103 45.0001 11 44.39 11 43.6373V37.3627C11 36.6102 11.6103 36.0001 12.363 36.0001H18.6373C19.39 36.0001 20 36.6102 20 37.3627V43.6373C20 44.39 19.39 45.0001 18.6373 45.0001Z" fill="#CFDCE2"/>
<path d="M13 40.5001C13 40.7762 13.2239 41.0001 13.5 41.0001H17.5C17.7761 41.0001 18 40.7762 18 40.5001C18 40.2239 17.7761 40.0001 17.5 40.0001H13.5C13.2239 40.0001 13 40.2239 13 40.5001Z" fill="white"/>
<path d="M15.5 38.0001C15.2239 38.0001 15 38.2239 15 38.5001L15 42.5001C15 42.7762 15.2239 43.0001 15.5 43.0001C15.7761 43.0001 16 42.7762 16 42.5001L16 38.5001C16 38.2239 15.7761 38.0001 15.5 38.0001Z" fill="white"/>
<defs>
<linearGradient id="paint0_linear_1534_18927" x1="37.8513" y1="5.87624" x2="24.9065" y2="58.4244" gradientUnits="userSpaceOnUse">
<stop stop-color="#B9F3F2" stop-opacity="0"/>
<stop offset="1" stop-color="#73CAC8"/>
</linearGradient>
</defs>
</svg>
