<svg width="2650" height="2650" viewBox="0 0 2650 2650" fill="none" xmlns="http://www.w3.org/2000/svg">
<path d="M2461.85 601.39C2453.44 587.256 2444.61 573.3 2435.35 559.52C2312.55 377.465 2101.13 252.968 1893.16 196.682C1801.91 172.409 1708.17 158.733 1613.8 155.925C995.711 134.724 749.526 622.325 545.264 747.776C341.002 873.227 26.5002 1088.25 47.7002 1538.69C68.9002 1989.14 393.366 2413.19 1021.89 2439.69C1650.42 2466.19 1692.34 2183.07 2043.26 2078.29C2275.5 2008.96 2440.76 1774.81 2521.32 1558.41C2631.45 1263.41 2626.26 880.382 2461.85 601.39Z" fill="#FFDEE7"/>
<path opacity="0.7" d="M2461.85 601.39C2453.44 587.256 2444.61 573.3 2435.35 559.52C2312.55 377.465 2101.13 252.968 1893.16 196.682C1801.91 172.409 1708.17 158.733 1613.8 155.925C995.711 134.724 749.526 622.325 545.264 747.776C341.002 873.227 26.5002 1088.25 47.7002 1538.69C68.9002 1989.14 393.366 2413.19 1021.89 2439.69C1650.42 2466.19 1692.34 2183.07 2043.26 2078.29C2275.5 2008.96 2440.76 1774.81 2521.32 1558.41C2631.45 1263.41 2626.26 880.382 2461.85 601.39Z" fill="#FFDEE7"/>
<path d="M2324.37 643.905V626.468H2001.81V367.934H1991.32V626.468H1671.04V643.905H1991.32V883.253H1671.04V900.743H1991.32V1140.09H1671.04V1157.53H1991.32V1409.01H2001.81V1157.53H2324.37V1140.09H2001.81V900.743H2324.37V883.253H2001.81V643.905H2324.37Z" fill="#263238" stroke="#263238" stroke-miterlimit="10"/>
<path d="M1648.94 346.941V1436.99H2344.19V346.941H1648.94ZM2320.71 1400.16H1672.41V383.723H2320.71V1400.16Z" fill="#263238" stroke="#263238" stroke-miterlimit="10"/>
<path d="M1346.2 1716.78C1346.23 1716.71 1346.24 1716.64 1346.24 1716.57C1346.23 1716.5 1346.22 1716.43 1346.19 1716.37C1346.16 1716.3 1346.11 1716.24 1346.06 1716.2C1346.01 1716.15 1345.95 1716.11 1345.88 1716.09C1345.82 1716.06 1345.75 1716.05 1345.68 1716.05C1345.6 1716.06 1345.54 1716.07 1345.47 1716.1C1345.41 1716.13 1345.35 1716.17 1345.3 1716.23C1345.25 1716.28 1345.22 1716.34 1345.19 1716.41C1329.63 1753.7 1317.32 1792.27 1308.41 1831.68C1299.32 1871.1 1292.47 1911 1287.9 1951.2L1285.04 1981.41C1284.61 1986.44 1284.03 1991.48 1283.66 1996.51L1282.87 2011.67C1282.44 2021.79 1281.81 2031.91 1281.49 2042.04L1281.81 2072.41L1282.12 2087.56C1282.12 2092.6 1282.71 2097.69 1283.08 2102.72C1283.82 2112.79 1284.46 2122.92 1285.36 2132.99C1287.32 2153.13 1290.34 2173.11 1293.41 2193.09C1293.45 2193.21 1293.51 2193.31 1293.61 2193.38C1293.7 2193.46 1293.82 2193.51 1293.94 2193.51C1294.01 2193.52 1294.09 2193.51 1294.15 2193.49C1294.22 2193.47 1294.28 2193.43 1294.34 2193.38C1294.39 2193.32 1294.43 2193.26 1294.45 2193.19C1294.47 2193.13 1294.48 2193.05 1294.47 2192.98C1294.47 2182.86 1294 2172.84 1293.78 2162.72C1293.57 2152.6 1292.62 2142.68 1292.78 2132.61C1292.94 2122.54 1292.78 2112.47 1292.46 2102.46L1292.14 2087.41V2072.35V2042.25L1292.94 2012.2L1293.25 1997.15C1293.25 1992.11 1293.84 1987.13 1294.1 1982.09L1295.96 1952.04C1299.37 1912.02 1305.05 1872.23 1312.97 1832.85C1320.67 1793.27 1331.79 1754.43 1346.2 1716.78Z" fill="#263238"/>
<path d="M1350.49 1874.09C1350.53 1873.96 1350.52 1873.83 1350.46 1873.71C1350.4 1873.59 1350.3 1873.5 1350.18 1873.45C1350.11 1873.43 1350.04 1873.41 1349.97 1873.42C1349.9 1873.42 1349.83 1873.44 1349.76 1873.46C1349.7 1873.49 1349.64 1873.54 1349.59 1873.59C1349.55 1873.64 1349.51 1873.7 1349.49 1873.77C1332.31 1923.97 1320.87 1975.96 1315.41 2028.74C1312.76 2055.24 1309.79 2081.42 1309.42 2107.92C1308.79 2134.46 1309.73 2161 1312.23 2187.42C1312.26 2187.53 1312.32 2187.63 1312.4 2187.71C1312.49 2187.78 1312.59 2187.83 1312.7 2187.85C1312.77 2187.86 1312.84 2187.86 1312.91 2187.85C1312.97 2187.84 1313.04 2187.81 1313.09 2187.77C1313.15 2187.73 1313.19 2187.68 1313.23 2187.62C1313.26 2187.56 1313.28 2187.49 1313.29 2187.42C1316.36 2160.92 1318.22 2134.74 1320.07 2108.45C1321.93 2082.16 1322.19 2055.82 1323.89 2029.54C1327.49 1977 1336.37 1924.96 1350.39 1874.19L1350.49 1874.09Z" fill="#263238"/>
<path d="M1437.73 1929.47C1437.63 1929.37 1437.5 1929.31 1437.36 1929.31C1437.22 1929.31 1437.09 1929.37 1436.99 1929.47C1415.18 1943.47 1395.54 1960.59 1378.69 1980.29C1370.23 1990.25 1362.6 2000.88 1355.9 2012.09L1351.24 2020.94L1347.53 2030.17C1346.28 2033.19 1345.22 2036.29 1344.35 2039.44C1343.39 2042.62 1342.33 2045.69 1341.48 2048.87C1334.82 2074.04 1330.79 2099.83 1329.45 2125.83C1328.15 2151.69 1329.11 2177.62 1332.31 2203.32C1332.35 2203.43 1332.42 2203.54 1332.51 2203.61C1332.61 2203.69 1332.72 2203.73 1332.84 2203.74C1332.91 2203.75 1332.98 2203.74 1333.04 2203.72C1333.11 2203.7 1333.17 2203.67 1333.22 2203.62C1333.27 2203.58 1333.31 2203.52 1333.33 2203.46C1333.36 2203.4 1333.37 2203.33 1333.37 2203.26L1340.05 2126.57C1341.86 2101.2 1345.1 2075.95 1349.75 2050.94C1350.44 2047.81 1351.34 2044.85 1352.14 2041.77C1352.85 2038.71 1353.74 2035.68 1354.79 2032.71L1357.91 2023.86L1361.94 2015.48C1368.01 2004.32 1374.99 1993.69 1382.82 1983.68C1398.39 1963.37 1416.83 1945.42 1437.57 1930.42V1930.42C1437.66 1930.38 1437.73 1930.32 1437.79 1930.24C1437.85 1930.17 1437.89 1930.08 1437.91 1929.99C1437.92 1929.89 1437.91 1929.79 1437.88 1929.7C1437.85 1929.61 1437.8 1929.53 1437.73 1929.47V1929.47Z" fill="#263238"/>
<path d="M1395.49 2028C1384.17 2036.25 1375.07 2047.18 1368.99 2059.8C1362.58 2072.22 1357.59 2085.32 1354.1 2098.86C1353.09 2102.2 1352.24 2105.59 1351.5 2108.98L1349.12 2119.16C1347.86 2126.01 1346.99 2132.93 1346.52 2139.88C1346.52 2146.88 1346.25 2153.82 1346.52 2160.76C1347.02 2167.71 1347.93 2174.63 1349.22 2181.48C1349.26 2181.58 1349.31 2181.67 1349.38 2181.74C1349.46 2181.82 1349.55 2181.87 1349.65 2181.91C1349.72 2181.92 1349.79 2181.92 1349.86 2181.91C1349.93 2181.9 1349.99 2181.87 1350.05 2181.83C1350.11 2181.79 1350.16 2181.74 1350.2 2181.68C1350.24 2181.62 1350.27 2181.55 1350.28 2181.48C1351.89 2174.75 1353.13 2167.94 1353.99 2161.08C1355.05 2154.3 1356.11 2147.62 1356.91 2140.89C1357.7 2134.16 1358.76 2127.53 1359.29 2120.8C1359.82 2114.07 1360.72 2107.34 1362.21 2100.77C1364.54 2087.49 1368.34 2074.51 1373.55 2062.08C1378.25 2049.4 1385.87 2038.01 1395.81 2028.84C1395.85 2028.8 1395.89 2028.75 1395.92 2028.69C1395.94 2028.63 1395.96 2028.56 1395.96 2028.5C1395.96 2028.44 1395.94 2028.37 1395.92 2028.31C1395.89 2028.25 1395.85 2028.2 1395.81 2028.16C1395.72 2028.07 1395.61 2028.01 1395.49 2028V2028Z" fill="#263238"/>
<path d="M1273.17 2104.84C1270.3 2070.82 1264.69 2037.06 1259.39 2003.4C1254.09 1969.75 1248.15 1936.09 1242 1902.7C1235.85 1869.31 1228.96 1835.76 1221.7 1802.48C1221.73 1802.4 1221.74 1802.31 1221.72 1802.23C1221.71 1802.15 1221.68 1802.07 1221.63 1802C1221.58 1801.93 1221.52 1801.88 1221.44 1801.84C1221.37 1801.8 1221.28 1801.78 1221.2 1801.78C1221.12 1801.78 1221.03 1801.8 1220.96 1801.84C1220.88 1801.88 1220.82 1801.93 1220.77 1802C1220.72 1802.07 1220.69 1802.15 1220.68 1802.23C1220.66 1802.31 1220.67 1802.4 1220.7 1802.48C1226.53 1836.08 1231.77 1869.74 1236.6 1903.44C1241.42 1937.15 1246.51 1970.81 1250.8 2004.57C1255.09 2038.33 1258.22 2072.25 1262.41 2105.96L1274.86 2207.35C1274.89 2207.47 1274.96 2207.58 1275.05 2207.67C1275.15 2207.75 1275.27 2207.81 1275.39 2207.82C1275.54 2207.82 1275.68 2207.77 1275.79 2207.67C1275.89 2207.57 1275.96 2207.44 1275.98 2207.29C1276.35 2198.76 1276.35 2190.23 1276.56 2181.64C1276.77 2173.05 1276.19 2164.57 1276.08 2156.04C1275.92 2138.92 1274.44 2121.91 1273.17 2104.84Z" fill="#263238"/>
<path d="M1252.76 2104.37C1250.91 2090.86 1248.47 2077.45 1245.87 2064.09L1241.1 2044.22C1239.51 2037.59 1238.03 2030.97 1236.12 2024.39C1229.32 1997.98 1220.61 1972.1 1210.04 1946.96L1205.96 1937.58L1201.46 1928.41C1198.54 1922.26 1195.1 1916.38 1191.76 1910.39C1185.07 1898.48 1176.79 1887.54 1167.17 1877.85C1167.12 1877.8 1167.07 1877.76 1167.01 1877.74C1166.95 1877.71 1166.89 1877.7 1166.82 1877.7C1166.76 1877.7 1166.69 1877.71 1166.63 1877.74C1166.58 1877.76 1166.52 1877.8 1166.48 1877.85C1166.38 1877.95 1166.33 1878.08 1166.33 1878.22C1166.33 1878.36 1166.38 1878.49 1166.48 1878.59V1878.59C1175.45 1888.63 1183.01 1899.85 1188.95 1911.93C1191.92 1917.97 1195.04 1923.91 1197.59 1930.16L1201.62 1939.43L1205.17 1948.92C1214.58 1974.15 1222.17 2000.03 1227.85 2026.35C1230.92 2039.45 1233.15 2052.85 1235.54 2066.05L1238.72 2085.98C1239.88 2092.6 1241.31 2099.23 1242.21 2105.91C1244.33 2119.21 1246.82 2132.41 1249.1 2145.82C1251.38 2159.23 1253.61 2172.32 1256.47 2185.83C1256.49 2185.95 1256.55 2186.06 1256.63 2186.15C1256.72 2186.23 1256.83 2186.29 1256.95 2186.31C1257.09 2186.31 1257.23 2186.25 1257.34 2186.16C1257.45 2186.06 1257.52 2185.92 1257.53 2185.78C1257.53 2172.17 1257.21 2158.57 1256.58 2144.97C1255.78 2131.4 1254.14 2117.89 1252.76 2104.37Z" fill="#263238"/>
<path d="M1224.57 2106.11C1218.26 2088.2 1210.94 2070.71 1202.99 2053.59C1194.98 2036.48 1185.92 2019.88 1175.86 2003.88C1175.83 2003.8 1175.79 2003.74 1175.73 2003.69C1175.68 2003.63 1175.61 2003.59 1175.54 2003.57C1175.47 2003.54 1175.39 2003.53 1175.31 2003.54C1175.24 2003.55 1175.16 2003.57 1175.09 2003.61C1175.03 2003.65 1174.97 2003.7 1174.93 2003.76C1174.88 2003.83 1174.85 2003.9 1174.84 2003.98C1174.83 2004.05 1174.83 2004.13 1174.85 2004.2C1174.87 2004.28 1174.91 2004.35 1174.96 2004.41C1183.71 2021.02 1191.44 2038.16 1198.12 2055.71C1205.01 2073.09 1211.26 2090.8 1216.46 2108.71C1221.65 2126.62 1225.63 2144.91 1230.4 2162.93C1235.17 2180.95 1239.46 2199.13 1245.02 2217.36C1245.06 2217.46 1245.12 2217.55 1245.2 2217.62C1245.29 2217.69 1245.39 2217.73 1245.5 2217.73C1245.65 2217.73 1245.79 2217.68 1245.89 2217.58C1246 2217.48 1246.07 2217.35 1246.08 2217.2C1246.28 2198.18 1244.51 2179.2 1240.78 2160.54C1236.85 2142 1231.42 2123.79 1224.57 2106.11V2106.11Z" fill="#263238"/>
<path d="M1223.4 2165.64C1219.92 2154.48 1214.87 2143.88 1208.4 2134.15C1202.37 2124.19 1195.03 2115.08 1186.56 2107.07C1182.25 2103.15 1177.6 2099.6 1172.68 2096.47C1167.77 2093.32 1162.41 2090.92 1156.78 2089.37C1156.66 2089.35 1156.54 2089.37 1156.43 2089.42C1156.32 2089.48 1156.24 2089.58 1156.19 2089.69C1156.11 2089.78 1156.07 2089.9 1156.07 2090.03C1156.07 2090.16 1156.11 2090.28 1156.19 2090.38V2090.38C1166.24 2095.22 1175.15 2102.14 1182.32 2110.67C1189.57 2119.02 1195.68 2128.29 1200.5 2138.23C1205.8 2147.99 1208.35 2158.8 1212.85 2168.92C1214.81 2174.22 1216.77 2179.26 1219.11 2184.45C1221.01 2189.91 1223.29 2195.22 1225.94 2200.35V2200.35C1225.99 2200.43 1226.07 2200.5 1226.15 2200.54C1226.23 2200.59 1226.32 2200.61 1226.42 2200.62C1226.49 2200.62 1226.55 2200.62 1226.62 2200.6C1226.68 2200.58 1226.74 2200.54 1226.79 2200.5C1226.84 2200.45 1226.88 2200.4 1226.91 2200.33C1226.94 2200.27 1226.95 2200.21 1226.95 2200.14C1227.16 2194.32 1226.95 2188.49 1226.31 2182.7C1225.94 2176.92 1224.78 2171.25 1223.4 2165.64Z" fill="#263238"/>
<path d="M1225.52 1851.02C1208.47 1846.31 1193.05 1837.02 1180.9 1824.17C1168.76 1811.31 1160.36 1795.38 1156.62 1778.1C1143.74 1717.99 1185.24 1743.75 1148.03 1649.31C1110.83 1554.86 1119.41 1533.39 1132.13 1506.21C1144.85 1479.02 1152.17 1487.6 1163.61 1523.38C1175.06 1559.15 1216.61 1614.96 1232.51 1719.48C1248.41 1823.99 1225.52 1851.02 1225.52 1851.02Z" fill="#263238"/>
<path d="M1335.6 1749.48C1335.6 1749.48 1298.5 1736.6 1296.96 1666.48C1295.43 1596.36 1324.15 1610.67 1328.45 1523.38C1332.74 1436.09 1338.46 1374.56 1354.2 1373.13C1369.94 1371.7 1411.44 1416.06 1425.75 1513.37C1440.06 1610.67 1407.15 1675.07 1378.53 1703.69C1349.91 1732.31 1335.6 1749.48 1335.6 1749.48Z" fill="#263238"/>
<path d="M1205.49 1935.46C1205.49 1935.46 1196.9 1883.94 1179.73 1859.61C1162.56 1835.29 1125.35 1813.82 1101.02 1766.65C1076.7 1719.48 1049.51 1696.53 1050.94 1763.79C1052.37 1831.05 1082.42 1865.34 1119.84 1888.23C1157.26 1911.13 1205.49 1935.46 1205.49 1935.46Z" fill="#263238"/>
<path d="M1189.74 2024.18C1189.74 2024.18 1155.4 1958.35 1105.32 1909.7C1055.23 1861.05 1015.22 1836.72 1029.47 1861.05C1043.73 1885.37 1060.95 1883.94 1085.28 1926.87C1109.61 1969.8 1102.45 2001.07 1136.8 2025.61C1171.14 2050.15 1189.74 2024.18 1189.74 2024.18Z" fill="#263238"/>
<path d="M1185.45 2108.61C1184.02 2104.31 1182.59 2072.83 1133.94 2047.07C1085.28 2021.31 1039.49 2031.17 1045.21 2044.21C1050.94 2057.25 1080.99 2078.55 1111.04 2091.43C1141.09 2104.31 1185.45 2108.61 1185.45 2108.61Z" fill="#263238"/>
<path d="M1332.79 1938.32C1332.79 1938.32 1311.33 1911.13 1322.77 1853.89C1334.22 1796.65 1359.87 1810.96 1388.6 1780.91C1417.33 1750.86 1411.5 1746.62 1440.12 1715.13C1468.74 1683.65 1494.49 1666.48 1505.94 1679.36C1517.39 1692.24 1500.22 1732.36 1483.05 1755.2C1465.87 1778.04 1438.69 1789.49 1425.7 1817.9C1412.72 1846.31 1418.55 1892.1 1385.63 1913.78C1352.72 1935.45 1332.79 1938.32 1332.79 1938.32Z" fill="#263238"/>
<path d="M1404.5 1954.06C1404.5 1954.06 1456.02 1895.39 1493.22 1852.46C1530.43 1809.53 1544.74 1776.67 1546.22 1805.23C1547.71 1833.8 1559.1 1856.75 1529.05 1893.96C1499 1931.16 1404.5 1954.06 1404.5 1954.06Z" fill="#263238"/>
<path d="M1377.15 2048.51C1377.15 2048.51 1375.72 2025.61 1457.29 1972.67C1538.86 1919.72 1573.2 1909.7 1564.61 1931.17C1556.03 1952.63 1520.25 1974.1 1481.62 2012.73C1442.98 2051.37 1377.15 2048.51 1377.15 2048.51Z" fill="#263238"/>
<path d="M1228.91 1844.93C1228.91 1844.93 1209.78 1742.32 1189.74 1669.34C1169.71 1596.36 1156.83 1552 1156.83 1552" stroke="#263238" stroke-linecap="round" stroke-linejoin="round"/>
<path d="M1332.37 1750.54C1332.37 1750.54 1367.14 1639.24 1378.58 1572.04C1390.03 1504.83 1377.15 1454.7 1371.43 1424.64" stroke="#263238" stroke-linecap="round" stroke-linejoin="round"/>
<path d="M1200.98 1933.34C1185.57 1906.83 1167.93 1881.69 1148.25 1858.18C1116.76 1821.08 1092.44 1800.94 1078.13 1765.22" stroke="#263238" stroke-linecap="round" stroke-linejoin="round"/>
<path d="M1332.79 1938.32C1332.79 1938.32 1344.24 1869.42 1371.43 1833.85C1398.62 1798.29 1452.99 1742.32 1474.46 1706.65" stroke="#263238" stroke-linecap="round" stroke-linejoin="round"/>
<path d="M1181.9 2107.02C1181.9 2107.02 1133.78 2075.69 1099.43 2058.52" stroke="#263238" stroke-linecap="round" stroke-linejoin="round"/>
<path d="M1340.32 2410.49H1240.89L1191.18 2161.55H1390.03L1340.32 2410.49Z" fill="#263238" stroke="#263238" stroke-linecap="round" stroke-linejoin="round"/>
<path d="M343.44 2410.5H2596.89" stroke="#263238" stroke-miterlimit="10"/>
<path d="M165.254 2410.5H305.015" stroke="#263238" stroke-miterlimit="10"/>
<path d="M1145.54 885.101V718.151H1130.44V504.508C1130.44 487.208 1127.04 470.076 1120.43 454.09C1113.81 438.105 1104.11 423.58 1091.88 411.344C1079.65 399.109 1065.13 389.403 1049.15 382.781C1033.16 376.158 1016.03 372.75 998.732 372.75H291.076C256.132 372.75 222.619 386.632 197.909 411.341C173.2 436.05 159.318 469.564 159.318 504.508V2186.89C159.318 2221.83 173.2 2255.34 197.909 2280.05C222.619 2304.76 256.132 2318.65 291.076 2318.65H998.732C1016.03 2318.65 1033.16 2315.24 1049.15 2308.61C1065.13 2301.99 1079.65 2292.29 1091.88 2280.05C1104.11 2267.82 1113.81 2253.29 1120.43 2237.3C1127.04 2221.32 1130.44 2204.19 1130.44 2186.89V1027.41H1145.54V928.773H1130.44V885.101H1145.54Z" fill="#707070" stroke="#263238" stroke-linejoin="round"/>
<path d="M975.624 2300.46H314.131C277.121 2300.46 241.626 2285.76 215.455 2259.59C189.285 2233.42 174.582 2197.92 174.582 2160.91V530.475C174.582 453.36 214.12 390.873 314.131 390.873H975.624C1067.37 389.654 1115.23 453.36 1115.23 530.475V2160.91C1115.23 2179.24 1111.61 2197.39 1104.6 2214.33C1097.58 2231.26 1087.3 2246.65 1074.33 2259.61C1061.37 2272.57 1045.98 2282.85 1029.04 2289.86C1012.11 2296.87 993.955 2300.47 975.624 2300.46V2300.46Z" fill="#263238" stroke="#263238" stroke-linejoin="round"/>
<path d="M696.102 412.337L695.837 413.344C688.099 442.176 670.291 461.044 650.575 461.044H639.233C619.517 461.044 601.709 442.388 593.971 413.344V412.337L317.947 411.383C302.664 411.335 287.521 414.302 273.387 420.115C259.252 425.928 246.404 434.473 235.577 445.26C224.751 456.048 216.159 468.865 210.294 482.978C204.43 497.091 201.407 512.223 201.4 527.506L201.029 2143.69C201.029 2219 259.965 2280.06 332.734 2280.06H957.286C1030.06 2280.06 1089.04 2219 1089.04 2143.69V515.899C1089.05 489.393 1078.6 463.955 1059.96 445.103C1041.33 426.251 1016.01 415.506 989.51 415.199L696.102 412.337Z" fill="white" stroke="#263238" stroke-miterlimit="10"/>
<path d="M1088.94 545.264V515.902C1088.94 489.396 1078.49 463.957 1059.86 445.106C1041.22 426.254 1015.91 415.509 989.404 415.202L696.102 412.181L695.837 413.188C688.099 442.02 670.291 460.888 650.575 460.888H639.233C619.517 460.888 601.709 442.232 593.971 413.188V412.181L317.947 411.227C302.651 411.178 287.495 414.151 273.35 419.974C259.205 425.797 246.35 434.356 235.521 445.16C224.692 455.964 216.104 468.801 210.248 482.932C204.393 497.064 201.386 512.213 201.4 527.509V545.264H1088.94Z" fill="#DBDBDB" stroke="#263238" stroke-miterlimit="10"/>
<path d="M654.55 409.158C654.55 406.703 653.822 404.303 652.456 402.262C651.091 400.221 649.151 398.632 646.882 397.695C644.613 396.758 642.116 396.515 639.709 396.998C637.302 397.481 635.092 398.667 633.36 400.407C631.628 402.147 630.451 404.362 629.978 406.771C629.506 409.18 629.759 411.675 630.706 413.941C631.652 416.206 633.25 418.139 635.297 419.495C637.343 420.852 639.746 421.57 642.201 421.56C643.827 421.56 645.438 421.239 646.939 420.615C648.441 419.991 649.805 419.076 650.952 417.924C652.1 416.772 653.008 415.404 653.626 413.9C654.243 412.395 654.557 410.784 654.55 409.158V409.158Z" fill="#707070"/>
<path d="M288.32 440.642C288.32 453.203 274.275 457.708 274.222 467.142V467.778H287.843V471.965H269.664V468.52C269.664 455.111 283.709 452.62 283.709 440.854C283.709 436.561 282.278 434.335 278.833 434.335C275.388 434.335 273.957 436.773 273.957 440.43V444.087H269.664V440.748C269.664 434.388 272.526 430.148 278.939 430.148C285.352 430.148 288.32 434.6 288.32 440.642Z" fill="#263238"/>
<path d="M311.057 440.594V441.654C311.236 443.468 310.815 445.291 309.857 446.842C308.9 448.393 307.459 449.587 305.757 450.24C307.47 450.878 308.921 452.068 309.881 453.624C310.841 455.179 311.255 457.009 311.057 458.826V462.006C311.057 468.366 308.089 472.606 301.676 472.606C295.263 472.606 292.348 468.472 292.348 462.006V459.197H296.8V462.324C296.8 466.034 298.337 468.313 301.676 468.313C305.015 468.313 306.499 466.087 306.499 461.9V458.72C306.499 454.586 304.803 452.625 301.199 452.519H298.708V448.385H301.411C302.133 448.393 302.848 448.244 303.506 447.949C304.164 447.654 304.751 447.219 305.225 446.674C305.699 446.13 306.048 445.489 306.25 444.796C306.452 444.103 306.501 443.375 306.393 442.661V440.806C306.393 436.513 304.909 434.34 301.57 434.34C298.231 434.34 296.694 436.619 296.694 440.382V442.502H292.348V440.594C292.348 434.287 295.316 429.994 301.676 429.994C308.036 429.994 311.057 434.287 311.057 440.594Z" fill="#263238"/>
<path d="M320.014 443.771V449.495H315.562V443.771H320.014ZM320.014 466.349V472.073H315.562V466.402L320.014 466.349Z" fill="#263238"/>
<path d="M329.342 447.481C329.958 446.391 330.862 445.492 331.957 444.884C333.051 444.276 334.293 443.982 335.544 444.036C340.844 444.036 343.229 447.958 343.229 453.894V462.003C343.229 468.363 340.208 472.603 333.901 472.603C327.594 472.603 324.573 468.469 324.573 462.003V459.247H328.865V462.321C328.865 466.031 330.456 468.31 333.742 468.31C337.028 468.31 338.618 466.031 338.618 462.321V454.265C338.618 450.502 337.081 448.276 333.742 448.276C333.139 448.248 332.537 448.341 331.973 448.552C331.408 448.763 330.892 449.087 330.455 449.503C330.019 449.919 329.672 450.42 329.435 450.974C329.199 451.529 329.077 452.125 329.078 452.728V453.629H324.732L325.844 430.574H342.222V434.602H330.032L329.342 447.481Z" fill="#263238"/>
<path d="M366.336 440.533V441.328H361.99V440.268C361.99 436.505 360.453 434.332 357.061 434.332C353.669 434.332 351.761 436.558 351.761 441.01V450.497C352.241 449.132 353.152 447.959 354.357 447.156C355.561 446.353 356.994 445.963 358.439 446.045C363.739 446.045 366.177 449.914 366.177 455.903V462.157C366.177 468.517 363.05 472.757 356.69 472.757C350.33 472.757 347.15 468.623 347.15 462.157V440.957C347.15 434.385 350.118 430.357 356.69 430.357C363.262 430.357 366.336 434.173 366.336 440.533ZM352.026 456.062V462.316C352.026 466.026 353.563 468.305 356.955 468.305C360.347 468.305 361.884 466.026 361.884 462.316V456.062C361.884 452.352 360.294 450.073 356.955 450.073C353.616 450.073 352.026 452.352 352.026 456.062V456.062Z" fill="#263238"/>
<path d="M819.486 442.395H807.773V471.704H819.486V442.395Z" fill="#263238"/>
<path d="M835.122 436.506H823.409V471.698H835.122V436.506Z" fill="#263238"/>
<path d="M850.757 432.322H839.043V471.648H850.757V432.322Z" fill="#263238"/>
<path d="M866.338 425.057H854.625V471.644H866.338V425.057Z" fill="#263238"/>
<path d="M1011.4 470.854H941.068V427.871H1011.4V470.854ZM944.99 466.985H1007.48V431.793H944.99V466.985Z" fill="#263238"/>
<path d="M987.973 436.029H950.873V462.688H987.973V436.029Z" fill="#263238"/>
<path d="M1017.81 444.301H1008.96V454.424H1017.81V444.301Z" fill="#263238"/>
<path d="M915.31 461.526C914.825 461.536 914.347 461.407 913.932 461.155C899.622 452.622 890.188 460.519 889.764 460.89C889.278 461.372 888.621 461.643 887.936 461.643C887.251 461.643 886.594 461.372 886.107 460.89C885.622 460.394 885.35 459.728 885.35 459.035C885.35 458.341 885.622 457.675 886.107 457.18C886.637 456.756 898.721 446.58 916.423 457.18C916.897 457.485 917.261 457.932 917.463 458.458C917.664 458.983 917.694 459.56 917.546 460.103C917.398 460.646 917.082 461.129 916.641 461.48C916.201 461.831 915.661 462.033 915.098 462.056L915.31 461.526Z" fill="#263238"/>
<path d="M920.61 452.678C920.125 452.689 919.647 452.56 919.232 452.307C898.562 440.011 884.623 451.936 884.517 452.307C883.986 452.67 883.34 452.826 882.702 452.748C882.063 452.67 881.475 452.362 881.047 451.882C880.619 451.402 880.38 450.782 880.375 450.139C880.37 449.495 880.599 448.872 881.019 448.385C881.019 448.385 897.979 433.863 921.935 448.067C922.234 448.242 922.495 448.475 922.703 448.752C922.91 449.028 923.06 449.344 923.144 449.68C923.228 450.016 923.244 450.365 923.191 450.707C923.138 451.049 923.018 451.377 922.836 451.671C922.579 452.013 922.241 452.284 921.852 452.46C921.463 452.636 921.036 452.711 920.61 452.678Z" fill="#263238"/>
<path d="M925.38 442.442C924.913 442.445 924.454 442.317 924.055 442.071C897.873 426.489 880.436 441.17 879.694 442.071C879.453 442.318 879.164 442.514 878.845 442.648C878.527 442.782 878.185 442.851 877.839 442.851C877.494 442.851 877.152 442.782 876.833 442.648C876.515 442.514 876.226 442.318 875.984 442.071C875.755 441.817 875.58 441.519 875.469 441.195C875.358 440.871 875.314 440.528 875.339 440.186C875.363 439.845 875.457 439.512 875.613 439.207C875.77 438.903 875.986 438.633 876.249 438.414C876.249 438.414 897.131 420.5 926.758 438.096C927.351 438.459 927.778 439.04 927.946 439.714C928.115 440.388 928.012 441.101 927.659 441.7C927.367 441.998 927.007 442.221 926.611 442.35C926.214 442.479 925.792 442.511 925.38 442.442V442.442Z" fill="#263238"/>
<path d="M907.413 465.927C907.423 467.248 907.038 468.543 906.306 469.643C905.575 470.744 904.531 471.601 903.309 472.103C902.087 472.606 900.743 472.732 899.449 472.465C898.155 472.197 896.97 471.549 896.047 470.603C895.124 469.658 894.505 468.458 894.27 467.157C894.034 465.857 894.193 464.516 894.725 463.307C895.258 462.097 896.14 461.075 897.258 460.371C898.376 459.666 899.68 459.313 901 459.355C902.716 459.396 904.347 460.107 905.545 461.335C906.743 462.563 907.414 464.211 907.413 465.927Z" fill="#263238"/>
<path d="M644.11 1153.6C760.71 1155.4 857.859 1199.6 934.444 1288C936.908 1290.68 938.804 1293.83 940.017 1297.26C941.23 1300.69 941.736 1304.33 941.503 1307.96C941.27 1311.59 940.304 1315.14 938.662 1318.39C937.021 1321.63 934.738 1324.51 931.953 1326.85C929.258 1329.16 926.127 1330.91 922.745 1331.99C919.363 1333.07 915.799 1333.45 912.265 1333.13C908.73 1332.8 905.297 1331.77 902.17 1330.09C899.042 1328.41 896.283 1326.12 894.058 1323.36C866.73 1291.06 833.509 1264.26 796.167 1244.39C738.743 1213.88 673.476 1201.33 608.834 1208.37C544.191 1215.41 483.156 1241.72 433.647 1283.87C419.808 1296.17 406.678 1309.25 394.321 1323.04C392.014 1325.83 389.177 1328.14 385.972 1329.83C382.768 1331.52 379.26 1332.56 375.652 1332.88C372.045 1333.21 368.408 1332.81 364.953 1331.72C361.498 1330.63 358.294 1328.87 355.525 1326.54C352.792 1324.15 350.569 1321.23 348.988 1317.96C347.407 1314.69 346.501 1311.14 346.323 1307.52C346.145 1303.89 346.699 1300.27 347.952 1296.86C349.205 1293.45 351.132 1290.33 353.617 1287.69C414.915 1214.87 501.392 1167.81 595.827 1155.88C603.459 1154.87 611.144 1154.02 618.829 1153.7C626.514 1153.38 635.683 1153.6 644.11 1153.6Z" fill="#263238"/>
<path d="M653.756 1261.67C727.426 1263.58 796.856 1295.01 851.128 1357.97C853.626 1360.61 855.554 1363.74 856.792 1367.16C858.03 1370.58 858.55 1374.22 858.322 1377.85C858.093 1381.48 857.12 1385.02 855.463 1388.26C853.806 1391.49 851.5 1394.35 848.69 1396.66C845.973 1399.02 842.806 1400.8 839.379 1401.89C835.953 1402.99 832.34 1403.37 828.76 1403.03C825.179 1402.68 821.707 1401.61 818.555 1399.87C815.403 1398.14 812.636 1395.79 810.424 1392.95C783.213 1360.02 746.604 1336.17 705.484 1324.58C620.101 1301.47 545.901 1322.57 483.891 1385.9C481.559 1388.29 479.439 1390.83 477.266 1393.27C474.969 1396 472.152 1398.25 468.979 1399.88C465.806 1401.51 462.341 1402.49 458.784 1402.78C455.228 1403.06 451.651 1402.63 448.261 1401.51C444.871 1400.4 441.737 1398.62 439.04 1396.29C436.343 1393.95 434.136 1391.11 432.55 1387.91C430.963 1384.71 430.027 1381.23 429.796 1377.67C429.566 1374.11 430.045 1370.54 431.206 1367.17C432.368 1363.8 434.188 1360.69 436.562 1358.02C460.521 1329.61 490.071 1306.42 523.376 1289.92C561.483 1271 601.922 1261.83 653.756 1261.67Z" fill="#263238"/>
<path d="M774.913 1445.89C774.936 1451.35 773.301 1456.68 770.225 1461.19C767.149 1465.69 762.777 1469.16 757.688 1471.12C752.53 1473.17 746.86 1473.54 741.478 1472.19C736.096 1470.84 731.273 1467.83 727.69 1463.6C716.502 1450.39 702.431 1439.93 686.562 1433.02C642.36 1414.25 593.6 1425.7 560.687 1462.8C557.367 1467.03 552.82 1470.14 547.667 1471.68C542.515 1473.23 537.011 1473.14 531.908 1471.44C527.679 1470.12 523.843 1467.77 520.741 1464.6C517.639 1461.44 515.367 1457.56 514.129 1453.3C512.891 1449.05 512.724 1444.55 513.644 1440.22C514.564 1435.88 516.541 1431.84 519.4 1428.46C534.61 1410.17 553.666 1395.46 575.212 1385.37C596.757 1375.29 620.262 1370.08 644.05 1370.12C667.838 1370.16 691.325 1375.45 712.836 1385.61C734.347 1395.76 753.353 1410.54 768.5 1428.88C771.8 1434 774.47 1439.5 776.45 1445.26L774.913 1445.89Z" fill="#263238"/>
<path d="M644.056 1587.35C633.346 1587.38 622.868 1584.23 613.952 1578.3C605.035 1572.36 598.081 1563.92 593.973 1554.03C589.865 1544.13 588.787 1533.25 590.877 1522.74C592.966 1512.24 598.129 1502.59 605.709 1495.02C613.29 1487.46 622.947 1482.32 633.455 1480.25C643.964 1478.18 654.85 1479.28 664.733 1483.4C674.615 1487.53 683.049 1494.5 688.965 1503.43C694.88 1512.36 698.01 1522.84 697.957 1533.55C697.964 1540.63 696.574 1547.64 693.866 1554.17C691.159 1560.71 687.187 1566.65 682.179 1571.65C677.171 1576.64 671.226 1580.6 664.684 1583.3C658.141 1585.99 651.132 1587.37 644.056 1587.35V1587.35Z" fill="#263238"/>
<path d="M644.374 964.602C568.142 964.591 493.618 987.188 430.229 1029.53C366.839 1071.88 317.431 1132.07 288.253 1202.5C259.076 1272.93 251.439 1350.43 266.308 1425.2C281.178 1499.96 317.886 1568.64 371.791 1622.55C425.696 1676.45 494.375 1713.16 569.143 1728.03C643.912 1742.9 721.41 1735.26 791.838 1706.09C862.266 1676.91 922.459 1627.5 964.805 1564.11C1007.15 1500.72 1029.75 1426.2 1029.74 1349.96C1029.61 1247.8 988.97 1149.85 916.728 1077.61C844.485 1005.37 746.54 964.728 644.374 964.602V964.602ZM311.958 1350.18C311.873 1285.6 330.612 1222.4 365.881 1168.3C401.15 1114.21 451.421 1071.57 510.544 1045.59C569.667 1019.62 635.078 1011.44 698.776 1022.06C762.474 1032.67 821.697 1061.62 869.2 1105.37L399.567 1574.79C343.196 1513.58 311.921 1433.39 311.958 1350.18V1350.18ZM644.374 1682.59C569.6 1682.64 497.018 1657.34 438.469 1610.83L904.869 1144.43C943.628 1193.39 967.801 1252.28 974.617 1314.35C981.432 1376.42 970.613 1439.15 943.4 1495.35C916.188 1551.55 873.685 1598.94 820.766 1632.09C767.848 1665.24 706.658 1682.8 644.215 1682.75L644.374 1682.59Z" fill="#263238"/>
<path d="M2265.75 2410.49H2215.51L2204.75 2290.93H2276.51L2265.75 2410.49Z" fill="#263238" stroke="#263238" stroke-miterlimit="10"/>
<path d="M2474.99 2410.49H2424.75L2413.99 2290.93H2485.75L2474.99 2410.49Z" fill="#263238" stroke="#263238" stroke-miterlimit="10"/>
<path d="M1972.82 2410.49H1922.57L1911.87 2290.93H1983.58L1972.82 2410.49Z" fill="#263238" stroke="#263238" stroke-miterlimit="10"/>
<path d="M1748.63 2410.49H1698.44L1687.68 2290.93H1759.39L1748.63 2410.49Z" fill="#263238" stroke="#263238" stroke-miterlimit="10"/>
<path d="M1988.4 1520.56H2510.56C2510.56 1520.56 2512.62 1702.09 2485.75 1830.61C2458.88 1959.14 2425.97 2036.84 2425.97 2036.84H1929.78C1929.78 2036.84 2003.4 1752.55 1988.4 1520.56Z" fill="white" stroke="#263238" stroke-miterlimit="10"/>
<path d="M2205.12 1548.29C2159.33 1544.68 2141.15 1535.46 2106.91 1516.49C2062.34 1492.05 2052.8 1508.32 2055.98 1532.76C2059.16 1557.19 2012.67 1718.26 2002.98 1799.35C1993.28 1880.44 1996.56 1924.06 1996.56 1924.06C1996.56 1924.06 1967.94 1948.49 1987.02 1956.6C1999.3 1961.69 2012.12 1965.34 2025.24 1967.46H2394.43C2394.43 1967.46 2460.05 1630.33 2466.41 1576.11C2472.77 1521.89 2444.15 1516.49 2428.19 1524.59C2412.24 1532.7 2409.11 1538.16 2386.8 1540.87C2334.65 1547.6 2267.87 1553.16 2205.12 1548.29Z" fill="#263238"/>
<path d="M2086.24 1553.75C2095.79 1543.03 2102.51 1530.09 2105.8 1516.12C2101.34 1513.73 2097.26 1511.77 2093.5 1510.18C2091.05 1523.22 2085.08 1535.33 2076.22 1545.21C2069.61 1553.24 2061.42 1559.83 2052.16 1564.56C2051.21 1569.38 2050.15 1574.63 2048.98 1580.46C2063.61 1575.13 2076.5 1565.89 2086.24 1553.75V1553.75Z" fill="white"/>
<path d="M2416.8 1659.22C2393.43 1686.67 2394.33 1711.05 2395.18 1734.69C2396.02 1756.74 2396.77 1777.51 2376.73 1801.1C2356.7 1824.68 2335.98 1827.18 2314.09 1829.93C2290.66 1832.79 2266.39 1835.81 2243.07 1863.27C2219.75 1890.72 2220.54 1915.1 2221.44 1938.69C2222.11 1948.35 2221.84 1958.06 2220.65 1967.68H2234C2235.01 1957.89 2235.21 1948.03 2234.59 1938.21C2233.79 1916.16 2233 1895.33 2253.08 1871.8C2273.17 1848.27 2293.79 1845.67 2315.73 1842.97C2339.16 1840.11 2363.43 1837.09 2386.75 1809.63C2410.07 1782.18 2409.22 1757.8 2408.37 1734.16C2407.53 1712.11 2406.78 1691.28 2426.87 1667.75C2434.46 1658.51 2444.17 1651.23 2455.17 1646.55C2456.07 1641.25 2456.97 1636.38 2457.82 1631.55C2441.71 1636.51 2427.44 1646.14 2416.8 1659.22Z" fill="white"/>
<path d="M2041.72 1961.74C2065.2 1958.82 2089.42 1955.8 2112.79 1928.35C2136.16 1900.89 2135.26 1876.51 2134.42 1852.93C2133.57 1830.88 2132.83 1810.05 2152.86 1786.52C2172.89 1762.99 2193.62 1760.39 2215.51 1757.69C2238.93 1754.77 2263.21 1751.81 2286.53 1724.35C2309.85 1696.9 2309.05 1672.46 2308.15 1648.88C2307.35 1626.83 2306.56 1606 2326.65 1582.47C2346.73 1558.94 2367.4 1556.34 2389.29 1553.64C2411.18 1550.94 2433.07 1548.34 2454.69 1526.4C2450.51 1523.28 2445.39 1521.67 2440.17 1521.84C2428.19 1531.62 2413.59 1537.65 2398.2 1539.17C2394.49 1540.01 2390.74 1540.65 2386.96 1541.08L2371.06 1542.93C2349.65 1546.13 2330.23 1557.26 2316.63 1574.1C2293.2 1601.6 2294.1 1625.98 2295.01 1649.57C2295.8 1671.62 2296.6 1692.45 2276.51 1716.03C2256.42 1739.62 2235.8 1742.11 2213.86 1744.81C2190.44 1747.72 2166.16 1750.69 2142.84 1778.15C2119.52 1805.6 2120.37 1830.03 2121.22 1853.62C2122.07 1875.67 2122.81 1896.5 2102.77 1920.03C2082.74 1943.56 2062.02 1946.16 2040.13 1948.86C2024.74 1949.86 2009.67 1953.74 1995.71 1960.31C2002.65 1962.73 2009.73 1964.72 2016.91 1966.24C2025.06 1964.13 2033.35 1962.62 2041.72 1961.74V1961.74Z" fill="white"/>
<path d="M2012.62 1843.07C2035.99 1815.62 2035.09 1791.24 2034.25 1767.65C2033.45 1745.55 2032.66 1724.78 2052.74 1701.19C2072.83 1677.61 2093.45 1675.11 2115.34 1672.41C2138.76 1669.5 2163.04 1666.48 2186.41 1639.02C2209.78 1611.57 2208.88 1587.19 2208.03 1563.6C2208.03 1558.3 2207.66 1553.48 2207.71 1548.44H2205.12L2194.52 1547.44C2194.52 1553.11 2194.52 1558.67 2194.78 1564.24C2195.63 1586.29 2196.37 1607.12 2176.34 1630.65C2156.3 1654.18 2135.58 1656.78 2113.69 1659.48C2090.27 1662.39 2065.99 1665.36 2042.62 1692.82C2019.25 1720.27 2020.15 1744.65 2021.05 1768.29C2021.84 1790.34 2022.59 1811.17 2002.55 1834.7C2001.44 1836.02 2000.33 1837.24 1999.16 1838.41C1998.63 1845.14 1998.15 1851.5 1997.78 1857.43C2003.23 1853.19 2008.2 1848.37 2012.62 1843.07Z" fill="white"/>
<path d="M2205.12 1548.29C2159.33 1544.68 2141.15 1535.46 2106.91 1516.49C2062.34 1492.05 2052.8 1508.32 2055.98 1532.76C2059.16 1557.19 2012.67 1718.26 2002.98 1799.35C1993.28 1880.44 1996.56 1924.06 1996.56 1924.06C1996.56 1924.06 1967.94 1948.49 1987.02 1956.6C1999.3 1961.69 2012.12 1965.34 2025.24 1967.46H2394.43C2394.43 1967.46 2460.05 1630.33 2466.41 1576.11C2472.77 1521.89 2444.15 1516.49 2428.19 1524.59C2412.24 1532.7 2409.11 1538.16 2386.8 1540.87C2334.65 1547.6 2267.87 1553.16 2205.12 1548.29Z" stroke="#263238" stroke-miterlimit="10"/>
<path d="M1988.4 1520.56H1958.88C1953.53 1520.56 1948.33 1522.37 1944.12 1525.68C1939.92 1529 1936.96 1533.64 1935.72 1538.85L1899.04 1692.55C1892.26 1721.06 1869.04 1803.21 1843.5 1817.58C1827.81 1826.38 1810.13 1830.99 1792.14 1830.99H1681.48L1728.54 2312.07H1929.94L1982.94 1546.06C1983.12 1544.3 1983.12 1542.52 1982.94 1540.76H1988.93L1988.4 1520.56Z" fill="white" stroke="#263238" stroke-miterlimit="10"/>
<path d="M1711 1830.93H1821.72C1839.7 1830.93 1857.38 1826.32 1873.07 1817.52V1817.52C1898.62 1803.16 1921.78 1721.01 1928.62 1692.5L1965.24 1538.8C1966.49 1533.59 1969.45 1528.96 1973.65 1525.64C1977.85 1522.33 1983.05 1520.52 1988.4 1520.51V1520.51C1991.66 1520.51 1994.89 1521.18 1997.89 1522.48C2000.88 1523.78 2003.57 1525.69 2005.8 1528.07C2008.03 1530.46 2009.74 1533.28 2010.83 1536.35C2011.92 1539.43 2012.37 1542.7 2012.14 1545.95L1957.82 2312.01H1756.42L1711 1830.93Z" fill="white" stroke="#263238" stroke-miterlimit="10"/>
<path d="M2183.81 2312.28L2195.31 1967.67L1733.63 1963.59L1745.18 2312.28H2183.81Z" fill="white" stroke="#263238" stroke-miterlimit="10"/>
<path d="M2540.08 1520.56H2510.56C2505.2 1520.57 2500.01 1522.38 2495.81 1525.69C2491.61 1529.01 2488.64 1533.64 2487.4 1538.85L2450.72 1692.55C2443.94 1721.06 2420.77 1803.21 2395.18 1817.58C2379.49 1826.38 2361.81 1831 2343.82 1830.99H2233.15L2252.5 2312.01H2479.45L2534.3 1546C2534.5 1544.24 2534.5 1542.47 2534.3 1540.7H2540.29L2540.08 1520.56Z" fill="white" stroke="#263238" stroke-miterlimit="10"/>
<path d="M2262.68 1830.93H2373.39C2391.38 1830.93 2409.06 1826.32 2424.75 1817.52C2450.3 1803.16 2473.51 1721.01 2480.29 1692.5L2516.97 1538.8C2518.21 1533.6 2521.16 1528.96 2525.35 1525.65C2529.54 1522.33 2534.73 1520.52 2540.08 1520.51V1520.51C2543.34 1520.5 2546.58 1521.17 2549.57 1522.47C2552.57 1523.76 2555.27 1525.67 2557.5 1528.05C2559.72 1530.44 2561.44 1533.26 2562.53 1536.34C2563.61 1539.42 2564.05 1542.69 2563.82 1545.95L2509.97 2300.19C2509.73 2303.37 2508.31 2306.33 2505.98 2308.51C2503.65 2310.68 2500.59 2311.89 2497.41 2311.91H2280.75L2262.68 1830.93Z" fill="white" stroke="#263238" stroke-miterlimit="10"/>
<path d="M2195.31 1865.6L2183.6 2312.28H2280.54L2297.39 1865.6C2297.39 1861.04 2296.49 1856.53 2294.75 1852.32C2293 1848.11 2290.44 1844.29 2287.22 1841.07C2284 1837.85 2280.17 1835.3 2275.96 1833.56C2271.75 1831.82 2267.23 1830.93 2262.68 1830.93H2230.03C2225.47 1830.93 2220.96 1831.82 2216.75 1833.56C2212.54 1835.3 2208.71 1837.85 2205.48 1841.07C2202.26 1844.29 2199.7 1848.11 2197.96 1852.32C2196.21 1856.53 2195.31 1861.04 2195.31 1865.6V1865.6Z" fill="white" stroke="#263238" stroke-miterlimit="10"/>
<path d="M1632.08 1865.6L1648.72 2312.28H1745.66L1734.11 1865.6C1734.11 1856.4 1730.45 1847.59 1723.95 1841.09C1717.45 1834.59 1708.64 1830.93 1699.44 1830.93H1666.8C1662.24 1830.93 1657.73 1831.82 1653.52 1833.56C1649.3 1835.3 1645.48 1837.85 1642.25 1841.07C1639.03 1844.29 1636.47 1848.11 1634.73 1852.32C1632.98 1856.53 1632.08 1861.04 1632.08 1865.6V1865.6Z" fill="white" stroke="#263238" stroke-miterlimit="10"/>
<path d="M1735.96 2115.91H2190.91" stroke="#263238" stroke-miterlimit="10"/>
<path d="M1513.41 1522.31C1513.41 1522.31 1471.33 1756.15 1462.11 1795.69C1452.89 1835.23 1430.31 2036.78 1430.31 2086.87C1430.31 2136.95 1434.23 2288.27 1434.23 2288.27C1434.23 2288.27 1417.11 2296.17 1417.11 2302.74C1417.11 2309.31 1430.31 2351.5 1430.31 2351.5L1508.01 2380.49C1508.01 2380.49 1523.91 2343.39 1525.13 2330.4C1526.35 2317.42 1515.91 2311.96 1515.91 2289.54C1515.91 2267.12 1555.44 2006.31 1567.32 1962.85C1579.19 1919.39 1613.43 1788.96 1620 1777.08C1626.57 1765.21 1659.54 1678.29 1659.54 1678.29L1677.98 1687.51C1677.98 1687.51 1689.8 1961.52 1696.42 1978.64C1703.05 1995.76 1791.4 2274.75 1791.4 2274.75C1791.4 2274.75 1776.93 2281.33 1786.1 2297.17C1795.27 2313.02 1811.12 2348.53 1811.12 2348.53C1811.12 2348.53 1825.64 2328.76 1842.92 2324.84C1860.19 2320.92 1889.03 2337.98 1889.03 2337.98C1889.03 2337.98 1906.14 2298.45 1902.17 2280.05C1898.19 2261.66 1880.97 2229.97 1879.8 2220.75C1878.64 2211.53 1842.7 1945.89 1842.7 1945.89C1842.7 1945.89 1851.93 1574.36 1851.93 1549.34C1851.43 1532.27 1848.32 1515.38 1842.7 1499.26C1787.43 1518.22 1729.77 1529.32 1671.41 1532.22C1577.86 1536.15 1526.51 1497.99 1526.51 1497.99L1513.41 1522.31Z" fill="#263238" stroke="#263238" stroke-miterlimit="10"/>
<path d="M1430.52 2351.66C1430.52 2351.66 1387.01 2391.14 1379.11 2396.44C1371.22 2401.74 1315.88 2422.94 1317.21 2433.54C1318.53 2444.14 1333.11 2450.66 1333.11 2450.66H1512.3C1512.3 2450.66 1513.57 2445.36 1516.22 2420.35C1517.49 2404.13 1514.78 2387.85 1508.33 2372.91L1430.52 2351.66Z" fill="white" stroke="#263238" stroke-miterlimit="10"/>
<path d="M1514.9 2431.43L1318.16 2436.73C1321.55 2442.72 1326.74 2447.49 1333 2450.35H1512.2C1512.2 2450.35 1513.1 2446.8 1514.9 2431.43Z" fill="white" stroke="#263238" stroke-miterlimit="10"/>
<path d="M1811.22 2348.53C1811.22 2348.53 1809.9 2381.45 1809.9 2398.62C1809.9 2415.79 1807.3 2435.72 1808.57 2439.43C1809.84 2443.14 1812.55 2450.03 1812.55 2450.03H1916.64C1916.64 2450.03 1920.56 2439.43 1915.31 2419.71C1910.07 2400 1900.79 2389.45 1898.2 2372.01C1896.18 2360.34 1893.09 2348.88 1888.97 2337.77C1888.97 2337.77 1837.56 2297.18 1811.22 2348.53Z" fill="white" stroke="#263238" stroke-miterlimit="10"/>
<path d="M1918.02 2437.52C1878.43 2437.52 1829.14 2436.24 1808.2 2435.71C1808.19 2436.96 1808.32 2438.2 1808.57 2439.42C1809.9 2443.4 1812.55 2450.02 1812.55 2450.02H1916.64C1917.79 2445.96 1918.25 2441.73 1918.02 2437.52V2437.52Z" fill="white" stroke="#263238" stroke-miterlimit="10"/>
<path d="M1476.05 1026.29C1476.05 1026.29 1364.11 1131.39 1368.99 1141.19C1373.87 1151 1404.5 1230.55 1404.5 1230.55C1404.5 1230.55 1413.3 1283.55 1408.42 1316.99C1405.44 1338.14 1404.45 1359.53 1405.45 1380.86C1415.74 1393.83 1428.31 1404.8 1442.55 1413.24C1464.18 1425.06 1480.87 1445.68 1494.65 1412.29C1508.43 1378.9 1502.5 1318.96 1502.5 1318.96C1502.5 1318.96 1521.1 1391.67 1524.23 1404.5C1527.35 1417.32 1513.63 1522.37 1513.63 1522.37C1513.63 1522.37 1581.15 1579.4 1696 1566.47C1810.85 1553.53 1847.26 1513.47 1847.26 1513.47C1847.26 1513.47 1835.44 1384.78 1835.44 1370.05C1835.33 1359.86 1834.68 1349.69 1833.48 1339.57C1833.48 1339.57 1873.76 1380.86 1893.42 1378.9C1913.09 1376.94 1947.43 1296.38 1938.58 1283.5C1929.73 1270.62 1899.31 1218.57 1880.65 1181.26C1869.41 1158.77 1860.05 1135.39 1852.67 1111.35C1852.67 1111.35 1820.23 1001.33 1810.27 993.482C1800.3 985.638 1689.96 986.857 1670.29 981.981C1644.33 976.87 1618.08 973.33 1591.7 971.381C1585.12 971.275 1497.67 991.892 1476.05 1026.29Z" fill="#263238" stroke="#263238" stroke-miterlimit="10"/>
<path d="M1806.24 1173.37C1805.71 1145.17 1805.6 1123.23 1805.6 1123.23" stroke="#263238" stroke-miterlimit="10"/>
<path d="M1833.8 1339.57C1826.3 1324.28 1819.75 1308.55 1814.19 1292.45C1810.27 1280.74 1808.2 1238.92 1807.09 1199.76" stroke="#263238" stroke-miterlimit="10"/>
<path d="M1446.53 1223.23C1436.51 1205.74 1428.88 1192.07 1427.93 1189.31" stroke="#263238" stroke-miterlimit="10"/>
<path d="M1502.6 1318.96C1502.6 1318.96 1477.48 1276.56 1456.39 1240.3" stroke="#263238" stroke-miterlimit="10"/>
<path d="M1630.28 985.004C1634.33 1019.58 1634.66 1054.5 1631.29 1089.15" stroke="#263238" stroke-miterlimit="10"/>
<path d="M1696.37 1469.79C1708.19 1472.17 1720.86 1474.35 1734.37 1476.1" stroke="#263238" stroke-miterlimit="10"/>
<path d="M1553.64 1406.41C1553.64 1406.41 1585.44 1441.28 1670.24 1463.65" stroke="#263238" stroke-miterlimit="10"/>
<path d="M1640.08 1481.03C1676.5 1497.37 1716.09 1505.43 1756 1504.61" stroke="#263238" stroke-miterlimit="10"/>
<path d="M1405.35 867.134C1405.35 867.134 1417.11 922.148 1418.12 933.967C1419.13 945.786 1422.04 961.474 1436.78 985.006C1451.51 1008.54 1489.78 1060.64 1497.67 1063.6C1505.57 1066.57 1535.99 1058.68 1535.99 1058.68C1535.99 1058.68 1568.38 1122.54 1577.23 1120.58C1586.08 1118.62 1608.66 1045.9 1611.62 1016.43C1613.5 1001.78 1613.82 986.959 1612.58 972.233L1598.85 923.155C1598.85 923.155 1587.08 854.255 1587.08 849.485C1587.08 844.715 1593.92 809.205 1555.66 794.471C1517.39 779.737 1470.17 778.571 1438.74 815.088C1407.31 851.605 1405.35 867.134 1405.35 867.134Z" fill="white" stroke="#263238" stroke-miterlimit="10"/>
<path d="M1510.5 805.279C1496.72 826.189 1478.66 843.93 1457.5 857.325C1421.19 880.91 1438.84 855.364 1438.84 855.364C1438.84 855.364 1413.3 871.264 1392.68 881.864C1372.06 892.464 1379.91 895.644 1372.06 892.464C1364.22 889.284 1334.96 805.65 1400.63 765.264C1466.3 724.878 1514.21 735.531 1514.21 735.531C1514.21 735.531 1485.7 722.758 1511.24 722.758C1536.79 722.758 1547.6 736.697 1547.6 736.697C1547.6 736.697 1561.33 732.775 1567.21 740.619C1569.78 743.42 1573 745.549 1576.59 746.82C1608.39 760.282 1619.47 790.386 1625.46 821.815C1629.38 842.432 1612.68 891.563 1612.68 891.563L1585.12 906.297C1578.44 900.212 1573.04 892.862 1569.22 884.673C1566.71 876.731 1565.39 868.462 1565.3 860.134C1565.3 860.134 1548.61 881.705 1545.64 866.017C1542.67 850.329 1535.04 810.049 1535.04 810.049C1535.04 810.049 1538.01 825.949 1528.2 825.949C1518.4 825.949 1510.5 805.279 1510.5 805.279Z" fill="#263238" stroke="#263238" stroke-miterlimit="10"/>
<path d="M1583.11 913.292C1583.11 913.292 1582.16 879.902 1601.82 869.09C1621.48 858.278 1635.21 870.097 1629.27 901.526C1623.34 932.955 1588.04 944.721 1588.04 944.721" fill="white"/>
<path d="M1583.11 913.292C1583.11 913.292 1582.16 879.902 1601.82 869.09C1621.48 858.278 1635.21 870.097 1629.27 901.526C1623.34 932.955 1588.04 944.721 1588.04 944.721" stroke="#263238" stroke-miterlimit="10"/>
<path d="M1535.99 1058.67L1588.04 1006.63L1553.64 1086.18L1535.99 1058.67Z" fill="#263238" stroke="#263238" stroke-miterlimit="10"/>
<path d="M1511.93 1006.05C1513.03 1007.97 1513.37 1010.24 1512.87 1012.41C1512.37 1014.57 1511.07 1016.46 1509.23 1017.71C1505.68 1019.14 1501.17 1016.22 1499.16 1011.19C1497.14 1006.15 1498.36 1000.9 1501.86 999.473C1505.36 998.042 1509.86 1001.01 1511.93 1006.05Z" fill="#263238"/>
<path d="M1525.5 915.094C1527.41 921.348 1526.03 927.284 1522.48 928.397C1518.93 929.51 1514.37 925.323 1512.46 919.122C1510.55 912.921 1511.93 906.985 1515.48 905.872C1519.03 904.759 1523.59 908.893 1525.5 915.094Z" fill="#263238"/>
<path d="M1461 926.014C1462.91 932.268 1461.53 938.204 1457.92 939.317C1454.32 940.43 1449.87 936.296 1447.96 930.042C1446.05 923.788 1447.38 917.905 1450.98 916.792C1454.58 915.679 1459.04 919.813 1461 926.014Z" fill="#263238"/>
<path d="M1463.33 901.529C1467.69 905.092 1471.18 909.593 1473.56 914.695C1475.94 919.797 1477.13 925.369 1477.06 930.997C1477.06 950.66 1474.09 980.128 1474.09 980.128L1509.49 975.199" stroke="#263238" stroke-miterlimit="10"/>
<path d="M1486.86 888.752C1486.86 888.752 1504.56 857.323 1532.07 863.206" stroke="#263238" stroke-miterlimit="10"/>
<path d="M1455.43 894.641C1455.43 894.641 1433.86 887.804 1419.13 896.602" stroke="#263238" stroke-miterlimit="10"/>
<path d="M2056.4 1147.07C2056.4 1147.07 2078.02 1139.23 2085.87 1136.47C2093.71 1133.72 2101.77 1138.43 2115.34 1131.6C2128.9 1124.76 2144.8 1110.93 2145.81 1121C2146.82 1131.07 2141.84 1134.72 2133.99 1139.65C2126.15 1144.58 2113.37 1154.39 2113.37 1154.39L2109.45 1164.19L2050.52 1159.32C2050.52 1159.32 2051.63 1150.09 2056.4 1147.07Z" fill="white" stroke="#263238" stroke-miterlimit="10"/>
<path d="M2174.86 1172.46C2174.86 1172.46 2201.94 1151 2205.86 1141.19C2209.78 1131.39 2202.89 1130.59 2196.06 1134.3C2189.22 1138.01 2167.7 1155.93 2167.7 1155.93L2174.86 1172.46Z" fill="white" stroke="#263238" stroke-miterlimit="10"/>
<path d="M2152.7 1177.13C2152.7 1177.13 2172.84 1179.25 2174.85 1172.46C2176.87 1165.68 2192.77 1122.96 2190.17 1117.61C2187.57 1112.26 2182.54 1112.73 2176.97 1121.58C2171.02 1133.72 2165.89 1146.24 2161.6 1159.06C2161.6 1159.06 2148.14 1162.08 2144.75 1171.3C2141.36 1180.52 2152.7 1177.13 2152.7 1177.13Z" fill="white" stroke="#263238" stroke-miterlimit="10"/>
<path d="M2127.26 1182.42C2127.26 1182.42 2145.97 1190.32 2149.89 1184.38C2153.81 1178.45 2181.32 1141.98 2180.31 1136.26C2179.31 1130.54 2174.43 1129.42 2166.59 1136.26C2157.36 1146.14 2148.83 1156.64 2141.04 1167.69C2141.04 1167.69 2127.26 1166.74 2121.38 1174.58C2115.5 1182.42 2127.26 1182.42 2127.26 1182.42Z" fill="white" stroke="#263238" stroke-miterlimit="10"/>
<path d="M1853.25 1343.54C1861.01 1312.12 1880.76 1284.97 1908.26 1267.91C1955.38 1237.44 2019.3 1182.42 2019.3 1182.42C2019.3 1182.42 2040.92 1152 2056.4 1147.07C2071.88 1142.14 2123.18 1156.88 2123.18 1156.88C2123.18 1156.88 2164.47 1115.64 2165.58 1124.5C2166.69 1133.35 2145.97 1164.78 2136.11 1176.54C2126.25 1188.31 2095.83 1191.28 2088.99 1191.28C2076.83 1191.64 2064.7 1192.63 2052.64 1194.24C2048.71 1195.2 1983.74 1283.6 1954.43 1326.74C1925.12 1369.89 1912.03 1377.78 1893.53 1378.79C1875.03 1379.8 1855.21 1365.01 1850.28 1358.17C1845.35 1351.34 1853.25 1343.54 1853.25 1343.54Z" fill="white" stroke="#263238" stroke-miterlimit="10"/>
<path d="M1238.98 1180.95L1300.88 1315.25C1301.84 1317.16 1303.39 1318.71 1305.3 1319.67C1307.21 1320.62 1309.38 1320.93 1311.48 1320.55L1362.84 1311.06C1364.27 1310.79 1365.61 1310.2 1366.78 1309.34C1367.96 1308.48 1368.92 1307.37 1369.61 1306.09C1370.3 1304.81 1370.7 1303.4 1370.77 1301.95C1370.85 1300.5 1370.6 1299.05 1370.05 1297.71L1314.4 1166.64C1313.6 1164.7 1312.18 1163.08 1310.38 1162.02C1308.57 1160.96 1306.46 1160.51 1304.38 1160.75L1246.67 1167.17C1245.14 1167.35 1243.68 1167.89 1242.4 1168.75C1241.12 1169.61 1240.06 1170.75 1239.31 1172.1C1238.56 1173.44 1238.14 1174.94 1238.08 1176.48C1238.03 1178.02 1238.33 1179.55 1238.98 1180.95Z" fill="#263238" stroke="#263238" stroke-miterlimit="10"/>
<path d="M1279.63 1295.9C1279.63 1295.9 1257.43 1261.87 1257.43 1254.24C1257.43 1246.61 1270.36 1228.54 1277.94 1212.21C1285.52 1195.89 1286.68 1184.97 1293.2 1187.2C1299.72 1189.42 1298.5 1195.89 1296.43 1206.75C1292.45 1220.77 1287.74 1234.57 1282.34 1248.09L1284.51 1261.19C1289.76 1250.59 1296.33 1240.71 1304.07 1231.77C1313.87 1222.02 1324.74 1205.69 1332.37 1208.93C1340 1212.16 1343.23 1214.23 1336.71 1222.02C1328.53 1231.82 1321.19 1242.3 1314.77 1253.34C1309.02 1262.76 1304.07 1272.66 1299.98 1282.92C1307.26 1275.94 1315 1269.46 1323.15 1263.52C1333.74 1255.89 1348.69 1244.86 1354.94 1249.21C1361.2 1253.55 1362.58 1257.9 1356.06 1263.36C1349.54 1268.82 1343.6 1272.53 1334.86 1280.16C1325.74 1289.27 1317.17 1298.91 1309.21 1309.04C1316.97 1303.04 1325.63 1298.29 1334.86 1294.95C1353.36 1287.37 1370.26 1288.22 1370.95 1294.05C1371.64 1299.88 1351.5 1305.18 1351.5 1305.18C1337.08 1308.46 1336.39 1313.39 1336.39 1313.39C1336.39 1313.39 1348.37 1337.35 1346.2 1345.19C1346.2 1345.19 1394.54 1337.61 1413.03 1332.21C1431.53 1326.8 1460.42 1337.51 1469.16 1346.25C1487.66 1364.75 1496.35 1393.05 1486.6 1417.01C1476.84 1440.96 1476.79 1433.33 1399.52 1411.71C1322.24 1390.08 1323.73 1382.34 1304.86 1350.76C1298.02 1338.46 1279.63 1295.9 1279.63 1295.9Z" fill="white" stroke="#263238" stroke-miterlimit="10"/>
<path d="M1346.52 1344.98L1344.88 1364.91" stroke="#263238" stroke-miterlimit="10"/>
</svg>
