<svg width="16" height="18" viewBox="0 0 16 18" fill="none" xmlns="http://www.w3.org/2000/svg">
<path fill-rule="evenodd" clip-rule="evenodd" d="M8.75 16.1538C8.75 17.1692 7.9625 18 7 18C6.02875 18 5.25 17.1692 5.25 16.1538H8.75ZM12.25 8.99317V12.4615L14 14.3077V15.2308H0V14.3077L1.75 12.4615V7.84615C1.75 5.00308 3.17625 2.64 5.6875 2.01231V1.38462C5.6875 0.618462 6.27375 0 7 0C7.72625 0 8.3125 0.618462 8.3125 1.38462V2.01231C8.43784 2.04375 8.5605 2.07956 8.68043 2.11959C8.2492 2.81007 8 3.62594 8 4.5C8 6.90139 9.881 8.86345 12.25 8.99317Z" fill="url(#paint0_linear_1552_30944)"/>
<path d="M15.1762 4.84271C15.1912 4.73333 15.1987 4.62031 15.1987 4.5C15.1987 4.38333 15.1912 4.26667 15.1724 4.15729L15.9333 3.58125C16.0007 3.53021 16.0195 3.43177 15.9783 3.35885L15.2586 2.14844C15.2136 2.06823 15.1199 2.04271 15.0375 2.06823L14.1417 2.41823C13.9543 2.27969 13.7556 2.16302 13.5345 2.07552L13.3995 1.14948C13.3846 1.06198 13.3096 1 13.2196 1H11.7804C11.6904 1 11.6192 1.06198 11.6042 1.14948L11.4693 2.07552C11.2481 2.16302 11.0457 2.28333 10.8621 2.41823L9.96627 2.06823C9.88381 2.03906 9.79011 2.06823 9.74513 2.14844L9.02924 3.35885C8.98426 3.43542 8.99925 3.53021 9.07421 3.58125L9.83508 4.15729C9.81634 4.26667 9.80135 4.38698 9.80135 4.5C9.80135 4.61302 9.80885 4.73333 9.82759 4.84271L9.06672 5.41875C8.99925 5.46979 8.98051 5.56823 9.02174 5.64115L9.74138 6.85156C9.78636 6.93177 9.88006 6.95729 9.96252 6.93177L10.8583 6.58177C11.0457 6.72031 11.2444 6.83698 11.4655 6.92448L11.6004 7.85052C11.6192 7.93802 11.6904 8 11.7804 8H13.2196C13.3096 8 13.3846 7.93802 13.3958 7.85052L13.5307 6.92448C13.7519 6.83698 13.9543 6.72031 14.1379 6.58177L15.0337 6.93177C15.1162 6.96094 15.2099 6.93177 15.2549 6.85156L15.9745 5.64115C16.0195 5.56094 16.0007 5.46979 15.9295 5.41875L15.1762 4.84271ZM12.5 5.8125C11.7579 5.8125 11.1507 5.22187 11.1507 4.5C11.1507 3.77813 11.7579 3.1875 12.5 3.1875C13.2421 3.1875 13.8493 3.77813 13.8493 4.5C13.8493 5.22187 13.2421 5.8125 12.5 5.8125Z" fill="url(#paint1_linear_1552_30944)"/>
<defs>
<linearGradient id="paint0_linear_1552_30944" x1="-34.125" y1="-25.8751" x2="30.0068" y2="8.41758" gradientUnits="userSpaceOnUse">
<stop stop-color="#63F3F0"/>
<stop offset="0.0677083" stop-color="#66FFFB"/>
<stop offset="0.333333" stop-color="#26B3FF"/>
<stop offset="0.829429" stop-color="#75CBC9"/>
<stop offset="0.89098" stop-color="#BCF5F3"/>
</linearGradient>
<linearGradient id="paint1_linear_1552_30944" x1="-8.06248" y1="-9.06253" x2="19.9375" y2="10.1875" gradientUnits="userSpaceOnUse">
<stop stop-color="#63F3F0"/>
<stop offset="0.0677083" stop-color="#66FFFB"/>
<stop offset="0.333333" stop-color="#26B3FF"/>
<stop offset="0.829429" stop-color="#75CBC9"/>
<stop offset="0.89098" stop-color="#BCF5F3"/>
</linearGradient>
</defs>
</svg>
