<svg width="14" height="19" viewBox="0 0 14 19" fill="none" xmlns="http://www.w3.org/2000/svg">
<path fill-rule="evenodd" clip-rule="evenodd" d="M12.25 6.125H11.375V4.375C11.375 1.96 9.415 0 7 0C4.585 0 2.625 1.96 2.625 4.375V6.125H1.75C0.7875 6.125 0 6.9125 0 7.875V16.625C0 17.5875 0.7875 18.375 1.75 18.375H12.25C13.2125 18.375 14 17.5875 14 16.625V7.875C14 6.9125 13.2125 6.125 12.25 6.125ZM4.2875 6.125V4.375C4.2875 2.87875 5.50375 1.6625 7 1.6625C8.49625 1.6625 9.7125 2.87875 9.7125 4.375V6.125H4.2875ZM9.36739 12.6485C9.38004 12.5562 9.38636 12.4609 9.38636 12.3594C9.38636 12.2609 9.38004 12.1625 9.36422 12.0702L10.0062 11.5842C10.0631 11.5411 10.0789 11.4581 10.0442 11.3965L9.43696 10.3752C9.39901 10.3076 9.31995 10.286 9.25037 10.3076L8.49454 10.6029C8.33642 10.486 8.16881 10.3875 7.98222 10.3137L7.86837 9.53237C7.85572 9.45854 7.79247 9.40625 7.71657 9.40625H6.50218C6.42628 9.40625 6.36619 9.45854 6.35354 9.53237L6.23969 10.3137C6.05311 10.3875 5.88233 10.4891 5.72737 10.6029L4.97154 10.3076C4.90196 10.283 4.8229 10.3076 4.78495 10.3752L4.18092 11.3965C4.14297 11.4611 4.15562 11.5411 4.21887 11.5842L4.86085 12.0702C4.84504 12.1625 4.83239 12.264 4.83239 12.3594C4.83239 12.4547 4.83871 12.5562 4.85453 12.6485L4.21254 13.1346C4.15562 13.1776 4.13981 13.2607 4.17459 13.3222L4.78179 14.3435C4.81974 14.4112 4.8988 14.4327 4.96838 14.4112L5.72421 14.1159C5.88233 14.2328 6.04994 14.3312 6.23653 14.405L6.35038 15.1864C6.36619 15.2602 6.42628 15.3125 6.50218 15.3125H7.71657C7.79247 15.3125 7.85572 15.2602 7.86521 15.1864L7.97906 14.405C8.16564 14.3312 8.33642 14.2328 8.49138 14.1159L9.24721 14.4112C9.31679 14.4358 9.39585 14.4112 9.4338 14.3435L10.041 13.3222C10.0789 13.2545 10.0631 13.1776 10.003 13.1346L9.36739 12.6485ZM7.10938 13.5625C7.77384 13.5625 8.3125 13.0238 8.3125 12.3594C8.3125 11.6949 7.77384 11.1562 7.10938 11.1562C6.44491 11.1562 5.90625 11.6949 5.90625 12.3594C5.90625 13.0238 6.44491 13.5625 7.10938 13.5625Z" fill="url(#paint0_linear_903_19066)"/>
<defs>
<linearGradient id="paint0_linear_903_19066" x1="-34.125" y1="-26.4141" x2="30.5881" y2="7.48316" gradientUnits="userSpaceOnUse">
<stop stop-color="#63F3F0"/>
<stop offset="0.0677083" stop-color="#66FFFB"/>
<stop offset="0.333333" stop-color="#26B3FF"/>
<stop offset="0.829429" stop-color="#75CBC9"/>
<stop offset="0.89098" stop-color="#BCF5F3"/>
</linearGradient>
</defs>
</svg>
