<svg width="41" height="64" viewBox="0 0 41 64" fill="none" xmlns="http://www.w3.org/2000/svg">
<path d="M31.9533 38.581C31.9533 47.712 24.8744 55.1142 16.1422 55.1142C7.40978 55.1142 0.331055 47.712 0.331055 38.581C0.331055 29.4499 7.40978 22.0477 16.1422 22.0477C24.8744 22.0477 31.9533 29.4499 31.9533 38.581Z" fill="#00C6AE"/>
<path d="M21.6602 27.5396C21.7268 27.7204 21.7854 27.8996 21.8347 28.0761" stroke="#FFC700" stroke-width="6" stroke-miterlimit="10"/>
<path d="M13.3506 29.5383C13.4639 30.2198 13.8433 30.8014 14.6409 31.2779" stroke="#FFC700" stroke-width="6"/>
<path d="M35.2694 9.22557C36.2534 10.8704 37.5177 14.0356 34.332 16.0632C29.87 18.9033 28.706 19.1062 29.676 22.9605C30.646 26.8149 32.78 29.655 30.064 31.2779" stroke="#FFC700" stroke-width="6"/>
<path d="M20.2977 31.1404L19.8432 32.3298L18.7059 32.0835L19.1603 30.8941L20.2977 31.1404Z" fill="#CED4DA"/>
<path d="M23.3763 32.317L22.9219 33.5064L21.7845 33.2601L22.239 32.0707L23.3763 32.317Z" fill="#CED4DA"/>
<path d="M28.6495 29.3296L29.0594 30.5296L27.9119 30.7505L27.5019 29.5505L28.6495 29.3296Z" fill="#FC9184"/>
<g opacity="0.999991">
<path d="M21.5887 24.105L22.3326 23.0323L23.349 23.5037L22.6052 24.5767L21.5887 24.105Z" fill="#FC9184"/>
</g>
<path d="M20.8816 14.9122L22.0678 14.8511L22.1822 16.0914L20.9959 16.1525L20.8816 14.9122Z" fill="#FC9184"/>
<path d="M27.6215 16.6087L28.6903 16.2246L29.3468 17.3421L28.2779 17.7262L27.6215 16.6087Z" fill="#CED4DA"/>
<path d="M26.7819 8.36583L27.7092 7.70596L28.5324 8.67598L27.6051 9.33585L26.7819 8.36583Z" fill="#FC9184"/>
<g opacity="0.588751">
<path d="M35.873 12.9634L36.6323 12.2009L37.3826 12.9944L36.6234 13.7568L35.873 12.9634Z" fill="#FC9184"/>
</g>
<g opacity="0.228612">
<path d="M19.9902 14.0965L20.8312 13.2171L21.6722 14.0965L20.8312 14.9759L19.9902 14.0965Z" fill="#FC9184"/>
</g>
<g opacity="0.0271064">
<path d="M8.21631 14.0965L9.0575 13.2171L9.89849 14.0965L9.0575 14.9759L8.21631 14.0965Z" fill="#CED4DA"/>
</g>
<g opacity="0.01">
<path d="M10.8143 20.2754L11.4089 19.2539L12.4356 18.7303L11.4079 18.0937L10.8565 17.0351L10.2623 18.0562L9.23527 18.5796L10.2632 19.2159L10.8143 20.2754Z" stroke="#FC9184" stroke-width="3" stroke-miterlimit="10"/>
</g>
<path d="M28.043 8.37126C28.1566 8.33325 28.25 8.25704 28.3092 8.15433L29.0655 6.81015L30.7085 6.84414C30.9352 6.85292 31.128 6.72681 31.2029 6.52106C31.2775 6.32158 31.2277 6.08048 31.0742 5.89872L29.9386 4.57233L30.2604 3.01543C30.3025 2.80244 30.2178 2.56687 30.0418 2.40702C29.8622 2.24166 29.6175 2.18476 29.4152 2.26139L27.9572 2.77968L26.5392 1.77943C26.2565 1.58393 25.9012 1.63858 25.7455 1.90116C25.6844 2.00431 25.661 2.12976 25.6791 2.25865L25.9098 3.90555L24.716 4.84115C24.4774 5.02634 24.4599 5.39531 24.6769 5.66531C24.7653 5.77518 24.884 5.85653 25.0138 5.89616L26.5863 6.4065L27.2655 7.9826C27.4028 8.29501 27.751 8.46885 28.043 8.37126ZM27.4944 5.9704C27.3948 5.73858 27.1952 5.55536 26.9603 5.4801L26.0354 5.18959L26.7192 4.65239C26.8981 4.51196 26.9837 4.2801 26.9478 4.03369L26.8203 3.08817L27.6119 3.66031C27.8207 3.8075 28.0737 3.85051 28.2894 3.77543L29.1299 3.48164L28.95 4.37594C28.903 4.60651 28.9748 4.86163 29.1426 5.05837L29.7904 5.82174L28.8608 5.80016C28.6231 5.79694 28.4148 5.91307 28.3035 6.11073L27.8676 6.8769L27.4944 5.9704Z" fill="#FFC700"/>
<path d="M12.7592 7.98421L11.6026 9.44059L9.7383 9.97857L11.4811 11.2897L12.3394 13.1357L13.4946 11.6799L15.3595 11.1421L13.6168 9.83154L12.7592 7.98421Z" stroke="#FC9184" stroke-width="2.83855" stroke-miterlimit="10" stroke-linecap="round"/>
<path d="M35.0257 21.9386L36.1857 22.8116L36.7562 24.0398L37.5253 23.0708L38.7658 22.7124L37.6064 21.8406L37.0358 20.6117L36.2672 21.5805L35.0257 21.9386Z" fill="#FC9184"/>
<path d="M23.6551 25.2282H23.6287C19.6823 29.366 8.45312 32.6941 8.45312 32.6941C8.45312 45.8812 8.6543 56.7505 23.7036 62.5791C38.7527 56.7505 39.084 46.1187 39.084 32.9317C39.084 32.9317 25.6021 28.4379 23.6551 25.2282Z" fill="white"/>
<path d="M7.88623 32.548C7.88623 45.735 8.65428 56.8009 23.7036 62.6296C38.7526 56.8009 39.569 45.849 39.569 32.662" stroke="black" stroke-width="2" stroke-miterlimit="10"/>
<path d="M23.6623 35.2958C24.0126 35.2958 24.9023 39.2077 25.8469 39.9253C26.7915 40.643 30.6243 40.3189 30.7326 40.6673C30.8408 41.0157 27.5579 43.1093 27.197 44.2705C26.8362 45.4317 28.3154 49.1432 28.032 49.3586C27.7485 49.5739 24.8299 46.9559 23.6623 46.9559C22.4946 46.9559 19.576 49.5739 19.2926 49.3586C19.0092 49.1432 20.4883 45.4317 20.1275 44.2705C19.7667 43.1093 16.4837 41.0157 16.592 40.6673C16.7002 40.3189 20.533 40.643 21.4777 39.9253C22.4223 39.2077 23.312 35.2958 23.6623 35.2958Z" fill="black"/>
</svg>
