<svg width="13" height="13" viewBox="0 0 13 13" fill="none" xmlns="http://www.w3.org/2000/svg">
<path d="M3.03438 11.4464L2.44978 11.4349L2.46943 10.4327L1.46726 10.4131L1.47873 9.82849L2.71344 8.64129L4.26908 10.2592L3.03438 11.4464ZM7.77508 4.0202C7.86719 4.11599 7.85368 4.27238 7.75788 4.36449L4.03247 7.94657C3.93668 8.03868 3.77988 8.04605 3.68777 7.95025C3.59566 7.85446 3.60917 7.69807 3.70497 7.60596L7.43038 4.02388C7.52617 3.93177 7.68297 3.9244 7.77508 4.0202ZM7.63753 2.51367L0.484749 9.39127L0.425781 12.3978L3.43229 12.4567L10.5851 5.57914L7.63753 2.51367ZM12.2455 3.98256C12.6394 3.60388 12.6521 2.95665 12.2734 2.56282L10.7177 0.944925C10.3391 0.551097 9.69183 0.538402 9.298 0.917079L8.31875 1.85866L11.2663 4.92413L12.2455 3.98256Z" fill="#73CAC8"/>
</svg>
