<svg width="17" height="18" viewBox="0 0 17 18" fill="none" xmlns="http://www.w3.org/2000/svg">
<path d="M8.5 0.428589C3.80413 0.428589 0 4.23272 0 8.92859C0 13.6055 3.79464 17.4286 8.5 17.4286C13.2148 17.4286 17 13.596 17 8.92859C17 4.23272 13.1959 0.428589 8.5 0.428589ZM14.3722 13.245C14.0307 11.5469 13.2054 10.1429 11.4693 10.1429C10.7009 10.8923 9.65737 11.3572 8.5 11.3572C7.34263 11.3572 6.29911 10.8923 5.53069 10.1429C3.79464 10.1429 2.96931 11.5469 2.62779 13.245C1.74554 12.0307 1.21429 10.5413 1.21429 8.92859C1.21429 4.91576 4.48717 1.64287 8.5 1.64287C12.5128 1.64287 15.7857 4.91576 15.7857 8.92859C15.7857 10.5413 15.2545 12.0307 14.3722 13.245ZM12.1429 7.10716C12.1429 9.11832 10.5112 10.75 8.5 10.75C6.48884 10.75 4.85714 9.11832 4.85714 7.10716C4.85714 5.096 6.48884 3.4643 8.5 3.4643C10.5112 3.4643 12.1429 5.096 12.1429 7.10716Z" fill="url(#paint0_linear_659_13915)"/>
<defs>
<linearGradient id="paint0_linear_659_13915" x1="-41.4374" y1="-24.009" x2="26.5626" y2="22.741" gradientUnits="userSpaceOnUse">
<stop stop-color="#63F3F0"/>
<stop offset="0.0677083" stop-color="#66FFFB"/>
<stop offset="0.333333" stop-color="#26B3FF"/>
<stop offset="0.829429" stop-color="#75CBC9"/>
<stop offset="0.89098" stop-color="#BCF5F3"/>
</linearGradient>
</defs>
</svg>
