<svg width="16" height="16" viewBox="0 0 16 16" fill="none" xmlns="http://www.w3.org/2000/svg">
<path d="M12.9158 13.9986C10.7453 13.9541 8.99951 12.1807 8.99951 9.99951C8.99951 8.98298 9.37871 8.05502 10.0034 7.34935C9.89851 7.33844 9.79023 7.33284 9.67842 7.33284C8.85576 8.15576 7.73857 8.66618 6.49951 8.66618C5.26045 8.66618 4.14326 8.15576 3.32061 7.33284C0.659668 7.33284 -0.000488281 10.4995 -0.000488281 13.2391C-0.000488281 14.7599 0.974512 15.9995 2.16279 15.9995H10.8362C11.8188 15.9995 12.6556 15.1519 12.9158 13.9986Z" fill="#00A3FF"/>
<path d="M6.49951 -0.000488281C8.65264 -0.000488281 10.3995 1.79118 10.3995 3.99951C10.3995 6.20784 8.65264 7.99951 6.49951 7.99951C4.34639 7.99951 2.59951 6.20784 2.59951 3.99951C2.59951 1.79118 4.34639 -0.000488281 6.49951 -0.000488281Z" fill="#00A3FF"/>
<path d="M15.9995 9.99951C15.9995 11.6564 14.6564 12.9995 12.9995 12.9995C11.3427 12.9995 9.99951 11.6564 9.99951 9.99951C9.99951 8.34266 11.3427 6.99951 12.9995 6.99951C14.6564 6.99951 15.9995 8.34266 15.9995 9.99951Z" fill="#00A3FF"/>
<path d="M14 10H12.6667H12" stroke="white" stroke-width="0.5" stroke-linecap="round" stroke-linejoin="round"/>
<path d="M14 10L13.3846 10.7692" stroke="white" stroke-width="0.5" stroke-linecap="round" stroke-linejoin="round"/>
<path d="M14 10L13.3846 9.23077" stroke="white" stroke-width="0.5" stroke-linecap="round" stroke-linejoin="round"/>
</svg>
