<svg width="15" height="17" viewBox="0 0 15 17" xmlns="http://www.w3.org/2000/svg" fill="#73CAC8">
<path fill-rule="evenodd" clip-rule="evenodd" d="M8.93514 0.401924C8.00694 -0.133975 6.86334 -0.133974 5.93514 0.401924L1.5 2.96255C0.571797 3.49845 0 4.48883 0 5.56063V10.6819C0 11.7537 0.571797 12.7441 1.5 13.28L5.93514 15.8406C6.86334 16.3765 8.00694 16.3765 8.93514 15.8406L13.3703 13.28C14.2985 12.7441 14.8703 11.7537 14.8703 10.6819V5.56063C14.8703 4.48883 14.2985 3.49845 13.3703 2.96255L8.93514 0.401924ZM6.0618 3.28324C6.0618 2.73096 6.50952 2.28324 7.0618 2.28324H7.56382C8.11611 2.28324 8.56382 2.73096 8.56382 3.28324V9.6233C8.56382 10.1756 8.11611 10.6233 7.56382 10.6233H7.0618C6.50952 10.6233 6.0618 10.1756 6.0618 9.62331V3.28324ZM8.56376 12.7084C8.56376 13.3993 8.00367 13.9594 7.31275 13.9594C6.62184 13.9594 6.06174 13.3993 6.06174 12.7084C6.06174 12.0175 6.62184 11.4574 7.31275 11.4574C8.00367 11.4574 8.56376 12.0175 8.56376 12.7084Z"/>
</svg>
