<svg width="16" height="16" viewBox="0 0 16 16" fill="none" xmlns="http://www.w3.org/2000/svg">
<path d="M12.9163 13.9991C10.7458 13.9546 9 12.1812 9 10C9 8.98347 9.37919 8.05551 10.0038 7.34984C9.89899 7.33892 9.79072 7.33333 9.67891 7.33333C8.85625 8.15625 7.73906 8.66667 6.5 8.66667C5.26094 8.66667 4.14375 8.15625 3.32109 7.33333C0.660156 7.33333 0 10.5 0 13.2396C0 14.7604 0.975 16 2.16328 16H10.8367C11.8193 16 12.656 15.1524 12.9163 13.9991Z" fill="#FFA200"/>
<path d="M6.5 0C8.65312 0 10.4 1.79167 10.4 4C10.4 6.20833 8.65312 8 6.5 8C4.34687 8 2.6 6.20833 2.6 4C2.6 1.79167 4.34687 0 6.5 0Z" fill="#FFA200"/>
<path d="M16 10C16 11.6569 14.6569 13 13 13C11.3431 13 10 11.6569 10 10C10 8.34315 11.3431 7 13 7C14.6569 7 16 8.34315 16 10Z" fill="#FFA200"/>
<path d="M14.1667 9.12665V8.33331H12V9.12665C11.9999 9.21422 12.0171 9.30095 12.0506 9.38188C12.084 9.46281 12.1331 9.53635 12.195 9.59831L12.5983 9.99998L12.195 10.4016C12.0709 10.5274 12.0009 10.6967 12 10.8733V11.6666H14.1667V10.8733C14.1657 10.6967 14.0957 10.5274 13.9717 10.4016L13.5683 9.99998L13.9717 9.59831C14.0336 9.53635 14.0826 9.46281 14.1161 9.38188C14.1495 9.30095 14.1667 9.21422 14.1667 9.12665ZM13.8333 9.12665C13.833 9.21491 13.7976 9.29942 13.735 9.36165L13.275 9.82331C13.2282 9.87019 13.2019 9.93373 13.2019 9.99998C13.2019 10.0662 13.2282 10.1298 13.275 10.1766L13.735 10.6383C13.7976 10.7005 13.833 10.7851 13.8333 10.8733V11.3333H12.3333V10.8733C12.3337 10.7851 12.3691 10.7005 12.4317 10.6383L12.8917 10.1766C12.9385 10.1298 12.9648 10.0662 12.9648 9.99998C12.9648 9.93373 12.9385 9.87019 12.8917 9.82331L12.4317 9.36165C12.3691 9.29942 12.3337 9.21491 12.3333 9.12665V8.66665H13.8333V9.12665Z" fill="white"/>
</svg>
