 <svg width="21" height="21" viewBox="0 0 21 21" fill="none" xmlns="http://www.w3.org/2000/svg">
<path d="M15.0086 13.2075H14.06L13.7238 12.8833C14.9005 11.5145 15.6089 9.73752 15.6089 7.80441C15.6089 3.49395 12.1149 -4.57764e-05 7.80446 -4.57764e-05C3.494 -4.57764e-05 0 3.49395 0 7.80441C0 12.1149 3.494 15.6089 7.80446 15.6089C9.73756 15.6089 11.5146 14.9005 12.8834 13.7238L13.2075 14.06V15.0085L19.211 21L21 19.2109L15.0086 13.2075ZM7.80446 13.2075C4.81475 13.2075 2.40137 10.7941 2.40137 7.80441C2.40137 4.81471 4.81475 2.40133 7.80446 2.40133C10.7942 2.40133 13.2075 4.81471 13.2075 7.80441C13.2075 10.7941 10.7942 13.2075 7.80446 13.2075Z" fill="#A8D1E7"/>
</svg>
