<svg width="16" height="16" viewBox="0 0 16 16" fill="none" xmlns="http://www.w3.org/2000/svg">
<path fill-rule="evenodd" clip-rule="evenodd" d="M12.9163 13.9991C10.7458 13.9546 9 12.1812 9 10C9 8.98347 9.37919 8.05551 10.0038 7.34984C9.89899 7.33892 9.79072 7.33333 9.67891 7.33333C8.85625 8.15625 7.73906 8.66667 6.5 8.66667C5.26094 8.66667 4.14375 8.15625 3.32109 7.33333C0.660156 7.33333 0 10.5 0 13.2396C0 14.7604 0.975 16 2.16328 16H10.8367C11.8193 16 12.656 15.1524 12.9163 13.9991ZM6.5 0C8.65312 0 10.4 1.79167 10.4 4C10.4 6.20833 8.65312 8 6.5 8C4.34687 8 2.6 6.20833 2.6 4C2.6 1.79167 4.34687 0 6.5 0Z" fill="#DADADA"/>
<path fill-rule="evenodd" clip-rule="evenodd" d="M13 13C14.6569 13 16 11.6569 16 10C16 8.34315 14.6569 7 13 7C11.3431 7 10 8.34315 10 10C10 11.6569 11.3431 13 13 13ZM12.5 8.5C12.5 8.22386 12.7239 8 13 8C13.2761 8 13.5 8.22386 13.5 8.5V9.5H14.5C14.7761 9.5 15 9.72386 15 10C15 10.2761 14.7761 10.5 14.5 10.5H13.5V11.5C13.5 11.7761 13.2761 12 13 12C12.7239 12 12.5 11.7761 12.5 11.5V10.5H11.5C11.2239 10.5 11 10.2761 11 10C11 9.72386 11.2239 9.5 11.5 9.5H12.5V8.5Z" fill="#DADADA"/>
</svg>
