<svg width="16" height="13" viewBox="0 0 16 13" fill="none" xmlns="http://www.w3.org/2000/svg">
<path d="M6.67739 12.0893C6.67739 11.7383 6.30741 11.7857 6.07024 11.7857H3.3381C2.50328 11.7857 1.82024 11.1027 1.82024 10.2678V3.58926C1.82024 2.75444 2.50328 2.0714 3.3381 2.0714H6.37381C6.80071 2.0714 6.67739 1.42631 6.67739 1.16069C6.67739 0.999415 6.53509 0.857117 6.37381 0.857117H3.3381C1.82973 0.857117 0.605957 2.08089 0.605957 3.58926V10.2678C0.605957 11.7762 1.82973 13 3.3381 13H6.37381C6.80071 13 6.67739 12.3549 6.67739 12.0893ZM15.481 6.92855C15.481 6.76727 15.4146 6.61549 15.3007 6.50165L10.14 1.34093C10.0262 1.22709 9.87437 1.16069 9.7131 1.16069C9.38107 1.16069 9.10596 1.4358 9.10596 1.76783V4.49997H4.85596C4.52393 4.49997 4.24881 4.77509 4.24881 5.10712V8.74997C4.24881 9.08201 4.52393 9.35712 4.85596 9.35712H9.10596V12.0893C9.10596 12.4213 9.38107 12.6964 9.7131 12.6964C9.87437 12.6964 10.0262 12.63 10.14 12.5162L15.3007 7.35544C15.4146 7.2416 15.481 7.08982 15.481 6.92855Z" fill="url(#paint0_linear_659_13892)"/>
<defs>
<linearGradient id="paint0_linear_659_13892" x1="-35.6518" y1="-16.5983" x2="15.6113" y2="26.5749" gradientUnits="userSpaceOnUse">
<stop stop-color="#63F3F0"/>
<stop offset="0.0677083" stop-color="#66FFFB"/>
<stop offset="0.333333" stop-color="#26B3FF"/>
<stop offset="0.829429" stop-color="#75CBC9"/>
<stop offset="0.89098" stop-color="#BCF5F3"/>
</linearGradient>
</defs>
</svg>
