<svg width="46" height="54" viewBox="0 0 46 54" fill="none" xmlns="http://www.w3.org/2000/svg">
<path d="M35.3393 36.923L26.5288 41.8458L31.9641 52.9807C32.2492 53.5645 33.0606 53.6177 33.419 53.0757L35.8342 49.4238L40.1995 49.7663C40.847 49.8171 41.3047 49.1447 41.0196 48.5608L35.3393 36.923Z" fill="#EC4055"/>
<path d="M35.3396 36.923L26.5293 41.8457L27.5349 43.906C28.1582 43.6603 28.7278 43.2817 29.1895 42.7815C29.4029 42.5507 29.7053 42.4182 30.0195 42.4182C30.0933 42.4182 30.1675 42.4255 30.2403 42.4399C30.4768 42.4871 30.7183 42.5025 30.9589 42.5111L32.4923 45.653C32.7105 46.1 33.1582 46.3599 33.6248 46.3599C33.8101 46.3599 33.9986 46.3189 34.1766 46.2319C34.8016 45.9269 35.0606 45.1733 34.7556 44.5476L33.7557 42.499C33.5852 42.1495 33.6808 41.733 33.9809 41.4857C34.5041 41.0543 34.9332 40.5049 35.2188 39.8621C35.372 39.5175 35.6964 39.3066 36.0719 39.2682C36.2014 39.2549 36.3221 39.2182 36.4474 39.193L35.3396 36.923Z" fill="#E42136"/>
<path d="M10.9808 36.9502L5.30957 48.5691C5.02447 49.1531 5.48249 49.8257 6.13057 49.7744L10.4963 49.4286L12.9096 53.0835C13.2679 53.6256 14.08 53.573 14.3651 52.9889L19.8227 41.8074L10.9808 36.9502Z" fill="#EC4055"/>
<path d="M16.5857 40.0293L14.3754 38.8153L10.9804 36.9501L9.87695 39.2106C9.90723 39.2502 9.89743 39.2376 9.92771 39.277C10.4197 39.215 10.8885 39.4905 11.0888 39.9252C11.3796 40.5567 11.8105 41.0954 12.3322 41.5179C12.6357 41.7634 12.7318 42.1826 12.5605 42.5336L11.5729 44.5572C11.2678 45.1827 11.527 45.9365 12.152 46.2415C12.3298 46.3283 12.5185 46.3695 12.7036 46.3695C13.1704 46.3695 13.6181 46.1094 13.8363 45.6626L15.3719 42.516C15.5968 42.5053 15.8222 42.4936 16.0431 42.4496C16.1157 42.4351 16.1901 42.4278 16.264 42.4278C16.5781 42.4278 16.8806 42.5601 17.0937 42.7909C17.565 43.3011 18.1484 43.6851 18.7865 43.9299L19.8224 41.8075L16.5857 40.0293Z" fill="#E42136"/>
<path d="M42.6394 26.0923C43.1366 27.2931 42.7451 28.6781 41.6931 29.4411C40.9014 30.0153 40.4651 30.96 40.5416 31.9351C40.6435 33.2308 39.8432 34.427 38.6068 34.8275C37.6763 35.1287 36.9695 35.8926 36.7412 36.8437C36.4376 38.1072 35.3069 38.9978 34.0072 38.9967C33.0291 38.9956 32.1208 39.5036 31.6097 40.3377C30.9304 41.4456 29.5801 41.9431 28.3443 41.5403C27.4143 41.2373 26.3936 41.4397 25.6497 42.0749C24.6615 42.9189 23.2234 42.9745 22.1726 42.2096C21.3818 41.6341 20.3484 41.5113 19.4447 41.8853C18.2439 42.3825 16.8589 41.9912 16.0961 40.9391C15.5219 40.1471 14.577 39.711 13.6018 39.7875C12.3062 39.8894 11.11 39.0891 10.7095 37.8529C10.4083 36.9223 9.64439 36.2154 8.69318 35.9871C7.42962 35.6835 6.53919 34.5526 6.54036 33.2531C6.5412 32.275 6.0332 31.3667 5.19932 30.8557C4.09144 30.1765 3.5939 28.826 3.99673 27.5903C4.29975 26.6603 4.09732 25.6397 3.46208 24.8958C2.61816 23.9074 2.56249 22.4693 3.32737 21.4185C3.9029 20.6277 4.02576 19.5943 3.65168 18.6907C3.1545 17.4898 3.54581 16.1048 4.59794 15.342C5.38988 14.7678 5.82598 13.823 5.74945 12.8479C5.64756 11.5523 6.44791 10.3559 7.68414 9.95546C8.61459 9.65419 9.3214 8.89029 9.54991 7.93928C9.85349 6.67554 10.9842 5.7851 12.2838 5.78626C13.262 5.78712 14.1703 5.2793 14.6813 4.44542C15.3605 3.33737 16.711 2.83982 17.9466 3.24263C18.8767 3.54568 19.8975 3.34327 20.6414 2.70803C21.6296 1.86427 23.0677 1.80841 24.1185 2.5733C24.9093 3.14883 25.9427 3.27168 26.8464 2.89761C28.0472 2.40042 29.4322 2.79191 30.195 3.84387C30.7692 4.6358 31.714 5.07191 32.6892 4.99537C33.9849 4.89351 35.1811 5.69384 35.5815 6.93024C35.8828 7.86069 36.6467 8.5675 37.5977 8.79584C38.8615 9.09942 39.7519 10.2302 39.7507 11.5299C39.7499 12.5079 40.2577 13.4162 41.0916 13.9273C42.1996 14.6064 42.6972 15.9571 42.2944 17.1927C41.9912 18.1226 42.1938 19.1434 42.829 19.8873C43.6728 20.8755 43.7286 22.3137 42.9637 23.3645C42.388 24.1552 42.2652 25.1886 42.6394 26.0923Z" fill="#FDD144"/>
<path d="M12.9027 36.7476C15.6586 38.7184 19.029 39.9268 22.7424 40.0231C31.1183 40.2404 38.6281 34.3267 40.3809 26.1331C41.1578 22.5007 40.7733 18.9409 39.5036 15.7998C39.3008 15.298 39.8392 14.8146 40.306 15.0885C41.044 15.5213 41.7494 16.0007 42.4164 16.5252C42.4876 15.5419 42.0442 14.5737 41.2091 14.003C40.3733 13.4316 39.753 12.5334 39.7509 11.5211C39.7481 10.225 38.8591 9.09867 37.5983 8.79579C36.6325 8.56376 35.888 7.87477 35.5819 6.93C35.1815 5.69377 33.9852 4.89344 32.6897 4.99515C31.6996 5.0729 30.7782 4.64769 30.1952 3.84377C29.4324 2.79147 28.0472 2.40031 26.8466 2.89735C25.929 3.27734 24.9215 3.15756 24.1186 2.57301C23.0679 1.80815 21.63 1.86385 20.6417 2.70796C19.8863 3.35275 18.8912 3.5501 17.947 3.24239C16.7114 2.83975 15.3607 3.33693 14.6816 4.44498C14.1625 5.29165 13.277 5.78703 12.2838 5.78615C10.9842 5.78498 9.8535 6.67543 9.55011 7.93902C9.31811 8.90459 8.62927 9.6493 7.68432 9.95537C6.44809 10.3558 5.64794 11.5521 5.74965 12.8476C5.8274 13.8377 5.40205 14.7587 4.59812 15.3419C3.54599 16.1047 3.15466 17.4899 3.65187 18.6906C4.03169 19.6081 3.91191 20.6156 3.32755 21.4184C2.56267 22.4692 2.61835 23.9073 3.46226 24.8957C4.10708 25.651 4.3046 26.6461 3.99686 27.5905C3.59423 28.8261 4.09141 30.1767 5.19946 30.8559C6.04632 31.3748 6.54135 32.2603 6.54049 33.2533C6.53933 34.5499 7.4258 35.6786 8.68512 35.9851C9.66885 36.2246 10.3966 37.0381 10.7561 37.9847C11.1151 38.9301 11.9518 39.5881 12.9244 39.7494C12.5711 38.9781 12.2708 38.1801 12.0229 37.3612C11.8663 36.8429 12.4625 36.4328 12.9027 36.7476Z" fill="#FEBF32"/>
<path d="M23.1457 6.43755C31.9568 6.43755 39.0999 13.5805 39.0999 22.3918C39.0999 31.2031 31.9568 38.3461 23.1457 38.3461C14.3343 38.3461 7.19141 31.2031 7.19141 22.3918C7.19141 13.5805 14.3343 6.43755 23.1457 6.43755Z" fill="#FCF29E"/>
<path d="M27.6191 30.1609C21.5205 28.8772 16.6602 24.017 15.3764 17.9184C14.9448 15.8684 14.9226 13.8788 15.2319 12.0009C15.3356 11.3703 14.5901 10.9645 14.0962 11.3698C10.4657 14.3493 8.32574 19.0744 8.99133 24.2723C9.80357 30.6145 14.9228 35.7337 21.265 36.5458C26.4631 37.2116 31.188 35.0717 34.1673 31.441C34.5727 30.9471 34.1668 30.2017 33.5366 30.3055C31.6583 30.6147 29.6689 30.5923 27.6191 30.1609Z" fill="#FBE65F"/>
<path d="M23.1424 27.5522L18.8609 30.24C17.9174 30.8325 16.7332 29.9723 17.005 28.8917L18.2384 23.9892L14.359 20.7478C13.5039 20.0335 13.9563 18.6415 15.0678 18.5662L20.1115 18.2242L21.9954 13.5328C22.4107 12.499 23.8744 12.499 24.2895 13.5328L26.1733 18.2242L31.2171 18.5662C32.3286 18.6415 32.781 20.0335 31.9261 20.7478L28.0465 23.9892L29.2799 28.8917C29.5516 29.9723 28.3675 30.8325 27.424 30.24L23.1424 27.5522Z" fill="#FEFEFE"/>
<path d="M28.7426 26.7561C23.3901 26.4289 18.8518 23.1157 16.7783 18.4501L15.0677 18.566C13.9562 18.6414 13.5039 20.0333 14.359 20.7475L18.2384 23.989L17.0049 28.8917C16.7331 29.972 17.9171 30.8324 18.8608 30.24L23.1421 27.5519L27.4239 30.24C28.3674 30.8324 29.5515 29.972 29.2796 28.8917L28.7426 26.7561Z" fill="#FDFAD2"/>
</svg>
