<svg width="16" height="16" viewBox="0 0 16 16" xmlns="http://www.w3.org/2000/svg" fill="#73CAC8">
<path d="M16 6.4341C16 6.15055 15.6923 6.03713 15.4615 5.99932L10.6346 5.30934L8.47115 1.00877C8.38462 0.829186 8.22115 0.621246 8 0.621246C7.77885 0.621246 7.61538 0.829186 7.52885 1.00877L5.36538 5.30934L0.538462 5.99932C0.298077 6.03713 0 6.15055 0 6.4341C0 6.60423 0.125 6.76491 0.240385 6.88779L3.74038 10.2337L2.91346 14.9596C2.90385 15.0258 2.89423 15.0825 2.89423 15.1487C2.89423 15.3944 3.01923 15.6212 3.29808 15.6212C3.43269 15.6212 3.55769 15.574 3.68269 15.5078L8 13.2772L12.3173 15.5078C12.4327 15.574 12.5673 15.6212 12.7019 15.6212C12.9808 15.6212 13.0962 15.3944 13.0962 15.1487C13.0962 15.0825 13.0962 15.0258 13.0865 14.9596L12.2596 10.2337L15.75 6.88779C15.875 6.76491 16 6.60423 16 6.4341Z"/>
</svg>
