<svg width="47" height="29" viewBox="0 0 47 29" fill="none" xmlns="http://www.w3.org/2000/svg">
<path d="M38.1141 4.82978L34.5891 1.28291C33.8547 0.528257 32.8266 0 31.725 0H15.0547C13.9531 0 12.925 0.452792 12.1172 1.28291L8.66562 4.82978H0V24.1489H4.7C5.94844 24.1489 6.97656 23.0924 6.97656 21.734H7.71094L13.8797 27.5448C16.1562 29.4315 19.3141 29.4315 21.6641 27.8467C22.5453 28.6013 23.5734 28.9787 24.675 28.9787C25.9969 28.9787 27.2453 28.4504 28.2734 27.1675C29.8891 27.8467 31.7984 27.3939 32.9734 25.9601L34.8828 23.4697C35.25 22.9414 35.5438 22.4132 35.6906 21.734H39.95C39.95 23.0924 40.9781 24.1489 42.3 24.1489H47V4.82978H38.1141ZM3.525 21.734C2.86406 21.734 2.35 21.2057 2.35 20.5266C2.35 19.8474 2.86406 19.3191 3.525 19.3191C4.1125 19.3191 4.7 19.8474 4.7 20.5266C4.7 21.2057 4.1125 21.734 3.525 21.734ZM32.1656 21.2057L30.1828 23.6206C30.0359 23.9225 29.6688 23.9225 29.375 23.7716L27.6125 22.2623L25.4094 25.0545C24.9688 25.5827 24.3078 25.3563 24.0875 25.2054L21.3703 22.866L20.2687 24.2998C19.2406 25.5827 17.4047 25.7337 16.2297 24.7526L9.03281 18.1117H7.05V8.45211H10.0609L14.6141 3.84873C14.7609 3.77326 14.9078 3.6978 15.0547 3.62233H19.2406L16.3766 6.33908C14.1734 8.37665 14.1 11.7726 16.0094 13.9611C17.1109 15.1685 20.5625 17.0552 23.5 14.3384L24.0875 13.7347L32.0187 20.3756C32.3125 20.602 32.3125 20.9793 32.1656 21.2057ZM39.95 18.1117H34.8094C34.6625 17.9607 34.4422 17.7343 34.2953 17.5834L26.7313 11.2443L27.6125 10.4142C28.1266 9.96142 28.1266 9.20676 27.6859 8.67851L26.9516 7.84839C26.5109 7.32013 25.7031 7.32013 25.2625 7.77292L21.2234 11.5462C20.4891 12.2254 19.3141 12.3008 18.6531 11.5462C17.9922 10.7915 18.0656 9.65956 18.7266 8.98037L23.5734 4.45245C24.0875 3.92419 24.8219 3.6978 25.5562 3.6978L31.725 3.62233C31.8719 3.62233 32.0187 3.6978 32.0922 3.84873L36.6453 8.45211H39.95V18.1117ZM43.475 21.734C42.8141 21.734 42.3 21.2057 42.3 20.5266C42.3 19.8474 42.8141 19.3191 43.475 19.3191C44.0625 19.3191 44.65 19.8474 44.65 20.5266C44.65 21.2057 44.0625 21.734 43.475 21.734Z" fill="#FFD924"/>
</svg>
