<svg width="18" height="36" viewBox="10 5 70 100" xmlns="http://www.w3.org/2000/svg" fill="#73CAC8">
<path d="M76.2899 65.3244L65.8557 67.452V67.4525C66.0302 66.9383 66.1071 66.396 66.0817 65.8532C65.972 63.5073 64.0017 61.6712 61.5947 61.6712H60.6342C57.7945 61.8078 55.0906 61.2379 51.8644 59.8261L47.7328 58.0194C46.8866 57.646 45.9438 57.5514 45.0405 57.7488L35.7439 59.7694L34.0735 59.7699L31.8596 74.5505H35.7207L51.5358 80.6327C54.4463 81.7859 57.6902 81.7703 60.5898 80.5885L80.5512 72.4965L80.5507 72.496C80.7954 72.3968 80.9855 72.1978 81.0738 71.949C81.8119 69.8582 81.5486 67.8901 80.3419 66.5618V66.5613C79.8406 66.0091 79.1991 65.6029 78.4859 65.3847C77.7722 65.1671 77.0133 65.1458 76.2891 65.3239L76.2899 65.3244Z"/>
<path d="M32.1422 58.0491C31.9667 57.846 31.7116 57.7285 31.4436 57.728H20.665C20.0941 57.7285 19.5471 57.9555 19.1436 58.3592C18.74 58.7628 18.513 59.3097 18.5125 59.8806V79.2529C18.513 79.8238 18.74 80.3708 19.1436 80.7743C19.5472 81.1779 20.0942 81.4049 20.665 81.4054H28.1679C28.6224 81.406 29.0099 81.0756 29.0806 80.6268L32.3547 58.7943C32.3973 58.5268 32.3193 58.2541 32.1422 58.0489L32.1422 58.0491Z"/>
<path d="M41.8683 43.6874C43.8204 46.1968 46.2825 48.5052 49.1857 50.5498C54.1133 54.0197 58.5634 55.5152 58.7504 55.578C58.9389 55.6403 59.142 55.6403 59.3306 55.578C59.5176 55.5151 63.9677 54.0196 68.8952 50.5498C71.7979 48.5058 74.2606 46.1968 76.2126 43.6874C78.6727 40.5322 80.3183 37.053 81.1167 33.3478V33.3483C81.3666 32.1691 81.4902 30.9666 81.4856 29.7615C81.4881 23.5545 76.397 18.5117 70.1461 18.5117C65.8414 18.506 61.7788 20.5002 59.1499 23.9088L59.0403 24.047L58.9323 23.9078C56.3029 20.4991 52.2397 18.5055 47.9351 18.5118C41.684 18.5118 36.5929 23.5546 36.5929 29.7615C36.5882 30.9661 36.7119 32.1681 36.9622 33.3467C37.7627 37.053 39.412 40.5286 41.8685 43.6874L41.8683 43.6874Z"/>
</svg>