<svg width="64" height="53" viewBox="0 0 64 53" fill="none" xmlns="http://www.w3.org/2000/svg">
<path d="M63.9502 28.9951C65.2492 45.8915 40.8242 53.9447 28.367 52.2724C15.9097 50.6001 5.30743 44.6127 1.06754 28.9951C-5.61625 4.37532 20.7056 -4.24858 34.9768 9.79623C49.6208 24.2079 63.0657 17.4904 63.9502 28.9951Z" fill="url(#paint0_linear_1534_18591)"/>
<path fill-rule="evenodd" clip-rule="evenodd" d="M37.2503 16.755L47.4431 8.81723L46.3235 7.37967L36.0384 15.3894L26.7929 24.7212L17.5229 19.4483L16.6221 21.0321L27.1051 26.995L37.2503 16.755Z" fill="#2A2A2A"/>
<path d="M17.458 17.1865C19.3061 17.1865 20.8066 18.687 20.8066 20.5351C20.8066 22.3832 19.3061 23.8837 17.458 23.8837C15.6099 23.8837 14.1094 22.3832 14.1094 20.5351C14.1094 18.687 15.6099 17.1865 17.458 17.1865Z" fill="#A8D1E7"/>
<path d="M27.1982 21.9437C29.0463 21.9437 30.5468 23.4442 30.5468 25.2923C30.5468 27.1403 29.0463 28.6409 27.1982 28.6409C25.3501 28.6409 23.8496 27.1403 23.8496 25.2923C23.8496 23.4442 25.3501 21.9437 27.1982 21.9437Z" fill="#73CAC8"/>
<path d="M36.9384 12.203C38.7865 12.203 40.287 13.7035 40.287 15.5516C40.287 17.3997 38.7865 18.9002 36.9384 18.9002C35.0903 18.9002 33.5898 17.3997 33.5898 15.5516C33.5898 13.7035 35.0903 12.203 36.9384 12.203Z" fill="#FFD924"/>
<path d="M46.5429 5C48.391 5 49.8915 6.5005 49.8915 8.34859C49.8915 10.1967 48.391 11.6972 46.5429 11.6972C44.6948 11.6972 43.1943 10.1967 43.1943 8.34859C43.1943 6.5005 44.6948 5 46.5429 5Z" fill="#F66D63"/>
<path d="M52.9541 44.9773C52.9541 45.7774 52.293 46.4271 51.4788 46.4271H12.5222C11.7079 46.4271 11.0469 45.7774 11.0469 44.9773C11.0469 44.1772 11.7079 43.5276 12.5222 43.5276H51.4788C52.293 43.5276 52.9541 44.1772 52.9541 44.9773Z" fill="#54CC9C"/>
<path d="M21.3309 30.2178V43.2547C21.3309 43.8942 20.7896 44.4135 20.1228 44.4135H15.1896C14.5228 44.4135 13.9814 43.8942 13.9814 43.2547V30.2178C13.9814 29.5783 14.5228 29.059 15.1896 29.059H20.1228C20.7896 29.059 21.3309 29.5783 21.3309 30.2178Z" fill="#A8D1E7"/>
<path d="M30.9208 34.4105V43.575C30.9208 44.0246 30.3794 44.3897 29.7127 44.3897H24.7794C24.1127 44.3897 23.5713 44.0246 23.5713 43.575V34.4105C23.5713 33.9609 24.1127 33.5959 24.7794 33.5959H29.7127C30.3794 33.5959 30.9208 33.9609 30.9208 34.4105Z" fill="#73CAC8"/>
<path d="M40.5106 25.295V42.8495C40.5106 43.7107 39.9693 44.4099 39.3025 44.4099H34.3693C33.7025 44.4099 33.1611 43.7107 33.1611 42.8495V25.295C33.1611 24.4338 33.7025 23.7346 34.3693 23.7346H39.3025C39.9693 23.7346 40.5106 24.4338 40.5106 25.295Z" fill="#FFD924"/>
<path d="M50.0995 19.3169V42.2927C50.0995 43.4198 49.5581 44.335 48.8914 44.335H43.9581C43.2914 44.335 42.75 43.4198 42.75 42.2927V19.3169C42.75 18.1898 43.2914 17.2746 43.9581 17.2746H48.8914C49.5581 17.2746 50.0995 18.1898 50.0995 19.3169Z" fill="#F66D63"/>
<defs>
<linearGradient id="paint0_linear_1534_18591" x1="37.8513" y1="5.87627" x2="24.9065" y2="58.4244" gradientUnits="userSpaceOnUse">
<stop stop-color="#B9F3F2" stop-opacity="0"/>
<stop offset="1" stop-color="#73CAC8"/>
</linearGradient>
</defs>
</svg>
