<svg width="33" height="29" viewBox="0 0 33 29" fill="none" xmlns="http://www.w3.org/2000/svg" fill="#F66D63">
<path fill-rule="evenodd" clip-rule="evenodd" d="M21.9374 16.1554C22.1332 16.5292 22.5248 16.7784 22.952 16.7784H28.381C28.2128 16.9606 28.0888 17.0765 28.0262 17.135C28.0093 17.1508 27.9969 17.1624 27.9894 17.17L16.9 27.85C16.6864 28.0636 16.4016 28.1704 16.1168 28.1704C15.832 28.1704 15.5472 28.0636 15.3336 27.85L4.22637 17.1344C4.19077 17.1166 4.04837 16.992 3.85257 16.7784H6.18147C6.79841 17.762 7.89241 18.416 9.13915 18.416C11.066 18.416 12.628 16.854 12.628 14.9272C12.628 14.3149 12.4702 13.7394 12.1932 13.2392L12.7704 10.9222L16.1524 22.7948C16.2948 23.2754 16.7398 23.6136 17.256 23.6136C17.7544 23.6136 18.1994 23.2754 18.3418 22.7948L20.9406 14.1618L21.9374 16.1554ZM10.2509 11.6193L11.5956 6.24079C11.7202 5.74239 12.1652 5.38639 12.6814 5.38639C13.2154 5.38639 13.6604 5.72459 13.8028 6.20519L17.2916 18.416L19.5878 10.762C19.7124 10.2992 20.104 9.99659 20.5846 9.94319C21.0296 9.90759 21.4924 10.1568 21.6882 10.5662L23.664 14.5H30.2322C31.1756 13.076 32.0656 11.207 32.0656 9.15999C32.0656 3.94459 28.8794 0.82959 23.5572 0.82959C20.4422 0.82959 17.523 3.28599 16.1168 4.67439C14.7106 3.28599 11.7914 0.82959 8.67636 0.82959C3.35417 0.82959 0.167969 3.94459 0.167969 9.15999C0.167969 11.207 1.05797 13.076 2.00137 14.5H5.67625C5.88688 12.7747 7.35696 11.4384 9.13915 11.4384C9.52788 11.4384 9.90175 11.5019 10.2509 11.6193Z"/>
</svg>
